<svg width="169" height="48" viewBox="0 0 169 48" fill="none" xmlns="http://www.w3.org/2000/svg">
<g id="65a56db0f26b2bf8ef72c29c_SoftAI - logo ipsum V2 2" clip-path="url(#clip0_18428_370)">
<path id="Vector" d="M72.0391 33.9999V12.9999H79.2091C81.6691 12.9999 83.6891 13.4399 85.2691 14.3199C86.8691 15.1799 88.0491 16.3999 88.8091 17.9799C89.5891 19.5399 89.9791 21.3799 89.9791 23.4999C89.9791 25.6199 89.5891 27.4699 88.8091 29.0499C88.0491 30.6099 86.8691 31.8299 85.2691 32.7099C83.6891 33.5699 81.6691 33.9999 79.2091 33.9999H72.0391ZM75.8791 30.6999H79.0291C80.7891 30.6999 82.1791 30.4199 83.1991 29.8599C84.2191 29.2799 84.9491 28.4599 85.3891 27.3999C85.8291 26.3199 86.0491 25.0199 86.0491 23.4999C86.0491 21.9999 85.8291 20.7099 85.3891 19.6299C84.9491 18.5499 84.2191 17.7199 83.1991 17.1399C82.1791 16.5599 80.7891 16.2699 79.0291 16.2699H75.8791V30.6999ZM95.3472 16.8099C94.6472 16.8099 94.0672 16.5999 93.6072 16.1799C93.1672 15.7599 92.9472 15.2299 92.9472 14.5899C92.9472 13.9499 93.1672 13.4299 93.6072 13.0299C94.0672 12.6099 94.6472 12.3999 95.3472 12.3999C96.0472 12.3999 96.6172 12.6099 97.0572 13.0299C97.5172 13.4299 97.7472 13.9499 97.7472 14.5899C97.7472 15.2299 97.5172 15.7599 97.0572 16.1799C96.6172 16.5999 96.0472 16.8099 95.3472 16.8099ZM93.4272 33.9999V19.1199H97.2672V33.9999H93.4272ZM99.8653 33.9999L105.265 26.5599L99.8653 19.1199H103.975L107.755 24.3999L111.505 19.1199H115.645L110.215 26.5599L115.645 33.9999H111.505L107.755 28.7199L103.975 33.9999H99.8653ZM124.441 34.3599C123.001 34.3599 121.701 34.0299 120.541 33.3699C119.401 32.7099 118.491 31.7999 117.811 30.6399C117.151 29.4599 116.821 28.0999 116.821 26.5599C116.821 25.0199 117.161 23.6699 117.841 22.5099C118.521 21.3299 119.431 20.4099 120.571 19.7499C121.731 19.0899 123.031 18.7599 124.471 18.7599C125.891 18.7599 127.171 19.0899 128.311 19.7499C129.471 20.4099 130.381 21.3299 131.041 22.5099C131.721 23.6699 132.061 25.0199 132.061 26.5599C132.061 28.0999 131.721 29.4599 131.041 30.6399C130.381 31.7999 129.471 32.7099 128.311 33.3699C127.151 34.0299 125.861 34.3599 124.441 34.3599ZM124.441 31.0299C125.441 31.0299 126.311 30.6599 127.051 29.9199C127.791 29.1599 128.161 28.0399 128.161 26.5599C128.161 25.0799 127.791 23.9699 127.051 23.2299C126.311 22.4699 125.451 22.0899 124.471 22.0899C123.451 22.0899 122.571 22.4699 121.831 23.2299C121.111 23.9699 120.751 25.0799 120.751 26.5599C120.751 28.0399 121.111 29.1599 121.831 29.9199C122.571 30.6599 123.441 31.0299 124.441 31.0299ZM135.494 33.9999V19.1199H138.884L139.184 21.6399C139.644 20.7599 140.304 20.0599 141.164 19.5399C142.044 19.0199 143.074 18.7599 144.254 18.7599C146.094 18.7599 147.524 19.3399 148.544 20.4999C149.564 21.6599 150.074 23.3599 150.074 25.5999V33.9999H146.234V25.9599C146.234 24.6799 145.974 23.6999 145.454 23.0199C144.934 22.3399 144.124 21.9999 143.024 21.9999C141.944 21.9999 141.054 22.3799 140.354 23.1399C139.674 23.8999 139.334 24.9599 139.334 26.3199V33.9999H135.494ZM160.886 34.3599C159.446 34.3599 158.146 34.0299 156.986 33.3699C155.846 32.7099 154.936 31.7999 154.256 30.6399C153.596 29.4599 153.266 28.0999 153.266 26.5599C153.266 25.0199 153.606 23.6699 154.286 22.5099C154.966 21.3299 155.876 20.4099 157.016 19.7499C158.176 19.0899 159.476 18.7599 160.916 18.7599C162.336 18.7599 163.616 19.0899 164.756 19.7499C165.916 20.4099 166.826 21.3299 167.486 22.5099C168.166 23.6699 168.506 25.0199 168.506 26.5599C168.506 28.0999 168.166 29.4599 167.486 30.6399C166.826 31.7999 165.916 32.7099 164.756 33.3699C163.596 34.0299 162.306 34.3599 160.886 34.3599ZM160.886 31.0299C161.886 31.0299 162.756 30.6599 163.496 29.9199C164.236 29.1599 164.606 28.0399 164.606 26.5599C164.606 25.0799 164.236 23.9699 163.496 23.2299C162.756 22.4699 161.896 22.0899 160.916 22.0899C159.896 22.0899 159.016 22.4699 158.276 23.2299C157.556 23.9699 157.196 25.0799 157.196 26.5599C157.196 28.0399 157.556 29.1599 158.276 29.9199C159.016 30.6599 159.886 31.0299 160.886 31.0299Z" fill="#B3B3B3"/>
<path id="Vector_2" d="M14.173 3.91989C13.3122 4.48558 12.5954 5.2467 12.0802 6.14179C11.5651 7.03687 11.266 8.04109 11.207 9.07368V14.9429C11.266 15.9755 11.5651 16.9797 12.0802 17.8748C12.5954 18.77 13.3122 19.531 14.173 20.0967L20.31 23.7346C21.9377 24.6805 23.276 23.9045 23.276 22.0126V2.12515C23.276 0.233423 21.9377 -0.54261 20.31 0.403252L14.173 3.91989Z" fill="#B3B3B3"/>
<path id="Vector_3" d="M13.5336 21.3688C12.6426 20.9225 11.658 20.6899 10.6595 20.6899C9.66095 20.6899 8.67638 20.9225 7.78535 21.3688L2.88 24.152C2.04414 24.6929 1.3481 25.4207 0.847846 26.2766C0.347674 27.1327 0.0572414 28.0929 0 29.0803V35.8989C0 37.708 1.29957 38.4502 2.88 37.5457L19.5043 28.0367C21.0848 27.1322 21.0848 25.6595 19.5043 24.7549L13.5336 21.3688Z" fill="#B3B3B3"/>
<path id="Vector_4" d="M35.8257 3.91989C36.6866 4.48558 37.4034 5.2467 37.9185 6.14179C38.4337 7.03687 38.7328 8.04109 38.7917 9.07368V14.9429C38.7328 15.9755 38.4337 16.9797 37.9185 17.8748C37.4034 18.77 36.6866 19.531 35.8257 20.0967L29.6767 23.7346C28.049 24.6805 26.7227 23.9045 26.7227 22.0126V2.12515C26.7227 0.233423 28.049 -0.54261 29.6767 0.403252L35.8257 3.91989Z" fill="#B3B3B3"/>
<path id="Vector_5" d="M35.9058 21.3688C36.8345 20.9225 37.8606 20.6899 38.9013 20.6899C39.942 20.6899 40.9682 20.9225 41.8969 21.3688L47.0095 24.152C47.8791 24.6935 48.6027 25.4217 49.122 26.2777C49.6412 27.1338 49.9416 28.0938 49.9989 29.0803V35.8989C49.9989 37.708 48.6567 38.4502 47.0095 37.5457L29.6827 28.0367C28.0354 27.1322 28.0354 25.6595 29.6827 24.7549L35.9058 21.3688Z" fill="#B3B3B3"/>
<path id="Vector_6" d="M10.6094 46.7357C11.5009 47.1815 12.486 47.4138 13.485 47.4138C14.4842 47.4138 15.4693 47.1815 16.3608 46.7357L21.269 43.9448C22.1041 43.4014 22.7987 42.6721 23.2971 41.8154C23.7955 40.9586 24.0838 39.9983 24.1388 39.0114V32.202C24.1388 30.3953 22.8504 29.6542 21.269 30.5575L4.63525 40.0537C3.05387 40.957 3.05387 42.4277 4.63525 43.331L10.6094 46.7357Z" fill="#B3B3B3"/>
<path id="Vector_7" d="M25 39.017C25.0584 40.0014 25.3591 40.9592 25.8783 41.8133C26.3975 42.6676 27.1205 43.3944 27.9895 43.9356L33.1022 46.7362C34.0309 47.1817 35.057 47.4138 36.0978 47.4138C37.1384 47.4138 38.1646 47.1817 39.0933 46.7362L45.3163 43.3222C46.9635 42.4195 46.9635 40.9497 45.3163 40.047L27.9895 30.5572C26.3422 29.6545 25 30.3952 25 32.2006V39.017Z" fill="#B3B3B3"/>
</g>
<defs>
<clipPath id="clip0_18428_370">
<rect width="170" height="48" fill="white"/>
</clipPath>
</defs>
</svg>
