<svg width="168" height="52" viewBox="0 0 168 52" fill="none" xmlns="http://www.w3.org/2000/svg">
<g id="65a56db057ed98b09fe9bf89_SoftAI - logo ipsum V3 2" clip-path="url(#clip0_18428_332)">
<path id="Vector" d="M72.0391 36V15H75.8791V33H85.1791V36H72.0391ZM93.6025 36.36C92.3225 36.36 91.2725 36.16 90.4525 35.76C89.6325 35.34 89.0225 34.79 88.6225 34.11C88.2225 33.43 88.0225 32.68 88.0225 31.86C88.0225 30.48 88.5625 29.36 89.6425 28.5C90.7225 27.64 92.3425 27.21 94.5025 27.21H98.2825V26.85C98.2825 25.83 97.9925 25.08 97.4125 24.6C96.8325 24.12 96.1125 23.88 95.2525 23.88C94.4725 23.88 93.7925 24.07 93.2125 24.45C92.6325 24.81 92.2725 25.35 92.1325 26.07H88.3825C88.4825 24.99 88.8425 24.05 89.4625 23.25C90.1025 22.45 90.9225 21.84 91.9225 21.42C92.9225 20.98 94.0425 20.76 95.2825 20.76C97.4025 20.76 99.0725 21.29 100.292 22.35C101.512 23.41 102.122 24.91 102.122 26.85V36H98.8525L98.4925 33.6C98.0525 34.4 97.4325 35.06 96.6325 35.58C95.8525 36.1 94.8425 36.36 93.6025 36.36ZM94.4725 33.36C95.5725 33.36 96.4225 33 97.0225 32.28C97.6425 31.56 98.0325 30.67 98.1925 29.61H94.9225C93.9025 29.61 93.1725 29.8 92.7325 30.18C92.2925 30.54 92.0725 30.99 92.0725 31.53C92.0725 32.11 92.2925 32.56 92.7325 32.88C93.1725 33.2 93.7525 33.36 94.4725 33.36ZM111.937 36.36C110.617 36.36 109.457 36.15 108.457 35.73C107.457 35.29 106.657 34.69 106.057 33.93C105.457 33.17 105.097 32.29 104.977 31.29H108.847C108.967 31.87 109.287 32.37 109.807 32.79C110.347 33.19 111.037 33.39 111.877 33.39C112.717 33.39 113.327 33.22 113.707 32.88C114.107 32.54 114.307 32.15 114.307 31.71C114.307 31.07 114.027 30.64 113.467 30.42C112.907 30.18 112.127 29.95 111.127 29.73C110.487 29.59 109.837 29.42 109.177 29.22C108.517 29.02 107.907 28.77 107.347 28.47C106.807 28.15 106.367 27.75 106.027 27.27C105.687 26.77 105.517 26.16 105.517 25.44C105.517 24.12 106.037 23.01 107.077 22.11C108.137 21.21 109.617 20.76 111.517 20.76C113.277 20.76 114.677 21.17 115.717 21.99C116.777 22.81 117.407 23.94 117.607 25.38H113.977C113.757 24.28 112.927 23.73 111.487 23.73C110.767 23.73 110.207 23.87 109.807 24.15C109.427 24.43 109.237 24.78 109.237 25.2C109.237 25.64 109.527 25.99 110.107 26.25C110.687 26.51 111.457 26.75 112.417 26.97C113.457 27.21 114.407 27.48 115.267 27.78C116.147 28.06 116.847 28.49 117.367 29.07C117.887 29.63 118.147 30.44 118.147 31.5C118.167 32.42 117.927 33.25 117.427 33.99C116.927 34.73 116.207 35.31 115.267 35.73C114.327 36.15 113.217 36.36 111.937 36.36ZM127.129 36.36C125.269 36.36 123.829 35.78 122.809 34.62C121.809 33.46 121.309 31.76 121.309 29.52V21.12H125.119V29.16C125.119 30.44 125.379 31.42 125.899 32.1C126.419 32.78 127.239 33.12 128.359 33.12C129.419 33.12 130.289 32.74 130.969 31.98C131.669 31.22 132.019 30.16 132.019 28.8V21.12H135.859V36H132.469L132.169 33.48C131.709 34.36 131.039 35.06 130.159 35.58C129.299 36.1 128.289 36.36 127.129 36.36ZM139.801 36V21.12H143.221L143.581 23.91C144.121 22.95 144.851 22.19 145.771 21.63C146.711 21.05 147.811 20.76 149.071 20.76V24.81H147.991C147.151 24.81 146.401 24.94 145.741 25.2C145.081 25.46 144.561 25.91 144.181 26.55C143.821 27.19 143.641 28.08 143.641 29.22V36H139.801ZM153.555 42.6L157.005 35.01H156.105L150.315 21.12H154.485L158.655 31.59L163.005 21.12H167.085L157.635 42.6H153.555Z" fill="#B3B3B3"/>
<path id="Vector_2" d="M45.4798 1.02051H39.215C37.2819 1.02051 35.7148 2.58755 35.7148 4.52071V10.7855C35.7148 12.7186 37.2819 14.2858 39.215 14.2858H45.4798C47.4129 14.2858 48.9801 12.7186 48.9801 10.7855V4.52071C48.9801 2.58755 47.4129 1.02051 45.4798 1.02051Z" fill="#B3B3B3"/>
<path id="Vector_3" d="M20.9465 14.6592H26.4478C28.7243 14.7885 30.8898 15.6854 32.591 17.2036L32.7973 17.4328C34.3233 19.1291 35.2214 21.2974 35.3416 23.576V29.0544C35.3416 30.0088 35.7208 30.9242 36.3957 31.5991C37.0706 32.274 37.986 32.6531 38.9405 32.6531H45.3816C46.336 32.6531 47.2514 32.274 47.9263 31.5991C48.6012 30.9242 48.9804 30.0088 48.9804 29.0544V22.6132C48.9804 21.6588 48.6012 20.7434 47.9263 20.0685C47.2514 19.3936 46.336 19.0145 45.3816 19.0145H39.9031C37.6247 18.8942 35.4563 17.9961 33.76 16.4701L33.5308 16.2638C32.0096 14.5645 31.1122 12.3979 30.9864 10.1206V4.61928C30.9864 3.66489 30.6073 2.74949 29.9324 2.07459C29.2574 1.39969 28.3421 1.02051 27.3876 1.02051H20.9465C19.992 1.02051 19.0767 1.39969 18.4018 2.07459C17.7269 2.74949 17.3477 3.66489 17.3477 4.61928V11.0605C17.3477 12.0149 17.7269 12.9302 18.4018 13.6051C19.0767 14.28 19.992 14.6592 20.9465 14.6592Z" fill="#B3B3B3"/>
<path id="Vector_4" d="M46.4123 37.2111H40.9628C38.6943 37.0639 36.5449 36.1228 34.8773 34.5465L34.2643 33.921C32.7527 32.2063 31.863 30.0145 31.7439 27.7113V22.1505C31.7379 21.1877 31.3604 20.2659 30.6932 19.585C30.0258 18.9041 29.1226 18.5189 28.1789 18.5129H22.7293C20.4795 18.4162 18.3308 17.5327 16.644 16.0105L16.0309 15.3849C14.5192 13.6703 13.6296 11.4785 13.5104 9.17531V3.63775C13.5104 2.67296 13.1348 1.74766 12.4663 1.06541C11.7978 0.383267 10.891 0 9.94551 0H3.5649C2.61949 0 1.71265 0.383267 1.04418 1.06541C0.375612 1.74766 0 2.67296 0 3.63775V10.1485C0 11.1133 0.375612 12.0386 1.04418 12.7207C1.71265 13.403 2.61949 13.7862 3.5649 13.7862H8.99183C11.2834 13.8932 13.467 14.8106 15.1681 16.3812L15.7811 17.0068C17.2881 18.7245 18.1769 20.9145 18.3015 23.2163V28.7772C18.3074 29.7401 18.685 30.6618 19.3522 31.3427C20.0195 32.0236 20.9229 32.4088 21.8664 32.4149H27.316C29.5482 32.5575 31.668 33.4635 33.3334 34.9867L33.9464 35.6124C35.4534 37.33 36.3422 39.5201 36.4668 41.8219V47.3828C36.4728 48.3457 36.8503 49.2674 37.5176 49.9483C38.1848 50.6292 39.0882 51.0143 40.0317 51.0204H46.435C47.3787 51.0143 48.282 50.6292 48.9493 49.9483C49.6165 49.2674 49.9941 48.3457 50 47.3828V40.8488C49.994 39.8819 49.6134 38.9566 48.9412 38.2751C48.2691 37.5936 47.3599 37.211 46.4123 37.2111Z" fill="#B3B3B3"/>
<path id="Vector_5" d="M10.5162 36.7349H3.76949C1.68765 36.7349 0 38.3021 0 40.2352V46.5C0 48.4332 1.68765 50.0002 3.76949 50.0002H10.5162C12.5981 50.0002 14.2857 48.4332 14.2857 46.5V40.2352C14.2857 38.3021 12.5981 36.7349 10.5162 36.7349Z" fill="#B3B3B3"/>
<path id="Vector_6" d="M28.0339 36.3611H22.5554C20.2769 36.2408 18.1086 35.3428 16.4122 33.8168L16.1831 33.6105C14.6521 31.8992 13.7542 29.7148 13.6387 27.4215V21.9202C13.6273 20.9932 13.2588 20.1064 12.6097 19.4445C11.9606 18.7826 11.0811 18.3967 10.1545 18.3672H3.59877C2.64428 18.3672 1.72898 18.7464 1.05408 19.4213C0.379181 20.0962 0 21.0115 0 21.966V28.4071C0 29.3616 0.379181 30.2769 1.05408 30.9519C1.72898 31.6268 2.64428 32.0059 3.59877 32.0059H9.1001C11.3765 32.1353 13.542 33.0321 15.2433 34.5503L15.4496 34.7795C16.9756 36.4758 17.8737 38.6442 17.9939 40.9226V46.401C17.9939 46.8756 18.0878 47.3454 18.27 47.7834C18.4523 48.2216 18.7195 48.6194 19.0561 48.9538C19.3927 49.2883 19.7921 49.5529 20.2314 49.7324C20.6707 49.9119 21.1411 50.0028 21.6156 49.9998H28.0339C28.9883 49.9998 29.9037 49.6207 30.5786 48.9458C31.2535 48.2709 31.6327 47.3555 31.6327 46.401V39.9599C31.6327 39.0055 31.2535 38.0901 30.5786 37.4152C29.9037 36.7403 28.9883 36.3611 28.0339 36.3611Z" fill="#B3B3B3"/>
</g>
<defs>
<clipPath id="clip0_18428_332">
<rect width="168" height="52" fill="white"/>
</clipPath>
</defs>
</svg>
