<svg width="170" height="50" viewBox="0 0 170 50" fill="none" xmlns="http://www.w3.org/2000/svg">
<g id="65a56db002e35cce2c147ae5_SoftAI - logo ipsum V4 1">
<path id="Vector" d="M70.6914 34.9999L78.3714 13.9999H82.6914L90.3714 34.9999H86.2914L84.6114 30.1399H76.4214L74.7114 34.9999H70.6914ZM77.4714 27.1399H83.5614L80.5014 18.4099L77.4714 27.1399ZM92.9866 34.9999V20.1199H96.4066L96.7666 22.9099C97.3066 21.9499 98.0366 21.1899 98.9566 20.6299C99.8966 20.0499 100.996 19.7599 102.256 19.7599V23.8099H101.176C100.336 23.8099 99.5866 23.9399 98.9266 24.1999C98.2666 24.4599 97.7466 24.9099 97.3666 25.5499C97.0066 26.1899 96.8266 27.0799 96.8266 28.2199V34.9999H92.9866ZM111.511 34.9999C109.951 34.9999 108.701 34.6199 107.761 33.8599C106.821 33.0999 106.351 31.7499 106.351 29.8099V23.3299H103.801V20.1199H106.351L106.801 16.1299H110.191V20.1199H114.211V23.3299H110.191V29.8399C110.191 30.5599 110.341 31.0599 110.641 31.3399C110.961 31.5999 111.501 31.7299 112.261 31.7299H114.121V34.9999H111.511ZM124.357 35.3599C122.857 35.3599 121.527 35.0399 120.367 34.3999C119.207 33.7599 118.297 32.8599 117.637 31.6999C116.977 30.5399 116.647 29.1999 116.647 27.6799C116.647 26.1399 116.967 24.7699 117.607 23.5699C118.267 22.3699 119.167 21.4399 120.307 20.7799C121.467 20.0999 122.827 19.7599 124.387 19.7599C125.847 19.7599 127.137 20.0799 128.257 20.7199C129.377 21.3599 130.247 22.2399 130.867 23.3599C131.507 24.4599 131.827 25.6899 131.827 27.0499C131.827 27.2699 131.817 27.4999 131.797 27.7399C131.797 27.9799 131.787 28.2299 131.767 28.4899H120.457C120.537 29.6499 120.937 30.5599 121.657 31.2199C122.397 31.8799 123.287 32.2099 124.327 32.2099C125.107 32.2099 125.757 32.0399 126.277 31.6999C126.817 31.3399 127.217 30.8799 127.477 30.3199H131.377C131.097 31.2599 130.627 32.1199 129.967 32.8999C129.327 33.6599 128.527 34.2599 127.567 34.6999C126.627 35.1399 125.557 35.3599 124.357 35.3599ZM124.387 22.8799C123.447 22.8799 122.617 23.1499 121.897 23.6899C121.177 24.2099 120.717 25.0099 120.517 26.0899H127.927C127.867 25.1099 127.507 24.3299 126.847 23.7499C126.187 23.1699 125.367 22.8799 124.387 22.8799ZM142.346 35.3599C140.826 35.3599 139.486 35.0299 138.326 34.3699C137.166 33.7099 136.246 32.7899 135.566 31.6099C134.906 30.4299 134.576 29.0799 134.576 27.5599C134.576 26.0399 134.906 24.6899 135.566 23.5099C136.246 22.3299 137.166 21.4099 138.326 20.7499C139.486 20.0899 140.826 19.7599 142.346 19.7599C144.246 19.7599 145.846 20.2599 147.146 21.2599C148.446 22.2399 149.276 23.5999 149.636 25.3399H145.586C145.386 24.6199 144.986 24.0599 144.386 23.6599C143.806 23.2399 143.116 23.0299 142.316 23.0299C141.256 23.0299 140.356 23.4299 139.616 24.2299C138.876 25.0299 138.506 26.1399 138.506 27.5599C138.506 28.9799 138.876 30.0899 139.616 30.8899C140.356 31.6899 141.256 32.0899 142.316 32.0899C143.116 32.0899 143.806 31.8899 144.386 31.4899C144.986 31.0899 145.386 30.5199 145.586 29.7799H149.636C149.276 31.4599 148.446 32.8099 147.146 33.8299C145.846 34.8499 144.246 35.3599 142.346 35.3599ZM153.045 34.9999V13.3999H156.885V22.3999C157.385 21.5799 158.055 20.9399 158.895 20.4799C159.755 19.9999 160.735 19.7599 161.835 19.7599C163.675 19.7599 165.095 20.3399 166.095 21.4999C167.115 22.6599 167.625 24.3599 167.625 26.5999V34.9999H163.815V26.9599C163.815 25.6799 163.555 24.6999 163.035 24.0199C162.535 23.3399 161.735 22.9999 160.635 22.9999C159.555 22.9999 158.655 23.3799 157.935 24.1399C157.235 24.8999 156.885 25.9599 156.885 27.3199V34.9999H153.045Z" fill="#B3B3B3"/>
<path id="Vector_2" d="M9.04097 13.7416L12.5423 15.4923C13.1869 15.7738 13.8882 15.9006 14.5904 15.8627C15.2926 15.8247 15.9762 15.6229 16.5864 15.2735L19.8954 13.1201C20.4647 12.7068 20.9281 12.1646 21.2476 11.5377C21.5671 10.9109 21.7337 10.2173 21.7335 9.51365L21.5235 5.56583C21.4468 4.86791 21.2073 4.19765 20.8242 3.60924C20.441 3.02083 19.9249 2.53063 19.3175 2.17822L15.8161 0.383751C15.1729 0.0989125 14.4716 -0.0304639 13.769 0.00603826C13.0665 0.0425404 12.3823 0.24387 11.772 0.593835L8.46333 2.7472C7.89496 3.1615 7.43225 3.70395 7.11292 4.33062C6.79351 4.95719 6.62632 5.65038 6.625 6.35364L6.83509 10.3015C6.9031 11.0089 7.13866 11.69 7.52224 12.2882C7.90582 12.8865 8.42647 13.3847 9.04097 13.7416Z" fill="#B3B3B3"/>
<path id="Vector_3" d="M30.1641 18.8539L26.6627 17.0594C26.0198 16.778 25.3199 16.6513 24.6191 16.6892C23.9183 16.7272 23.2362 16.929 22.6274 17.2783L19.2835 19.4316C18.7173 19.8479 18.256 20.3907 17.9369 21.017C17.6177 21.6431 17.4493 22.3353 17.4453 23.0381L17.6555 26.9859C17.7321 27.6839 17.9716 28.3542 18.3547 28.9426C18.7379 29.531 19.254 30.0212 19.8613 30.3735L23.3627 32.1242C24.0045 32.409 24.7043 32.5384 25.4056 32.5019C26.1067 32.4654 26.7893 32.264 27.398 31.9141L30.7156 29.7608C31.2821 29.3427 31.7433 28.7982 32.0623 28.1706C32.3815 27.5431 32.5498 26.8496 32.5538 26.1456L32.3438 22.2065C32.2635 21.5175 32.025 20.8563 31.6469 20.2748C31.2687 19.6932 30.7613 19.2069 30.1641 18.8539Z" fill="#B3B3B3"/>
<path id="Vector_4" d="M40.966 35.5032L37.4646 33.7525C36.8213 33.4676 36.1201 33.3382 35.4175 33.3747C34.715 33.4112 34.0308 33.6125 33.4205 33.9626L30.1118 36.116C29.5444 36.5311 29.0824 37.0738 28.7632 37.7002C28.4439 38.3266 28.2761 39.0193 28.2734 39.7224L28.4836 43.6702C28.5674 44.3569 28.8084 45.0151 29.188 45.5935C29.5675 46.1719 30.0753 46.655 30.672 47.0053L34.1734 48.756C34.8178 49.0374 35.5191 49.1643 36.2213 49.1263C36.9236 49.0883 37.6071 48.8865 38.2175 48.5372L41.535 46.3838C42.1018 45.9685 42.5627 45.4257 42.8806 44.7991C43.1984 44.1725 43.3642 43.4799 43.3646 42.7774L43.1806 38.8996C43.1051 38.199 42.8652 37.5262 42.4803 36.936C42.0955 36.3458 41.5766 35.8548 40.966 35.5032Z" fill="#B3B3B3"/>
<path id="Vector_5" d="M15.1698 25.699L15.0035 22.6265C15.0075 21.9237 15.1759 21.2316 15.4951 20.6054C15.8143 19.9792 16.2754 19.4363 16.8417 19.0201L23.2931 14.8272C23.9018 14.4779 24.5839 14.2761 25.2848 14.2381C25.9856 14.2001 26.6855 14.327 27.3284 14.6083L30.077 16.0089C30.7203 16.2937 31.4216 16.4232 32.1241 16.3867C32.8268 16.3502 33.5109 16.1488 34.1211 15.7988L37.43 13.6367C37.9978 13.2219 38.4601 12.6794 38.7794 12.0528C39.0987 11.4263 39.2662 10.7335 39.2682 10.0302L39.0581 6.09112C38.9828 5.39163 38.7439 4.71962 38.3606 4.12964C37.9774 3.53956 37.4607 3.04805 36.8522 2.69476L33.3508 0.900294C32.7064 0.618869 32.0051 0.49203 31.3028 0.53002C30.6006 0.56801 29.917 0.769779 29.3067 1.11913L25.9279 3.23748C25.3611 3.65274 24.9001 4.19564 24.5823 4.82221C24.2644 5.44879 24.0987 6.14137 24.0984 6.84392L24.256 9.9164C24.2557 10.6191 24.0898 11.3117 23.772 11.9382C23.4541 12.5648 22.9932 13.1077 22.4265 13.5229L15.9751 17.7158C15.3648 18.0658 14.6808 18.2672 13.9782 18.3037C13.2756 18.3402 12.5743 18.2107 11.931 17.9259L9.19118 16.5341C8.54788 16.2492 7.84664 16.1199 7.144 16.1564C6.44144 16.1929 5.75735 16.3942 5.14706 16.7442L1.83823 18.8975C1.26987 19.3118 0.807248 19.8543 0.487833 20.481C0.168418 21.1076 0.00131303 21.8007 0 22.504L0.210082 26.4518C0.284662 27.1516 0.52337 27.8238 0.906598 28.414C1.28991 29.0041 1.80698 29.4955 2.41597 29.8482L5.91737 31.5989C6.5618 31.8804 7.26313 32.0072 7.96534 31.9692C8.66754 31.9312 9.35119 31.7295 9.96148 31.38L13.2703 29.2267C13.8389 28.8264 14.3065 28.2992 14.6362 27.6869C14.9659 27.0747 15.1485 26.3941 15.1698 25.699Z" fill="#B3B3B3"/>
<path id="Vector_6" d="M49.8258 22.7403C49.7478 22.0415 49.5078 21.3706 49.1248 20.781C48.7419 20.1913 48.2266 19.6992 47.6199 19.3439L44.1185 17.5932C43.4739 17.3124 42.7726 17.1859 42.0706 17.2239C41.3684 17.2619 40.6849 17.4633 40.0744 17.8121L36.7655 19.9654C36.1982 20.3807 35.7363 20.9233 35.417 21.5497C35.0978 22.1761 34.93 22.8688 34.9274 23.5719L35.0937 26.6531C35.091 27.3561 34.9232 28.0487 34.6039 28.6751C34.2847 29.3016 33.8227 29.8443 33.2553 30.2595L26.8128 34.4437C26.2025 34.7931 25.5189 34.9948 24.8167 35.0328C24.1145 35.0708 23.4132 34.944 22.7687 34.6625L20.0201 33.262C19.3771 32.9806 18.6772 32.8537 17.9764 32.8917C17.2756 32.9298 16.5935 33.1315 15.9847 33.4808L12.6408 35.6254C12.0746 36.0417 11.6135 36.5845 11.2942 37.2107C10.9751 37.8368 10.8067 38.529 10.8027 39.2319L11.0127 43.1796C11.0894 43.8776 11.3289 44.5479 11.712 45.1363C12.0952 45.7247 12.6113 46.2149 13.2187 46.5673L16.7201 48.3618C17.3618 48.6465 18.0616 48.7759 18.7628 48.7394C19.464 48.7029 20.1466 48.5015 20.7554 48.1516L24.0729 45.9982C24.6388 45.5816 25.0996 45.0386 25.4187 44.4125C25.7378 43.7864 25.9064 43.0945 25.9112 42.3919L25.7449 39.3106C25.7469 38.6074 25.9143 37.9146 26.2336 37.2881C26.553 36.6615 27.0152 36.1189 27.5831 35.7041L34.0257 31.5113C34.6359 31.1613 35.3201 30.9599 36.0227 30.9234C36.7252 30.8869 37.4265 31.0163 38.0698 31.3011L40.8096 32.693C41.4529 32.9778 42.1542 33.1072 42.8568 33.0707C43.5594 33.0342 44.2434 32.8329 44.8537 32.4829L48.1714 30.3296C48.7376 29.9138 49.1982 29.3708 49.5159 28.7444C49.8338 28.1179 49.9998 27.4255 50.0008 26.7231L49.8258 22.7403Z" fill="#B3B3B3"/>
</g>
</svg>
