<svg width="201" height="50" viewBox="0 0 201 50" fill="none" xmlns="http://www.w3.org/2000/svg">
<g id="65a56db074af6fddd9888f55_SoftAI - logo ipsum V6 1" clip-path="url(#clip0_18428_361)">
<path id="Vector" d="M79.2091 34.8599C77.6691 34.8599 76.3091 34.5999 75.1291 34.0799C73.9491 33.5399 73.0191 32.7799 72.3391 31.7999C71.6591 30.7999 71.3091 29.5899 71.2891 28.1699H75.3391C75.3791 29.1499 75.7291 29.9799 76.3891 30.6599C77.0691 31.3199 77.9991 31.6499 79.1791 31.6499C80.1991 31.6499 81.0091 31.4099 81.6091 30.9299C82.2091 30.4299 82.5091 29.7699 82.5091 28.9499C82.5091 28.0899 82.2391 27.4199 81.6991 26.9399C81.1791 26.4599 80.4791 26.0699 79.5991 25.7699C78.7191 25.4699 77.7791 25.1499 76.7791 24.8099C75.1591 24.2499 73.9191 23.5299 73.0591 22.6499C72.2191 21.7699 71.7991 20.5999 71.7991 19.1399C71.7791 17.8999 72.0691 16.8399 72.6691 15.9599C73.2891 15.0599 74.1291 14.3699 75.1891 13.8899C76.2491 13.3899 77.4691 13.1399 78.8491 13.1399C80.2491 13.1399 81.4791 13.3899 82.5391 13.8899C83.6191 14.3899 84.4591 15.0899 85.0591 15.9899C85.6791 16.8899 86.0091 17.9599 86.0491 19.1999H81.9391C81.9191 18.4599 81.6291 17.8099 81.0691 17.2499C80.5291 16.6699 79.7691 16.3799 78.7891 16.3799C77.9491 16.3599 77.2391 16.5699 76.6591 17.0099C76.0991 17.4299 75.8191 18.0499 75.8191 18.8699C75.8191 19.5699 76.0391 20.1299 76.4791 20.5499C76.9191 20.9499 77.5191 21.2899 78.2791 21.5699C79.0391 21.8499 79.9091 22.1499 80.8891 22.4699C81.9291 22.8299 82.8791 23.2499 83.7391 23.7299C84.5991 24.2099 85.2891 24.8499 85.8091 25.6499C86.3291 26.4299 86.5891 27.4399 86.5891 28.6799C86.5891 29.7799 86.3091 30.7999 85.7491 31.7399C85.1891 32.6799 84.3591 33.4399 83.2591 34.0199C82.1591 34.5799 80.8091 34.8599 79.2091 34.8599ZM94.9795 34.8599C93.6995 34.8599 92.6495 34.6599 91.8295 34.2599C91.0095 33.8399 90.3995 33.2899 89.9995 32.6099C89.5995 31.9299 89.3995 31.1799 89.3995 30.3599C89.3995 28.9799 89.9395 27.8599 91.0195 26.9999C92.0995 26.1399 93.7195 25.7099 95.8795 25.7099H99.6595V25.3499C99.6595 24.3299 99.3695 23.5799 98.7895 23.0999C98.2095 22.6199 97.4895 22.3799 96.6295 22.3799C95.8495 22.3799 95.1695 22.5699 94.5895 22.9499C94.0095 23.3099 93.6495 23.8499 93.5095 24.5699H89.7595C89.8595 23.4899 90.2195 22.5499 90.8395 21.7499C91.4795 20.9499 92.2995 20.3399 93.2995 19.9199C94.2995 19.4799 95.4195 19.2599 96.6595 19.2599C98.7795 19.2599 100.449 19.7899 101.669 20.8499C102.889 21.9099 103.499 23.4099 103.499 25.3499V34.4999H100.229L99.8695 32.0999C99.4295 32.8999 98.8095 33.5599 98.0095 34.0799C97.2295 34.5999 96.2195 34.8599 94.9795 34.8599ZM95.8495 31.8599C96.9495 31.8599 97.7995 31.4999 98.3995 30.7799C99.0195 30.0599 99.4095 29.1699 99.5695 28.1099H96.2995C95.2795 28.1099 94.5495 28.2999 94.1095 28.6799C93.6695 29.0399 93.4495 29.4899 93.4495 30.0299C93.4495 30.6099 93.6695 31.0599 94.1095 31.3799C94.5495 31.6999 95.1295 31.8599 95.8495 31.8599ZM107.164 34.4999V12.8999H111.004V34.4999H107.164ZM122.068 34.8599C120.628 34.8599 119.328 34.5299 118.168 33.8699C117.028 33.2099 116.118 32.2999 115.438 31.1399C114.778 29.9599 114.448 28.5999 114.448 27.0599C114.448 25.5199 114.788 24.1699 115.468 23.0099C116.148 21.8299 117.058 20.9099 118.198 20.2499C119.358 19.5899 120.658 19.2599 122.098 19.2599C123.518 19.2599 124.798 19.5899 125.938 20.2499C127.098 20.9099 128.008 21.8299 128.668 23.0099C129.348 24.1699 129.688 25.5199 129.688 27.0599C129.688 28.5999 129.348 29.9599 128.668 31.1399C128.008 32.2999 127.098 33.2099 125.938 33.8699C124.778 34.5299 123.488 34.8599 122.068 34.8599ZM122.068 31.5299C123.068 31.5299 123.938 31.1599 124.678 30.4199C125.418 29.6599 125.788 28.5399 125.788 27.0599C125.788 25.5799 125.418 24.4699 124.678 23.7299C123.938 22.9699 123.078 22.5899 122.098 22.5899C121.078 22.5899 120.198 22.9699 119.458 23.7299C118.738 24.4699 118.378 25.5799 118.378 27.0599C118.378 28.5399 118.738 29.6599 119.458 30.4199C120.198 31.1599 121.068 31.5299 122.068 31.5299ZM133.121 34.4999V19.6199H136.511L136.811 22.1399C137.271 21.2599 137.931 20.5599 138.791 20.0399C139.671 19.5199 140.701 19.2599 141.881 19.2599C143.721 19.2599 145.151 19.8399 146.171 20.9999C147.191 22.1599 147.701 23.8599 147.701 26.0999V34.4999H143.861V26.4599C143.861 25.1799 143.601 24.1999 143.081 23.5199C142.561 22.8399 141.751 22.4999 140.651 22.4999C139.571 22.4999 138.681 22.8799 137.981 23.6399C137.301 24.3999 136.961 25.4599 136.961 26.8199V34.4999H133.121ZM158.603 34.8599C157.103 34.8599 155.773 34.5399 154.613 33.8999C153.453 33.2599 152.543 32.3599 151.883 31.1999C151.223 30.0399 150.893 28.6999 150.893 27.1799C150.893 25.6399 151.213 24.2699 151.853 23.0699C152.513 21.8699 153.413 20.9399 154.553 20.2799C155.713 19.5999 157.073 19.2599 158.633 19.2599C160.093 19.2599 161.383 19.5799 162.503 20.2199C163.623 20.8599 164.493 21.7399 165.113 22.8599C165.753 23.9599 166.073 25.1899 166.073 26.5499C166.073 26.7699 166.063 26.9999 166.043 27.2399C166.043 27.4799 166.033 27.7299 166.013 27.9899H154.703C154.783 29.1499 155.183 30.0599 155.903 30.7199C156.643 31.3799 157.533 31.7099 158.573 31.7099C159.353 31.7099 160.003 31.5399 160.523 31.1999C161.063 30.8399 161.463 30.3799 161.723 29.8199H165.623C165.343 30.7599 164.873 31.6199 164.213 32.3999C163.573 33.1599 162.773 33.7599 161.813 34.1999C160.873 34.6399 159.803 34.8599 158.603 34.8599ZM158.633 22.3799C157.693 22.3799 156.863 22.6499 156.143 23.1899C155.423 23.7099 154.963 24.5099 154.763 25.5899H162.173C162.113 24.6099 161.753 23.8299 161.093 23.2499C160.433 22.6699 159.613 22.3799 158.633 22.3799ZM169.303 34.4999V12.8999H173.143V34.4999H169.303ZM177.066 34.4999V12.8999H180.906V34.4999H177.066ZM192.06 34.8599C190.56 34.8599 189.23 34.5399 188.07 33.8999C186.91 33.2599 186 32.3599 185.34 31.1999C184.68 30.0399 184.35 28.6999 184.35 27.1799C184.35 25.6399 184.67 24.2699 185.31 23.0699C185.97 21.8699 186.87 20.9399 188.01 20.2799C189.17 19.5999 190.53 19.2599 192.09 19.2599C193.55 19.2599 194.84 19.5799 195.96 20.2199C197.08 20.8599 197.95 21.7399 198.57 22.8599C199.21 23.9599 199.53 25.1899 199.53 26.5499C199.53 26.7699 199.52 26.9999 199.5 27.2399C199.5 27.4799 199.49 27.7299 199.47 27.9899H188.16C188.24 29.1499 188.64 30.0599 189.36 30.7199C190.1 31.3799 190.99 31.7099 192.03 31.7099C192.81 31.7099 193.46 31.5399 193.98 31.1999C194.52 30.8399 194.92 30.3799 195.18 29.8199H199.08C198.8 30.7599 198.33 31.6199 197.67 32.3999C197.03 33.1599 196.23 33.7599 195.27 34.1999C194.33 34.6399 193.26 34.8599 192.06 34.8599ZM192.09 22.3799C191.15 22.3799 190.32 22.6499 189.6 23.1899C188.88 23.7099 188.42 24.5099 188.22 25.5899H195.63C195.57 24.6099 195.21 23.8299 194.55 23.2499C193.89 22.6699 193.07 22.3799 192.09 22.3799Z" fill="#B3B3B3"/>
<path id="Vector_2" d="M15.625 20.039L7.81769 15.5L0 20.039V29.0963L7.81769 33.625L15.625 29.0963V20.039ZM13.9439 28.1222L7.81769 31.6664L1.69144 28.1222V21.0131L7.81769 17.4586L13.9439 21.0131V28.1222Z" fill="#B3B3B3"/>
<path id="Vector_3" d="M32.5 20.0287L24.9951 15.5L17.5 20.0287V29.086L24.9951 33.625L32.5 29.086V20.0287Z" fill="#B3B3B3"/>
<path id="Vector_4" d="M42.1824 15.5L34.375 20.039V29.0963L42.1824 33.625L50 29.0963V20.039L42.1824 15.5ZM48.3087 28.1222L42.1824 31.6664L36.0561 28.1222V21.0131L42.1824 17.4586L48.3087 21.0131V28.1222Z" fill="#B3B3B3"/>
<path id="Vector_5" d="M8.75 35.039V44.0964L16.5779 48.625L24.375 44.0964V35.039L16.5779 30.5L8.75 35.039ZM22.6652 43.1533L16.5779 46.6664L10.398 43.1533V36.0131L16.5779 32.4586L22.6858 36.0131L22.6652 43.1533Z" fill="#B3B3B3"/>
<path id="Vector_6" d="M25.625 35.039V44.0964L33.4323 48.625L41.25 44.0964V35.039L33.4323 30.5L25.625 35.039ZM39.5586 43.1533L33.4323 46.6975L27.3164 43.1533V36.0131L33.4323 32.4586L39.5586 36.0131V43.1533Z" fill="#B3B3B3"/>
<path id="Vector_7" d="M24.375 14.0963V5.00794L16.5883 0.5L8.75 5.00794V14.0652L16.5883 18.625L24.375 14.0963ZM10.4002 6.04425L16.5883 2.45863L22.6836 6.04425V13.1533L16.5883 16.6664L10.4002 13.1222V6.04425Z" fill="#B3B3B3"/>
<path id="Vector_8" d="M41.25 14.1274V5.039L33.4323 0.5L25.625 5.039V14.0963L33.4323 18.625L41.25 14.1274ZM27.3164 6.07531L33.4323 2.52081L39.5586 6.07531V13.1844L33.4323 16.7286L27.3164 13.1844V6.07531Z" fill="#B3B3B3"/>
</g>
<defs>
<clipPath id="clip0_18428_361">
<rect width="201" height="49" fill="white" transform="translate(0 0.5)"/>
</clipPath>
</defs>
</svg>
