<svg width="175" height="50" viewBox="0 0 175 50" fill="none" xmlns="http://www.w3.org/2000/svg">
<g id="65a56daf65477fb70406da81_SoftAI - logo ipsum V1 2" clip-path="url(#clip0_18408_322)">
<path id="Vector" d="M70.6914 34.9999L78.3714 13.9999H82.6914L90.3714 34.9999H86.2914L84.6114 30.1399H76.4214L74.7114 34.9999H70.6914ZM77.4714 27.1399H83.5614L80.5014 18.4099L77.4714 27.1399ZM92.9866 34.9999V20.1199H96.4066L96.7666 22.9099C97.3066 21.9499 98.0366 21.1899 98.9566 20.6299C99.8966 20.0499 100.996 19.7599 102.256 19.7599V23.8099H101.176C100.336 23.8099 99.5866 23.9399 98.9266 24.1999C98.2666 24.4599 97.7466 24.9099 97.3666 25.5499C97.0066 26.1899 96.8266 27.0799 96.8266 28.2199V34.9999H92.9866ZM111.511 34.9999C109.951 34.9999 108.701 34.6199 107.761 33.8599C106.821 33.0999 106.351 31.7499 106.351 29.8099V23.3299H103.801V20.1199H106.351L106.801 16.1299H110.191V20.1199H114.211V23.3299H110.191V29.8399C110.191 30.5599 110.341 31.0599 110.641 31.3399C110.961 31.5999 111.501 31.7299 112.261 31.7299H114.121V34.9999H111.511ZM124.357 35.3599C122.857 35.3599 121.527 35.0399 120.367 34.3999C119.207 33.7599 118.297 32.8599 117.637 31.6999C116.977 30.5399 116.647 29.1999 116.647 27.6799C116.647 26.1399 116.967 24.7699 117.607 23.5699C118.267 22.3699 119.167 21.4399 120.307 20.7799C121.467 20.0999 122.827 19.7599 124.387 19.7599C125.847 19.7599 127.137 20.0799 128.257 20.7199C129.377 21.3599 130.247 22.2399 130.867 23.3599C131.507 24.4599 131.827 25.6899 131.827 27.0499C131.827 27.2699 131.817 27.4999 131.797 27.7399C131.797 27.9799 131.787 28.2299 131.767 28.4899H120.457C120.537 29.6499 120.937 30.5599 121.657 31.2199C122.397 31.8799 123.287 32.2099 124.327 32.2099C125.107 32.2099 125.757 32.0399 126.277 31.6999C126.817 31.3399 127.217 30.8799 127.477 30.3199H131.377C131.097 31.2599 130.627 32.1199 129.967 32.8999C129.327 33.6599 128.527 34.2599 127.567 34.6999C126.627 35.1399 125.557 35.3599 124.357 35.3599ZM124.387 22.8799C123.447 22.8799 122.617 23.1499 121.897 23.6899C121.177 24.2099 120.717 25.0099 120.517 26.0899H127.927C127.867 25.1099 127.507 24.3299 126.847 23.7499C126.187 23.1699 125.367 22.8799 124.387 22.8799ZM141.206 35.3599C139.886 35.3599 138.726 35.1499 137.726 34.7299C136.726 34.2899 135.926 33.6899 135.326 32.9299C134.726 32.1699 134.366 31.2899 134.246 30.2899H138.116C138.236 30.8699 138.556 31.3699 139.076 31.7899C139.616 32.1899 140.306 32.3899 141.146 32.3899C141.986 32.3899 142.596 32.2199 142.976 31.8799C143.376 31.5399 143.576 31.1499 143.576 30.7099C143.576 30.0699 143.296 29.6399 142.736 29.4199C142.176 29.1799 141.396 28.9499 140.396 28.7299C139.756 28.5899 139.106 28.4199 138.446 28.2199C137.786 28.0199 137.176 27.7699 136.616 27.4699C136.076 27.1499 135.636 26.7499 135.296 26.2699C134.956 25.7699 134.786 25.1599 134.786 24.4399C134.786 23.1199 135.306 22.0099 136.346 21.1099C137.406 20.2099 138.886 19.7599 140.786 19.7599C142.546 19.7599 143.946 20.1699 144.986 20.9899C146.046 21.8099 146.676 22.9399 146.876 24.3799H143.246C143.026 23.2799 142.196 22.7299 140.756 22.7299C140.036 22.7299 139.476 22.8699 139.076 23.1499C138.696 23.4299 138.506 23.7799 138.506 24.1999C138.506 24.6399 138.796 24.9899 139.376 25.2499C139.956 25.5099 140.726 25.7499 141.686 25.9699C142.726 26.2099 143.676 26.4799 144.536 26.7799C145.416 27.0599 146.116 27.4899 146.636 28.0699C147.156 28.6299 147.416 29.4399 147.416 30.4999C147.436 31.4199 147.196 32.2499 146.696 32.9899C146.196 33.7299 145.476 34.3099 144.536 34.7299C143.596 35.1499 142.486 35.3599 141.206 35.3599ZM152.888 17.8099C152.188 17.8099 151.608 17.5999 151.148 17.1799C150.708 16.7599 150.488 16.2299 150.488 15.5899C150.488 14.9499 150.708 14.4299 151.148 14.0299C151.608 13.6099 152.188 13.3999 152.888 13.3999C153.588 13.3999 154.158 13.6099 154.598 14.0299C155.058 14.4299 155.288 14.9499 155.288 15.5899C155.288 16.2299 155.058 16.7599 154.598 17.1799C154.158 17.5999 153.588 17.8099 152.888 17.8099ZM150.968 34.9999V20.1199H154.808V34.9999H150.968ZM163.946 35.3599C162.666 35.3599 161.616 35.1599 160.796 34.7599C159.976 34.3399 159.366 33.7899 158.966 33.1099C158.566 32.4299 158.366 31.6799 158.366 30.8599C158.366 29.4799 158.906 28.3599 159.986 27.4999C161.066 26.6399 162.686 26.2099 164.846 26.2099H168.626V25.8499C168.626 24.8299 168.336 24.0799 167.756 23.5999C167.176 23.1199 166.456 22.8799 165.596 22.8799C164.816 22.8799 164.136 23.0699 163.556 23.4499C162.976 23.8099 162.616 24.3499 162.476 25.0699H158.726C158.826 23.9899 159.186 23.0499 159.806 22.2499C160.446 21.4499 161.266 20.8399 162.266 20.4199C163.266 19.9799 164.386 19.7599 165.626 19.7599C167.746 19.7599 169.416 20.2899 170.636 21.3499C171.856 22.4099 172.466 23.9099 172.466 25.8499V34.9999H169.196L168.836 32.5999C168.396 33.3999 167.776 34.0599 166.976 34.5799C166.196 35.0999 165.186 35.3599 163.946 35.3599ZM164.816 32.3599C165.916 32.3599 166.766 31.9999 167.366 31.2799C167.986 30.5599 168.376 29.6699 168.536 28.6099H165.266C164.246 28.6099 163.516 28.7999 163.076 29.1799C162.636 29.5399 162.416 29.9899 162.416 30.5299C162.416 31.1099 162.636 31.5599 163.076 31.8799C163.516 32.1999 164.096 32.3599 164.816 32.3599Z" fill="#B3B3B3"/>
<path id="Vector_2" d="M7.76172 9.47998L0 17.2417L7.76172 25.0034L15.5234 17.2417L7.76172 9.47998Z" fill="#B3B3B3"/>
<path id="Vector_3" d="M15.5371 17.2387L7.77252 9.47412C9.83017 11.5325 10.9861 14.3239 10.9861 17.2344C10.9861 20.1449 9.83017 22.9363 7.77252 24.9947L0.0078125 32.7507L7.77252 40.5153L15.5371 32.7507L23.3018 24.9947L15.5371 17.2387Z" fill="#B3B3B3"/>
<path id="Vector_4" d="M42.2304 40.5322L49.9919 32.7705L42.2304 25.0088L34.4688 32.7705L42.2304 40.5322Z" fill="#B3B3B3"/>
<path id="Vector_5" d="M34.4707 32.7681L42.2354 40.5241C40.1777 38.4657 39.0218 35.6743 39.0218 32.7637C39.0218 29.8532 40.1777 27.0618 42.2354 25.0034L50.0002 17.2387L42.2354 9.47412L34.4707 17.2387L26.7148 25.0034L34.4707 32.7681Z" fill="#B3B3B3"/>
<path id="Vector_6" d="M9.48047 42.2393L17.2422 50.001L25.0039 42.2393L17.2422 34.4775L9.48047 42.2393Z" fill="#B3B3B3"/>
<path id="Vector_7" d="M17.2432 34.4655L9.47852 42.2301C11.5369 40.1725 14.3283 39.0165 17.2388 39.0165C20.1493 39.0165 22.9407 40.1725 24.9991 42.2301L32.7551 49.995L40.5198 42.2301L32.7551 34.4655L24.9991 26.7095L17.2432 34.4655Z" fill="#B3B3B3"/>
<path id="Vector_8" d="M40.5333 7.76178L32.7715 0L25.0098 7.76172L32.7715 15.5235L40.5333 7.76178Z" fill="#B3B3B3"/>
<path id="Vector_9" d="M32.7725 15.5322L40.5285 7.76764C38.47 9.82529 35.6787 10.9812 32.7682 10.9812C29.8576 10.9812 27.0663 9.82529 25.0078 7.76764L17.2432 0.00292969L9.47852 7.76764L17.2432 15.5322L25.0078 23.297L32.7725 15.5322Z" fill="#B3B3B3"/>
</g>
<defs>
<clipPath id="clip0_18408_322">
<rect width="175" height="50" fill="white"/>
</clipPath>
</defs>
</svg>
