<?xml version="1.0" standalone="no"?>
<!DOCTYPE svg PUBLIC "-//W3C//DTD SVG 1.1//EN" "http://www.w3.org/Graphics/SVG/1.1/DTD/svg11.dtd" >
<svg xmlns="http://www.w3.org/2000/svg" xmlns:xlink="http://www.w3.org/1999/xlink" version="1.1">
<metadata>
Created by FontForge 20201107 at Tue Oct  5 19:02:42 2021
 By 
Copyright (c) 2012 by Toni Hurme. All rights reserved.
</metadata>
<defs>
<font id="HurmeGeometricSans3-ThinObl" horiz-adv-x="1341" >
  <font-face 
    font-family="Hurme Geometric Sans 3"
    font-weight="100"
    font-style="italic"
    font-stretch="normal"
    units-per-em="2048"
    panose-1="2 11 3 0 2 0 0 0 0 0"
    ascent="1589"
    descent="-459"
    x-height="1032"
    cap-height="1427"
    bbox="-336 -426 2372 2048"
    underline-thickness="40"
    underline-position="-429"
    slope="-11.5"
    unicode-range="U+000D-FB04"
  />
<missing-glyph horiz-adv-x="1458" 
d="M1313 0h-1458l290 1427h1459zM174 1391l-276 -1354h1386l277 1354h-1387zM723 688l-571 -473l-19 25l572 473l-379 475l28 24l381 -475l568 475l20 -24l-569 -475l376 -473l-30 -25z" />
    <glyph glyph-name="ff" unicode="ff" horiz-adv-x="1079" 
d="M113 0h-41l202 991h-153l10 41h152l24 123q58 291 309 291q63 0 84 -8l-8 -41q-24 8 -80 8q-212 0 -264 -258l-24 -115h438l24 123q58 291 310 291q63 0 84 -8l-9 -41q-24 8 -79 8q-212 0 -265 -258l-24 -115h268l-8 -41h-266l-205 -991h-41l203 991h-437z" />
    <glyph glyph-name="fi" unicode="fi" horiz-adv-x="872" 
d="M113 0h-41l202 991h-153l10 41h152l24 123q25 138 106 214.5t210 76.5q71 0 92 -8l-8 -41q-33 8 -91 8q-215 0 -268 -256l-24 -117h479l-211 -1032h-43l203 991h-435z" />
    <glyph glyph-name="fl" unicode="fl" horiz-adv-x="923" 
d="M113 0h-41l202 991h-153l10 41h152l24 123q55 291 309 291q63 0 84 -8l-8 -41q-24 8 -80 8q-208 0 -264 -258l-24 -115h268l-8 -41h-267zM643 0h-43l291 1427h43z" />
    <glyph glyph-name="ffi" unicode="ffi" horiz-adv-x="1351" 
d="M113 0h-41l202 991h-153l10 41h152l24 123q58 291 309 291q65 0 84 -8l-8 -41q-24 8 -84 8q-207 0 -260 -256l-24 -117h438l24 123q25 138 106 214.5t210 76.5q71 0 92 -8l-8 -41q-33 8 -90 8q-216 0 -269 -256l-24 -117h479l-211 -1032h-43l203 991h-434l-205 -991h-41
l203 991h-437z" />
    <glyph glyph-name="ffl" unicode="ffl" horiz-adv-x="1382" 
d="M113 0h-41l202 991h-153l10 41h152l24 123q58 291 309 291q65 0 84 -8l-8 -41q-24 8 -84 8q-207 0 -260 -256l-24 -117h438l24 123q58 291 310 291q65 0 84 -8l-9 -41q-24 8 -84 8q-207 0 -260 -256l-24 -117h268l-8 -41h-266l-205 -991h-41l203 991h-437zM1102 0h-43
l291 1427h43z" />
    <glyph glyph-name="fj" unicode="fj" horiz-adv-x="872" 
d="M113 0h-41l202 991h-153l10 41h152l24 123q25 138 106 214.5t210 76.5q71 0 92 -8l-8 -41q-33 8 -91 8q-215 0 -268 -256l-24 -117h479l-250 -1227q-23 -118 -78 -169.5t-160 -51.5q-59 0 -86 10l7 39q42 -10 83 -10q88 0 130 43.5t63 145.5l242 1179h-437z" />
    <glyph glyph-name="ffj" unicode="ffj" horiz-adv-x="1351" 
d="M113 0h-41l202 991h-153l10 41h152l24 123q58 291 309 291q65 0 84 -8l-8 -41q-24 8 -84 8q-207 0 -260 -256l-24 -117h438l24 123q25 138 106 214.5t210 76.5q71 0 92 -8l-8 -41q-33 8 -90 8q-216 0 -269 -256l-24 -117h479l-250 -1227q-23 -118 -77.5 -169.5
t-159.5 -51.5q-59 0 -86 10l6 39q42 -10 84 -10q88 0 129.5 43.5t62.5 145.5l242 1179h-436l-205 -991h-41l203 991h-437z" />
    <glyph glyph-name=".notdef" horiz-adv-x="1458" 
d="M1313 0h-1458l290 1427h1459zM174 1391l-276 -1354h1386l277 1354h-1387zM723 688l-571 -473l-19 25l572 473l-379 475l28 24l381 -475l568 475l20 -24l-569 -475l376 -473l-30 -25z" />
    <glyph glyph-name=".null" horiz-adv-x="0" 
 />
    <glyph glyph-name="nonmarkingreturn" horiz-adv-x="682" 
 />
    <glyph glyph-name="NULL" horiz-adv-x="0" 
 />
    <glyph glyph-name="NULL" horiz-adv-x="0" 
 />
    <glyph glyph-name="CR.001" unicode="&#xd;" horiz-adv-x="0" 
 />
    <glyph glyph-name="space" unicode=" " horiz-adv-x="843" 
 />
    <glyph glyph-name="exclam" unicode="!" horiz-adv-x="413" 
d="M147 317h-41l222 1110h51zM29 25q0 17 12 29t29 12q36 0 36 -35q0 -18 -12.5 -30.5t-30.5 -12.5q-34 0 -34 37z" />
    <glyph glyph-name="quotedbl" unicode="&#x22;" horiz-adv-x="417" 
d="M346 911h-35l101 516h45zM193 911h-35l100 516h45z" />
    <glyph glyph-name="numbersign" unicode="#" horiz-adv-x="1052" 
d="M162 289h-43l98 213h-186l8 37h194l156 338h-190l8 36h199l96 209h45l-98 -209h337l97 209h43l-97 -209h193l-8 -36h-203l-154 -338h199l-8 -37h-207l-98 -213h-43l98 213h-338zM430 877l-154 -338h338l156 338h-340z" />
    <glyph glyph-name="dollar" unicode="$" horiz-adv-x="1052" 
d="M-20 297l38 16q35 -129 123.5 -204.5t218.5 -85.5l150 731q-135 69 -196.5 142t-61.5 179q0 158 115 264q112 106 282 109l43 205h39l-43 -209q95 -10 168.5 -59t104.5 -119l-39 -19q-77 142 -242 154l-127 -617q165 -77 241 -163t76 -207q0 -190 -133 -314
q-132 -120 -346 -123l-41 -196h-39l41 201q-142 12 -239.5 93.5t-132.5 221.5zM518 801l123 604q-144 -3 -246 -94q-98 -88 -98 -228q0 -94 52 -156t169 -126zM545 737l-146 -719q188 3 308 111q118 106 118 277q0 110 -67.5 186.5t-212.5 144.5z" />
    <glyph glyph-name="percent" unicode="%" horiz-adv-x="1447" 
d="M461 801q-130 0 -213.5 78.5t-83.5 201.5q0 143 104 250q109 109 250 109q130 0 214.5 -81t84.5 -206q0 -136 -102 -244t-254 -108zM143 0h-51l1215 1427h51zM465 838q133 0 223 96t90 215q0 112 -73 183t-189 71q-123 0 -219 -96q-92 -95 -92 -222q0 -109 72.5 -178
t187.5 -69zM629 270q0 143 104 250q109 109 250 109q130 0 214.5 -81t84.5 -206q0 -136 -102 -244t-254 -108q-130 0 -213.5 78.5t-83.5 201.5zM670 274q0 -109 72.5 -178t187.5 -69q133 0 223 96t90 215q0 112 -73 183t-189 71q-123 0 -219 -96q-92 -95 -92 -222z" />
    <glyph glyph-name="ampersand" unicode="&#x26;" horiz-adv-x="1480" 
d="M37 383q0 196 121.5 333.5t330.5 178.5q-32 77 -32 180q0 153 104 260q106 109 248 109q129 0 212 -74.5t83 -191.5q0 -186 -152 -267h512l-8 -43h-295q-18 -129 -37 -235q-17 -92 -51 -207q-34 -124 -78 -186l187 -240h-56l-157 203q-91 -115 -203 -167t-270 -52
q-204 0 -332 110q-127 115 -127 289zM676 651l291 -377q45 53 84 222q7 22 20 94l16 90q0 2 5.5 36t9.5 64l14 88h-328l7 31q111 6 187.5 80t76.5 192q0 103 -69.5 166.5t-182.5 63.5q-127 0 -217 -96q-88 -94 -88 -228q0 -79 28 -168q28 -77 62 -133q13 -22 84 -125z
M82 385q0 -158 117 -260q115 -100 301 -100q146 0 251 50t191 161l-90 112l-84 107l-70 88q-25 34 -44.5 61.5t-39 55.5t-32.5 47q-48 78 -76 145q-196 -37 -310 -162t-114 -305z" />
    <glyph glyph-name="quotesingle" unicode="'" horiz-adv-x="264" 
d="M193 911h-35l100 516h45z" />
    <glyph glyph-name="parenleft" unicode="(" horiz-adv-x="524" 
d="M111 463q0 -445 270 -756l-29 -26q-136 152 -209 357.5t-73 434.5q0 314 171 599.5t496 514.5l21 -28q-647 -469 -647 -1096z" />
    <glyph glyph-name="parenright" unicode=")" horiz-adv-x="524" 
d="M-246 -322l-20 29q647 469 647 1096q0 445 -270 756l28 26q136 -152 209.5 -357.5t73.5 -434.5q0 -314 -171.5 -600t-496.5 -515z" />
    <glyph glyph-name="asterisk" unicode="*" horiz-adv-x="890" 
d="M526 1090l-211 -220l-36 33l217 213l-240 86l23 45l237 -94l51 274h54l-64 -276l277 94l8 -45l-279 -90l129 -211l-41 -27z" />
    <glyph glyph-name="plus" unicode="+" horiz-adv-x="819" 
d="M365 389h-43l63 307h-287l8 39h287l60 301h43l-60 -301h285l-8 -39h-285z" />
    <glyph glyph-name="comma" unicode="," horiz-adv-x="337" 
d="M-233 -262l307 489h57l-321 -489h-43z" />
    <glyph glyph-name="hyphen" unicode="-" horiz-adv-x="636" 
d="M498 518h-437l9 39h436z" />
    <glyph glyph-name="period" unicode="." horiz-adv-x="311" 
d="M14 -8q-37 0 -37 35q0 17 12 30t29 13q37 0 37 -35q0 -17 -12 -30t-29 -13z" />
    <glyph glyph-name="slash" unicode="/" horiz-adv-x="794" 
d="M862 1481l-1001 -1760h-47l999 1760h49z" />
    <glyph glyph-name="zero" unicode="0" horiz-adv-x="1132" 
d="M37 367q0 77 74 417q15 60 32 139t21 93q55 203 186.5 317.5t327.5 114.5q179 0 297 -109q119 -107 119 -274q0 -72 -72 -420q-30 -155 -51 -233q-3 -9 -9 -30t-8.5 -29.5t-8.5 -25.5t-10.5 -28t-12 -27t-16.5 -33t-21 -36q-43 -71 -90 -113q-54 -47 -143 -78.5
t-191 -31.5q-192 0 -309 108q-115 112 -115 279zM82 369q0 -156 106 -252.5t277 -96.5q91 0 170.5 29.5t128.5 71.5q42 37 82 102q34 58 49.5 97t30.5 98q32 123 53 229q70 341 70 412q0 152 -107 250q-104 98 -266 98q-192 0 -307 -115q-114 -114 -160 -282q-3 -8 -9 -34
t-19 -83t-25 -109q-74 -334 -74 -415z" />
    <glyph glyph-name="one" unicode="1" horiz-adv-x="532" 
d="M188 0h-45l283 1386h-227l8 41h272z" />
    <glyph glyph-name="two" unicode="2" horiz-adv-x="1005" 
d="M774 0h-868l6 33l840 762q170 156 170 313q0 133 -88 215q-90 84 -228 84q-148 0 -258 -98q-112 -95 -115 -230h-43q6 148 125 258q120 111 293 111q155 0 256 -94q103 -95 103 -244q0 -174 -187 -346l-796 -723h798z" />
    <glyph glyph-name="three" unicode="3" horiz-adv-x="1118" 
d="M-47 322l41 12q25 -142 145.5 -228t298.5 -86q204 0 348 144q146 146 146 336q0 156 -109 256q-106 100 -278 100q-67 0 -129 -18l-17 32l602 516h-692l8 41h764l-8 -32l-600 -512q34 12 88 12q178 0 295 -111q119 -107 119 -280q0 -213 -156 -369q-155 -155 -383 -155
q-189 0 -321 91.5t-162 250.5z" />
    <glyph glyph-name="four" unicode="4" horiz-adv-x="1130" 
d="M836 367h-803l6 32l715 1028h49l-707 -1017h748l74 366h45l-158 -776h-45z" />
    <glyph glyph-name="five" unicode="5" horiz-adv-x="1114" 
d="M-27 272l41 17q38 -124 151.5 -196.5t266.5 -72.5q222 0 359 152q135 150 135 350q0 168 -107 275q-106 106 -276 106q-174 0 -307 -112l-35 14l237 622h609l-9 -41h-571l-203 -530q116 90 285 90q185 0 301 -119q119 -116 119 -303q0 -216 -148 -381
q-147 -163 -391 -163q-163 0 -286.5 77.5t-170.5 214.5z" />
    <glyph glyph-name="six" unicode="6" horiz-adv-x="1148" 
d="M35 408q0 203 186 407l561 612h56l-506 -550q89 65 239 65q193 0 318 -119q127 -118 127 -305q0 -214 -156 -377q-151 -161 -379 -161q-197 0 -321 118q-125 119 -125 310zM80 408q0 -172 113 -279q115 -109 290 -109q208 0 348 152q142 154 142 344q0 166 -115 275
q-114 108 -293 108q-201 0 -344 -149q-141 -147 -141 -342z" />
    <glyph glyph-name="seven" unicode="7" horiz-adv-x="1095" 
d="M219 0h-51l948 1386h-905l8 41h961l-6 -32z" />
    <glyph glyph-name="eight" unicode="8" horiz-adv-x="1075" 
d="M436 829q-73 36 -116.5 105.5t-43.5 155.5q0 144 113 251t260 107q136 0 225 -80q93 -81 93 -211q0 -124 -82 -225q-81 -104 -201 -125q106 -33 176 -131t70 -221q0 -185 -139 -330t-351 -145q-181 0 -299 106q-116 107 -116 279q0 171 120 309q122 137 291 155zM594 834
q142 0 233 98q95 100 95 223q0 111 -77 181.5t-198 70.5q-128 0 -229 -96q-96 -96 -96 -219q0 -115 75 -186.5t197 -71.5zM70 369q0 -154 104 -252q108 -97 268 -97q190 0 316 132q127 133 127 299q0 150 -105 249t-266 99q-181 0 -313 -129q-131 -128 -131 -301z" />
    <glyph glyph-name="nine" unicode="9" horiz-adv-x="1142" 
d="M356 0h-55l502 541q-94 -52 -225 -52q-195 0 -318 117q-123 120 -123 307q0 221 156 377q158 158 375 158q194 0 317 -117q125 -116 125 -305q0 -218 -178 -405zM584 530q211 0 346 150q137 149 137 344q0 167 -113 274q-112 109 -288 109q-197 0 -342 -145
q-144 -144 -144 -347q0 -171 113 -278t291 -107z" />
    <glyph glyph-name="colon" unicode=":" horiz-adv-x="311" 
d="M170 760q-37 0 -37 35q0 18 12.5 30.5t30.5 12.5q16 0 26.5 -11.5t10.5 -25.5q0 -17 -12 -29t-31 -12zM53 195q-37 0 -37 36q0 17 13 29t30 12q37 0 37 -34q0 -18 -12.5 -30.5t-30.5 -12.5z" />
    <glyph glyph-name="semicolon" unicode=";" horiz-adv-x="344" 
d="M211 760q-37 0 -37 35q0 18 12.5 30.5t30.5 12.5q16 0 26.5 -11.5t10.5 -25.5q0 -17 -12 -29t-31 -12zM-217 -229l291 456h57l-305 -456h-43z" />
    <glyph glyph-name="less" unicode="&#x3c;" horiz-adv-x="823" 
d="M635 313l-541 398l6 34l705 400l-10 -53l-652 -367l502 -367z" />
    <glyph glyph-name="equal" unicode="=" horiz-adv-x="905" 
d="M825 827h-700l8 39h701zM776 586h-700l8 39h700z" />
    <glyph glyph-name="greater" unicode="&#x3e;" horiz-adv-x="827" 
d="M727 713l-704 -398l10 52l651 366l-502 367l11 45l542 -397z" />
    <glyph glyph-name="question" unicode="?" horiz-adv-x="788" 
d="M365 311q-103 0 -163.5 51.5t-60.5 137.5q-5 35 10.5 75t30.5 60.5t41 52.5q16 22 62 49l59 41q53 32 70 41q60 35 65 37q29 17 66.5 40.5t40.5 25.5q36 22 82 65q86 78 86 209q0 91 -71.5 148t-188.5 57q-147 0 -267 -117l9 55q109 103 260 103q135 0 219 -67.5
t84 -176.5q0 -103 -56 -192q-20 -34 -67 -72q-33 -27 -78 -57l-94 -58q-34 -20 -80 -45q-78 -44 -90 -53q-36 -24 -72 -55q-78 -67 -78 -164q0 -67 50.5 -108.5t132.5 -41.5q64 0 118 31l-8 -45q-59 -27 -112 -27zM205 23q0 17 12 30t29 13q37 0 37 -37q0 -17 -12 -29
t-29 -12q-37 0 -37 35z" />
    <glyph glyph-name="at" unicode="@" horiz-adv-x="1648" 
d="M55 514q0 326 240 569q239 242 567 242q302 0 496 -182t194 -467q0 -174 -96 -314q-94 -135 -235 -135q-74 0 -118 36t-44 97q0 27 8 58q-36 -80 -121 -133.5t-188 -53.5q-142 0 -230 88q-90 90 -90 228q0 154 111 280q113 125 280 125q119 0 199 -59t98 -150l39 193
l41 -2l-102 -502q-8 -31 -8 -59q0 -109 127 -109q122 0 204 125q84 128 84 285q0 269 -182 442q-181 172 -467 172q-312 0 -540 -231t-228 -541q0 -271 178 -440q182 -170 465 -170q160 0 291 55l10 -35q-139 -59 -303 -59q-302 0 -491 180q-189 183 -189 467zM477 551
q0 -120 78 -201q80 -80 205 -80q156 0 250 119t94 279q0 109 -78 177t-203 68q-148 0 -248 -112q-98 -110 -98 -250z" />
    <glyph glyph-name="A" unicode="A" horiz-adv-x="1302" 
d="M-31 0h-47l858 1427h39l279 -1427h-43l-84 432h-742zM791 1364l-537 -891h709z" />
    <glyph glyph-name="B" unicode="B" horiz-adv-x="1193" 
d="M567 0h-508l291 1427h383q136 0 225 -86q89 -83 89 -217q0 -121 -86 -227q-85 -105 -213 -129q118 -23 189 -113.5t71 -214.5q0 -177 -129 -309q-125 -131 -312 -131zM385 1386l-121 -595h402q142 0 241 102t99 227q0 117 -76 191.5t-197 74.5h-348zM254 750l-141 -709
h450q172 0 287 121t115 272q0 138 -93 228q-88 88 -233 88h-385z" />
    <glyph glyph-name="C" unicode="C" horiz-adv-x="1490" 
d="M96 627q0 326 238 573q236 248 569 248q193 0 347 -84.5t241 -233.5l-35 -26q-80 142 -226 222.5t-329 80.5q-315 0 -539 -236q-223 -235 -223 -542q0 -267 178 -439q179 -170 459 -170q296 0 510 205l29 -30q-232 -215 -543 -215q-301 0 -487 180q-189 183 -189 467z
" />
    <glyph glyph-name="D" unicode="D" horiz-adv-x="1462" 
d="M588 0h-529l291 1427h359q289 0 471 -170t182 -434q0 -155 -52 -301.5t-149 -263.5q-96 -119 -246 -188.5t-327 -69.5zM387 1386l-274 -1345h477q224 0 395 115q166 114 250 286.5t84 378.5q0 252 -170 408q-171 157 -440 157h-322z" />
    <glyph glyph-name="E" unicode="E" horiz-adv-x="1097" 
d="M823 0h-764l291 1427h750l-8 -41h-705l-125 -612h664l-8 -41h-664l-141 -692h718z" />
    <glyph glyph-name="F" unicode="F" horiz-adv-x="980" 
d="M104 0h-45l291 1427h658l-9 -41h-612l-125 -612h561l-10 -41h-559z" />
    <glyph glyph-name="G" unicode="G" horiz-adv-x="1566" 
d="M96 623q-4 155 62.5 308t177 267t261.5 184t306 66q141 0 280 -47t224 -131l-29 -33q-79 77 -211 123.5t-268 46.5q-298 0 -528 -236t-230 -540q0 -264 183 -438q182 -173 452 -173q145 0 280 42.5t220 119.5l104 518h-538l10 41h582l-119 -581q-92 -85 -238.5 -132.5
t-304.5 -47.5q-289 0 -483 182q-193 184 -193 461z" />
    <glyph glyph-name="H" unicode="H" horiz-adv-x="1404" 
d="M104 0h-45l291 1427h45l-133 -649h907l131 649h46l-291 -1427h-45l151 737h-907z" />
    <glyph glyph-name="I" unicode="I" horiz-adv-x="471" 
d="M113 0h-45l290 1427h45z" />
    <glyph glyph-name="J" unicode="J" horiz-adv-x="661" 
d="M-100 6l10 39q44 -20 127 -20q134 0 204 75.5t107 255.5l217 1071h45l-217 -1073q-41 -198 -114 -282q-78 -90 -240 -90q-83 0 -139 24z" />
    <glyph glyph-name="K" unicode="K" horiz-adv-x="1216" 
d="M104 0h-45l291 1427h45l-184 -897l1003 897h60l-709 -636l451 -791h-49l-437 762l-331 -297z" />
    <glyph glyph-name="L" unicode="L" horiz-adv-x="989" 
d="M750 0h-691l291 1427h45l-282 -1386h645z" />
    <glyph glyph-name="M" unicode="M" horiz-adv-x="1675" 
d="M104 0h-45l291 1427h41l365 -1103l821 1103h39l-291 -1427h-45l270 1323l-809 -1085l-364 1095z" />
    <glyph glyph-name="N" unicode="N" horiz-adv-x="1454" 
d="M104 0h-45l291 1427h37l688 -1345l275 1345h45l-291 -1427h-33l-692 1352z" />
    <glyph glyph-name="O" unicode="O" horiz-adv-x="1683" 
d="M96 627q0 326 238 573q236 248 569 248q303 0 492 -186q190 -184 190 -474q0 -205 -104 -391q-101 -182 -291 -301q-186 -116 -416 -116q-300 0 -489 180q-189 183 -189 467zM141 629q0 -266 176 -439q179 -170 459 -170q212 0 391 111q177 109 275 283.5t98 371.5
q0 272 -178 447q-177 174 -461 174q-312 0 -536 -236t-224 -542z" />
    <glyph glyph-name="P" unicode="P" horiz-adv-x="1099" 
d="M104 0h-45l291 1427h322q170 0 278 -102q109 -103 109 -264q0 -180 -135 -318q-132 -135 -322 -135h-373zM387 1386l-149 -735h366q177 0 293 125q119 125 119 283q0 145 -96 235q-95 92 -250 92h-283z" />
    <glyph glyph-name="Q" unicode="Q" horiz-adv-x="1683" 
d="M96 627q0 326 238 573q236 248 569 248q303 0 492 -186q190 -184 190 -474q0 -192 -94 -370q-95 -179 -258 -293l98 -158l-35 -22l-96 157q-195 -122 -426 -122q-300 0 -489 180q-189 183 -189 467zM141 629q0 -266 176 -439q179 -170 459 -170q216 0 402 121l-236 394
l35 24l235 -395q153 110 240.5 276t87.5 346q0 272 -178 447q-177 174 -461 174q-312 0 -536 -236t-224 -542z" />
    <glyph glyph-name="R" unicode="R" horiz-adv-x="1173" 
d="M104 0h-45l289 1427h383q170 0 273 -100q104 -98 104 -256q0 -162 -113 -287q-112 -127 -274 -145l225 -639h-47l-225 635h-441zM385 1386l-143 -710h424q167 0 282 121q115 124 115 272q0 138 -92 227q-93 90 -242 90h-344z" />
    <glyph glyph-name="S" unicode="S" horiz-adv-x="1107" 
d="M18 297l39 16q42 -142 146.5 -218.5t261.5 -76.5q186 0 307 109q123 111 123 279q0 109 -68 183t-227 150q-158 78 -225.5 151t-67.5 185q0 159 113 266t278 107q107 0 193.5 -50.5t122.5 -131.5l-39 -19q-83 160 -281 160q-140 0 -241 -94q-101 -91 -101 -230
q0 -110 64 -174q61 -58 207 -131q170 -82 243.5 -163.5t73.5 -200.5q0 -192 -133 -316q-133 -121 -344 -121q-167 0 -285.5 84t-159.5 236z" />
    <glyph glyph-name="T" unicode="T" horiz-adv-x="1093" 
d="M424 0h-45l283 1386h-447l8 41h938l-8 -41h-446z" />
    <glyph glyph-name="U" unicode="U" 
d="M135 381q0 48 12 113l191 933h45l-193 -946q-10 -55 -10 -100q0 -155 109 -258q110 -98 286 -98q387 0 472 411l200 991h45l-202 -999q-88 -444 -519 -444q-190 0 -313 108t-123 289z" />
    <glyph glyph-name="V" unicode="V" horiz-adv-x="1273" 
d="M516 0h-37l-252 1427h45l238 -1351l786 1351h52z" />
    <glyph glyph-name="W" unicode="W" horiz-adv-x="1900" 
d="M436 0h-30l-191 1427h43l176 -1335l643 1335h29l100 -1337l719 1337h49l-768 -1427h-32l-103 1319z" />
    <glyph glyph-name="X" unicode="X" horiz-adv-x="1271" 
d="M6 0h-53l659 743l-346 684h47l330 -653l592 653h55l-626 -692l360 -735h-47l-344 702z" />
    <glyph glyph-name="Y" unicode="Y" horiz-adv-x="1157" 
d="M455 0h-45l127 618l-330 809h47l311 -763l619 763h53l-657 -815z" />
    <glyph glyph-name="Z" unicode="Z" horiz-adv-x="1249" 
d="M999 0h-1093l8 31l1319 1355h-899l8 41h961l-9 -34l-1312 -1352h1026z" />
    <glyph glyph-name="bracketleft" unicode="[" horiz-adv-x="536" 
d="M369 1386l-355 -1740h291l-6 -41h-336l371 1822h336l-8 -41h-293z" />
    <glyph glyph-name="backslash" unicode="\" horiz-adv-x="796" 
d="M551 -279h-41l-285 1760h41z" />
    <glyph glyph-name="bracketright" unicode="]" horiz-adv-x="536" 
d="M-205 -354h293l354 1740h-292l8 41h336l-371 -1822h-336z" />
    <glyph glyph-name="asciicircum" unicode="^" horiz-adv-x="1097" 
d="M115 717h-56l621 743h39l313 -743h-45l-293 696z" />
    <glyph glyph-name="underscore" unicode="_" horiz-adv-x="638" 
d="M-213 -395l8 41h615l-9 -41h-614z" />
    <glyph glyph-name="grave" unicode="`" horiz-adv-x="1134" 
d="M688 1130h-37l-94 297h51z" />
    <glyph glyph-name="a" unicode="a" horiz-adv-x="1251" 
d="M35 449q0 233 166 417q166 187 413 187q182 0 312 -95q130 -92 151 -241l66 315h43l-211 -1032h-43l51 254q-75 -131 -196 -202.5t-277 -71.5q-213 0 -344 131t-131 338zM78 451q0 -191 121 -312q119 -119 315 -119q240 0 385 183q148 183 148 428q0 168 -123 276
q-119 107 -314 107q-232 0 -381 -174q-151 -174 -151 -389z" />
    <glyph glyph-name="b" unicode="b" horiz-adv-x="1247" 
d="M31 0h-41l291 1427h41l-132 -643q75 127 193.5 198t265.5 71q210 0 346 -133q138 -132 138 -340q0 -232 -166 -416t-418 -184q-183 0 -301 100q-121 103 -148 258zM129 444q0 -187 117 -307q117 -117 303 -117q232 0 385 170q156 172 156 388q0 194 -125 313
q-123 123 -320 123q-211 0 -364 -170q-152 -172 -152 -400z" />
    <glyph glyph-name="c" unicode="c" horiz-adv-x="1089" 
d="M35 453q0 244 174 421q176 179 416 179q139 0 252 -60t176 -166l-31 -26q-60 100 -164.5 156.5t-232.5 56.5q-223 0 -385 -168q-162 -165 -162 -391q0 -197 125 -316q127 -121 329 -121q213 0 365 146l27 -29q-165 -155 -394 -155q-221 0 -358 131t-137 342z" />
    <glyph glyph-name="d" unicode="d" horiz-adv-x="1251" 
d="M35 449q0 233 166 417q166 187 413 187q182 0 312 -95q130 -92 151 -241l146 710h43l-291 -1427h-43l51 254q-75 -131 -196 -202.5t-277 -71.5q-213 0 -344 131t-131 338zM78 451q0 -191 121 -312q119 -119 315 -119q240 0 385 183q148 183 148 428q0 168 -123 276
q-119 107 -314 107q-232 0 -381 -174q-151 -174 -151 -389z" />
    <glyph glyph-name="e" unicode="e" horiz-adv-x="1150" 
d="M33 428q0 246 164 434q168 189 401 189q195 0 317 -125q123 -126 123 -322q0 -44 -10 -96h-948q-4 -28 -4 -76q0 -187 114 -301q118 -115 308 -115q204 0 356 146l27 -29q-159 -156 -385 -156q-211 0 -336 125q-127 127 -127 326zM88 547h903q4 36 4 65q0 178 -112 287
q-110 113 -287 113q-183 0 -326 -131q-142 -133 -182 -334z" />
    <glyph glyph-name="f" unicode="f" horiz-adv-x="600" 
d="M113 0h-41l202 991h-153l10 41h152l24 123q52 291 309 291q51 0 84 -10l-8 -39q-33 8 -80 8q-214 0 -264 -258l-24 -115h268l-8 -41h-267z" />
    <glyph glyph-name="g" unicode="g" horiz-adv-x="1253" 
d="M-31 -213l31 29q52 -87 172.5 -141t271.5 -54q214 0 335 111.5t171 347.5l35 172q-158 -272 -473 -272q-213 0 -344 131q-133 133 -133 338q0 233 166 417q169 187 413 187q182 0 312 -95q130 -92 151 -241l66 315h45l-193 -934q-55 -269 -182.5 -392.5t-372.5 -123.5
q-143 0 -276 53q-132 53 -195 152zM78 451q0 -191 121 -312q122 -119 315 -119q239 0 387 183t148 428q0 168 -123 276q-119 107 -316 107q-229 0 -381 -174q-151 -174 -151 -389z" />
    <glyph glyph-name="h" unicode="h" horiz-adv-x="1112" 
d="M31 0h-43l291 1427h43l-125 -606q52 106 156 168t241 62q169 0 266.5 -98.5t97.5 -266.5q0 -64 -12 -125q-115 -548 -115 -561h-43q0 32 113 561q14 66 14 119q0 154 -87.5 242t-239.5 88q-171 0 -283 -109t-155 -319z" />
    <glyph glyph-name="i" unicode="i" horiz-adv-x="313" 
d="M274 1274q-36 0 -36 35q0 17 13 30t30 13q36 0 36 -37q0 -17 -12 -29t-31 -12zM33 0h-43l211 1032h43z" />
    <glyph glyph-name="j" unicode="j" horiz-adv-x="307" 
d="M272 1272q-34 0 -34 37q0 17 12 29t29 12q36 0 36 -35q0 -18 -12.5 -30.5t-30.5 -12.5zM-51 -188l248 1220h43l-250 -1227q-25 -118 -80 -169.5t-158 -51.5q-61 0 -88 10l8 39q38 -10 84 -10q86 0 129 43.5t64 145.5z" />
    <glyph glyph-name="k" unicode="k" horiz-adv-x="874" 
d="M31 0h-43l291 1427h43l-203 -999l686 604h61l-510 -450l340 -582h-49l-323 553l-220 -195z" />
    <glyph glyph-name="l" unicode="l" horiz-adv-x="313" 
d="M33 0h-43l291 1427h43z" />
    <glyph glyph-name="m" unicode="m" horiz-adv-x="1755" 
d="M31 0h-43l209 1032h43l-41 -207q108 226 364 226q155 0 232 -95q76 -91 79 -200q108 295 394 295q77 0 137 -22t95 -56.5t58 -81.5t31 -90.5t8 -89.5q0 -65 -12 -127l-121 -584h-43l119 584q14 66 14 123q0 42 -7 80.5t-27 80.5t-52 72.5t-87 50t-126 19.5
q-302 0 -385 -410l-120 -600h-43l116 578q13 70 13 127q0 143 -75 224t-208 81q-317 0 -408 -445z" />
    <glyph glyph-name="n" unicode="n" horiz-adv-x="1128" 
d="M31 0h-43l211 1032h41l-43 -215q55 111 158 172.5t243 61.5q172 0 273.5 -100.5t101.5 -268.5q0 -66 -12 -127l-33 -156l-56 -270q-24 -126 -24 -129h-43q0 12 51 266l59 289q15 70 15 121q0 155 -92 244.5t-250 89.5q-171 0 -284.5 -109t-156.5 -319z" />
    <glyph glyph-name="o" unicode="o" horiz-adv-x="1243" 
d="M35 451q0 246 174 423q176 179 418 179q220 0 358 -135q139 -133 139 -347q4 -108 -40.5 -215t-122.5 -191t-192.5 -135.5t-240.5 -49.5q-219 0 -356 131t-137 340zM78 455q0 -194 125 -316q127 -121 329 -121q237 0 392 168q157 171 157 381q0 196 -129 322
q-125 125 -329 125q-223 0 -385 -168q-160 -168 -160 -391z" />
    <glyph glyph-name="p" unicode="p" horiz-adv-x="1245" 
d="M98 338l-149 -733h-41l291 1427h41l-52 -248q75 127 193.5 198t265.5 71q210 0 346 -133q137 -131 137 -340q0 -233 -165 -416q-166 -184 -418 -184q-183 0 -301 100q-121 103 -148 258zM127 444q0 -187 117 -307q117 -117 303 -117q232 0 385 170q155 171 155 388
q0 195 -124 313q-123 123 -320 123q-211 0 -364 -170q-152 -172 -152 -400z" />
    <glyph glyph-name="q" unicode="q" horiz-adv-x="1251" 
d="M35 449q0 233 166 417q166 187 413 187q182 0 312 -95q130 -92 151 -241l66 315h43l-291 -1427h-43l131 649q-75 -131 -196 -202.5t-277 -71.5q-213 0 -344 131t-131 338zM78 451q0 -191 121 -312q119 -119 315 -119q240 0 385 183q148 183 148 428q0 168 -123 276
q-119 107 -314 107q-232 0 -381 -174q-151 -174 -151 -389z" />
    <glyph glyph-name="r" unicode="r" horiz-adv-x="661" 
d="M31 0h-43l211 1032h43l-49 -231q133 250 436 250q27 0 33 -2l-9 -41q-10 2 -37 2q-191 0 -311 -121t-164 -342z" />
    <glyph glyph-name="s" unicode="s" horiz-adv-x="794" 
d="M-45 217l39 14q29 -101 107.5 -157t193.5 -56q135 0 222 77t87 194q0 79 -50.5 131.5t-168.5 109.5q-112 55 -163.5 111.5t-51.5 144.5q0 113 82 189q84 78 205 78q171 0 239 -138l-37 -16q-59 115 -202 115q-104 0 -174 -65.5t-70 -162.5q0 -74 49 -125t152 -98
q123 -58 178 -119.5t55 -154.5q0 -133 -98 -221t-254 -88q-129 0 -218.5 62.5t-121.5 174.5z" />
    <glyph glyph-name="t" unicode="t" horiz-adv-x="563" 
d="M106 0h-43l201 991h-131l10 41h131l80 395h43l-80 -395h258l-10 -41h-258z" />
    <glyph glyph-name="u" unicode="u" horiz-adv-x="1077" 
d="M41 330q0 34 12 96l121 606h43l-121 -606q-10 -58 -10 -96q0 -138 95 -224t253 -86q342 0 412 357l133 655h43l-133 -663q-79 -389 -457 -389q-172 0 -282 96q-109 95 -109 254z" />
    <glyph glyph-name="v" unicode="v" horiz-adv-x="1017" 
d="M383 0h-37l-235 1032h45l219 -969l612 969h49z" />
    <glyph glyph-name="w" unicode="w" horiz-adv-x="1560" 
d="M297 0h-35l-149 1032h43l135 -962l518 962h33l147 -958l543 958h47l-586 -1032h-32l-148 961z" />
    <glyph glyph-name="x" unicode="x" horiz-adv-x="952" 
d="M436 508l-461 -508h-53l494 549l-250 483h47l233 -448l414 448h55l-448 -489l272 -543h-47z" />
    <glyph glyph-name="y" unicode="y" horiz-adv-x="980" 
d="M55 -395l254 407l-196 1020h43l186 -966l608 966h49l-897 -1427h-47z" />
    <glyph glyph-name="z" unicode="z" horiz-adv-x="1001" 
d="M743 0h-858l9 31l980 960h-694l8 41h758l-6 -35l-979 -956h791z" />
    <glyph glyph-name="braceleft" unicode="{" horiz-adv-x="583" 
d="M57 -182l97 467l2 13q2 14 4 30t2 24q0 135 -129 150l4 30q172 15 203 175l110 546q34 174 203 174h78l-6 -38h-72q-58 0 -100.5 -34.5t-59.5 -103.5l-110 -542q-13 -74 -59.5 -128.5t-104.5 -66.5q84 -41 84 -162q0 -11 -4 -41.5t-4 -36.5l-97 -464q-4 -28 -4 -43
q0 -56 35 -89.5t96 -33.5h43l-8 -39h-43q-77 0 -120.5 44t-43.5 120q0 17 4 49z" />
    <glyph glyph-name="bar" unicode="|" horiz-adv-x="430" 
d="M82 -51h-43l311 1530h43z" />
    <glyph glyph-name="braceright" unicode="}" horiz-adv-x="583" 
d="M111 -219l110 543q13 74 59.5 128t104.5 66q-84 41 -84 162q0 11 4 41.5t4 36.5l97 465q4 28 4 43q0 56 -35 89.5t-96 33.5h-43l8 38h43q77 0 120.5 -43.5t43.5 -119.5q0 -10 -5 -50l-96 -466l-2 -14q-2 -13 -4 -29.5t-2 -24.5q0 -135 129 -150l-4 -30
q-172 -15 -203 -174l-110 -547q-34 -174 -203 -174h-78l6 39h72q58 0 100.5 34t59.5 103z" />
    <glyph glyph-name="asciitilde" unicode="~" horiz-adv-x="813" 
d="M94 653l-31 6q53 123 193 123q68 0 156 -55q89 -53 147 -53q111 0 158 92l31 -2q-24 -58 -74.5 -92.5t-118.5 -34.5q-69 0 -158 53q-88 55 -147 55q-51 0 -94.5 -24.5t-61.5 -67.5z" />
    <glyph glyph-name="exclamdown" unicode="&#xa1;" horiz-adv-x="413" 
d="M260 950q-37 0 -37 35q0 17 13 30t30 13q37 0 37 -37q0 -17 -12 -29t-31 -12zM4 -412h-51l229 1110h41z" />
    <glyph glyph-name="cent" unicode="&#xa2;" horiz-adv-x="1124" 
d="M324 0h-39l92 219q-134 51 -208.5 166t-74.5 270q0 244 172 422t408 178q64 0 139 -16l80 188h41l-86 -198q161 -52 250 -197l-33 -24q-76 131 -231 184l-406 -946q73 -25 156 -25q204 0 356 146l27 -29q-163 -156 -387 -156q-89 0 -166 25zM393 258l402 942
q-66 17 -119 17q-221 0 -379 -168q-160 -168 -160 -392q0 -140 68.5 -245.5t187.5 -153.5z" />
    <glyph glyph-name="sterling" unicode="&#xa3;" horiz-adv-x="1175" 
d="M913 0h-954l8 39h35q203 0 326 123t123 268q0 115 -68 242h-215l8 43h193q-74 157 -74 289q0 176 127 309q130 133 307 133q159 0 260 -94q103 -95 103 -244q0 -16 -7 -51h-43q7 32 7 47q0 131 -90.5 215t-231.5 84q-161 0 -274 -119q-115 -121 -115 -280q0 -130 78 -289
h340l-8 -43h-316q64 -128 64 -236q0 -131 -86 -246q-79 -110 -205 -149h717z" />
    <glyph glyph-name="currency" unicode="&#xa4;" horiz-adv-x="1361" 
d="M317 354l-170 -153l-26 32l174 148q-80 106 -80 250q0 109 48.5 211.5t131.5 175.5l-129 166l33 26l127 -172q128 101 289 101q198 0 315 -129l170 153l27 -33l-172 -145q82 -104 82 -256q0 -106 -48.5 -209t-134.5 -176l127 -162l-32 -26l-125 166q-127 -95 -289 -95
q-197 0 -318 127zM637 266q195 0 328 142q131 140 131 317q0 166 -107 270q-108 105 -276 105q-186 0 -322 -139q-135 -138 -135 -328q0 -164 106 -264q109 -103 275 -103z" />
    <glyph glyph-name="yen" unicode="&#xa5;" horiz-adv-x="1157" 
d="M457 0h-43l116 582h-436l8 41h437l-78 190h-320l9 41h294l-233 573h45l313 -763l619 763h53l-465 -573h289l-8 -41h-314l-153 -190h428l-8 -41h-435z" />
    <glyph glyph-name="brokenbar" unicode="&#xa6;" horiz-adv-x="430" 
d="M264 850h-43l119 577h43zM92 0h-43l123 602h43z" />
    <glyph glyph-name="section" unicode="&#xa7;" horiz-adv-x="1042" 
d="M25 -104h43q-5 -40 -5 -52q0 -100 74 -164.5t187 -64.5q131 0 213 88q84 87 84 197q0 132 -142 227l-129 78q-160 95 -229 176q-68 83 -68 197q0 259 334 329q-108 89 -108 226q0 131 102 225q101 98 246 98q125 0 213 -76q88 -73 88 -186l-6 -55h-43q4 20 4 51
q0 96 -74.5 160.5t-183.5 64.5q-126 0 -215 -86q-86 -83 -86 -199q0 -123 145 -229l115 -72q161 -92 235 -178.5t74 -199.5q0 -126 -88 -210.5t-248 -117.5q109 -83 109 -221q0 -128 -95 -228q-93 -100 -252 -100q-130 0 -215.5 75t-85.5 191q0 35 7 56zM432 207l80 -49
q164 26 250 103t86 190q0 128 -107 213q-51 45 -97 75.5t-134 81.5q-43 22 -80 51q-166 -29 -249 -104.5t-83 -192.5q0 -109 76 -188q80 -80 258 -180z" />
    <glyph glyph-name="dieresis" unicode="&#xa8;" horiz-adv-x="1273" 
d="M967 1272q-37 0 -37 37q0 17 12 29t29 12q37 0 37 -35q0 -17 -12 -30t-29 -13zM545 1272q-37 0 -37 37q0 17 12 29t29 12q37 0 37 -35q0 -17 -12 -30t-29 -13z" />
    <glyph glyph-name="copyright" unicode="&#xa9;" horiz-adv-x="1650" 
d="M86 627q0 327 238 571t563 244q299 0 487 -185q191 -182 191 -471q0 -146 -59 -288.5t-165 -259.5q-105 -115 -259 -183.5t-324 -68.5q-299 0 -486 178q-186 180 -186 463zM131 629q0 -266 174 -434t455 -168q221 0 393 112q176 114 271.5 286t95.5 361q0 272 -177 443
q-175 172 -456 172q-307 0 -533 -232q-223 -229 -223 -540zM418 664q0 186 133 325q134 137 319 137q227 0 332 -172l-33 -26q-95 157 -299 157q-167 0 -288 -124q-121 -127 -121 -295q0 -145 94 -236q96 -90 248 -90q157 0 272 109l27 -29q-122 -119 -303 -119
q-169 0 -275 100t-106 263z" />
    <glyph glyph-name="ordfeminine" unicode="&#xaa;" horiz-adv-x="1144" 
d="M502 649q-112 0 -177 51.5t-65 139.5q0 150 121 200q103 45 240 56q138 13 189.5 50.5t51.5 104.5q0 68 -56 110t-147 42q-167 0 -241 -148l-27 21q83 160 271 160q104 0 169.5 -51.5t65.5 -133.5q0 -1 -4 -47l-88 -428q-6 -38 -6 -43q0 -37 41 -37q18 0 30 4l-6 -30
q-15 -6 -39 -6q-61 0 -61 55q0 13 10 55q-73 -125 -272 -125zM502 684q121 0 196 54t95 153l51 246q-37 -58 -226 -76q-115 -12 -174 -33q-69 -19 -105 -63.5t-42 -122.5q0 -74 54.5 -116t150.5 -42z" />
    <glyph glyph-name="guillemotleft" unicode="&#xab;" horiz-adv-x="653" 
d="M451 160h-45l-154 358l297 359h53l-301 -363zM246 160h-45l-154 358l297 359h53l-301 -363z" />
    <glyph glyph-name="logicalnot" unicode="&#xac;" horiz-adv-x="1083" 
d="M952 782h-835l8 41h879l-82 -403h-43z" />
    <glyph glyph-name="registered" unicode="&#xae;" horiz-adv-x="839" 
d="M473 803q-131 0 -213 77.5t-82 204.5q0 140 105 248q104 107 245 107q131 0 214 -80t83 -207q0 -138 -100 -244t-252 -106zM473 827q143 0 234 99q94 101 94 227q0 116 -76 189t-197 73q-132 0 -229 -100q-96 -101 -96 -230q0 -116 74.5 -187t195.5 -71zM381 940h-25
l76 375h111q66 5 93 -48t0.5 -111t-91.5 -66l55 -150h-27l-53 145h-110zM451 1290l-35 -180h104q43 0 74 30t31 68q0 37 -24 59.5t-62 22.5h-88z" />
    <glyph glyph-name="overscore" unicode="&#xaf;" horiz-adv-x="1302" 
d="M1090 1386h-603l9 41h602z" />
    <glyph glyph-name="degree" unicode="&#xb0;" horiz-adv-x="690" 
d="M424 975q-94 0 -153.5 56.5t-59.5 146.5q0 102 76 178q78 78 178 78q94 0 154.5 -58t60.5 -149q0 -97 -74 -174q-72 -78 -182 -78zM428 1014q93 0 150 63q61 64 61 148q0 75 -49.5 122.5t-128.5 47.5q-82 0 -148 -66q-61 -64 -61 -149q0 -74 48.5 -120t127.5 -46z" />
    <glyph glyph-name="plusminus" unicode="&#xb1;" horiz-adv-x="819" 
d="M365 389h-43l63 307h-287l8 39h287l60 301h43l-60 -301h285l-8 -39h-285zM592 100h-615l9 41h614z" />
    <glyph glyph-name="twosuperior" unicode="&#xb2;" horiz-adv-x="706" 
d="M571 672h-462l4 26l450 420q74 68 74 133q0 69 -44.5 114.5t-113.5 45.5q-71 0 -123 -44.5t-73 -119.5l-35 2q25 89 86.5 142t146.5 53t139 -54t54 -139q0 -77 -84 -155l-422 -391h410z" />
    <glyph glyph-name="threesuperior" unicode="&#xb3;" horiz-adv-x="741" 
d="M119 838l33 8q17 -73 76.5 -114.5t150.5 -41.5q105 0 178 70q74 71 74 170q0 80 -56.5 130t-148.5 50q-41 0 -72 -8l-12 22l317 271h-368l6 32h426l-4 -24l-320 -268q20 4 52 4q92 0 153.5 -59.5t61.5 -147.5q0 -111 -84 -195q-83 -80 -205 -80q-102 0 -171.5 49.5
t-86.5 131.5z" />
    <glyph glyph-name="acute" unicode="&#xb4;" horiz-adv-x="1134" 
d="M653 1130h-41l199 297h53z" />
    <glyph glyph-name="mu" unicode="&#xb5;" horiz-adv-x="1081" 
d="M61 248l-131 -643h-43l289 1427h43l-125 -616q-8 -55 -8 -86q0 -140 94.5 -225t253.5 -85q336 0 412 353l133 659h43l-133 -661q-80 -391 -461 -391q-151 0 -250.5 74t-116.5 194z" />
    <glyph glyph-name="paragraph" unicode="&#xb6;" horiz-adv-x="864" 
d="M352 0h-43l127 621q-140 3 -225 102q-86 103 -86 256q0 177 115 313q114 135 274 135h461l-8 -41h-140l-282 -1386h-43l282 1386h-149z" />
    <glyph glyph-name="middot" unicode="&#xb7;" horiz-adv-x="288" 
d="M100 477q-34 0 -34 35q0 18 11.5 30.5t28.5 12.5q37 0 37 -37q0 -17 -12 -29t-31 -12z" />
    <glyph glyph-name="cedilla" unicode="&#xb8;" horiz-adv-x="1116" 
d="M311 -166l107 166h45l-84 -127h8q113 0 113 -100q0 -49 -39.5 -80t-102.5 -31q-76 0 -114 41l18 29q39 -33 96 -33q42 0 70.5 21.5t28.5 52.5q0 67 -92 67q-24 0 -54 -6z" />
    <glyph glyph-name="onesuperior" unicode="&#xb9;" horiz-adv-x="468" 
d="M256 672h-35l146 723h-99l8 32h134z" />
    <glyph glyph-name="ordmasculine" unicode="&#xba;" horiz-adv-x="966" 
d="M514 653q-160 0 -268 97q-103 100 -103 254q0 179 129 311q133 133 312 133q167 0 270 -100q104 -101 104 -258q0 -169 -129 -304q-127 -133 -315 -133zM516 690q172 0 287 121q117 123 117 276q0 143 -95 232q-95 92 -243 92q-160 0 -281 -121q-119 -119 -119 -284
q0 -139 92 -228q94 -88 242 -88z" />
    <glyph glyph-name="guillemotright" unicode="&#xbb;" horiz-adv-x="653" 
d="M227 160h-53l301 362l-149 355h45l153 -359zM23 160h-54l301 362l-149 355h45l153 -359z" />
    <glyph glyph-name="onequarter" unicode="&#xbc;" horiz-adv-x="1320" 
d="M33 0h-45l1188 1427h45zM264 672h-35l148 723h-98l6 32h133zM1030 188h-452l6 27l377 541h38l-372 -535h411l39 189h35l-84 -410h-35z" />
    <glyph glyph-name="onehalf" unicode="&#xbd;" horiz-adv-x="1331" 
d="M-27 0h-45l1188 1427h45zM264 672h-35l148 723h-98l6 32h133zM1049 0h-463l4 27l450 419q74 68 74 134q0 69 -44.5 114t-113.5 45q-71 0 -123 -44.5t-73 -119.5l-35 3q25 89 86.5 141.5t146.5 52.5t139 -53.5t54 -138.5q0 -78 -84 -156l-422 -391h410z" />
    <glyph glyph-name="threequarters" unicode="&#xbe;" horiz-adv-x="1507" 
d="M236 0h-43l1187 1427h43zM1217 188h-453l6 27l377 541h39l-373 -535h412l39 189h34l-84 -410h-34zM125 838l33 8q17 -73 76.5 -114.5t150.5 -41.5q105 0 178 70q74 71 74 170q0 80 -56.5 130t-148.5 50q-41 0 -72 -8l-12 22l318 271h-369l6 32h426l-4 -24l-319 -268
q20 4 51 4q92 0 153.5 -59.5t61.5 -147.5q0 -111 -84 -195q-83 -80 -205 -80q-102 0 -171.5 49.5t-86.5 131.5z" />
    <glyph glyph-name="questiondown" unicode="&#xbf;" horiz-adv-x="788" 
d="M459 952q-37 0 -37 37q0 17 12 29t31 12q35 0 35 -35q0 -17 -12 -30t-29 -13zM-49 -178q0 -91 71.5 -148t188.5 -57q146 0 266 117l-8 -56q-108 -102 -260 -102q-135 0 -219 67.5t-84 176.5q0 106 55 190q15 29 68 72q58 48 75 57l97 60l78 43q63 34 92 53
q63 41 110 100.5t39 120.5q0 67 -50 108.5t-132 41.5q-65 0 -119 -31l8 45q58 27 113 27q103 0 163 -51.5t60 -137.5q9 -85 -84 -188q-17 -24 -59 -51q-18 -11 -38.5 -24.5t-21.5 -14.5l-71 -43q-15 -8 -31 -17t-23 -13t-10 -5l-108 -66q-30 -18 -80 -65q-86 -78 -86 -209z
" />
    <glyph glyph-name="Agrave" unicode="&#xc0;" horiz-adv-x="1302" 
d="M-31 0h-47l858 1427h39l279 -1427h-43l-84 432h-742zM791 1364l-537 -891h709zM807 1526h-37l-94 297h51z" />
    <glyph glyph-name="Aacute" unicode="&#xc1;" horiz-adv-x="1302" 
d="M-31 0h-47l858 1427h39l279 -1427h-43l-84 432h-742zM791 1364l-537 -891h709zM817 1526h-41l199 297h53z" />
    <glyph glyph-name="Acircumflex" unicode="&#xc2;" horiz-adv-x="1302" 
d="M-31 0h-47l858 1427h39l279 -1427h-43l-84 432h-742zM791 1364l-537 -891h709zM588 1575h-66l322 248h51l217 -248h-55l-187 215z" />
    <glyph glyph-name="Atilde" unicode="&#xc3;" horiz-adv-x="1302" 
d="M-31 0h-47l858 1427h39l279 -1427h-43l-84 432h-742zM791 1364l-537 -891h709zM575 1581l-38 4q24 59 70 95t104 36q61 0 127 -51q70 -49 120 -49q96 0 136 113l39 -5q-47 -147 -179 -147q-63 0 -133 49q-66 51 -119 51q-86 0 -127 -96z" />
    <glyph glyph-name="Adieresis" unicode="&#xc4;" horiz-adv-x="1302" 
d="M1036 1579q-37 0 -37 35q0 18 12.5 30.5t30.5 12.5q14 0 25.5 -11.5t11.5 -25.5q0 -17 -12 -29t-31 -12zM614 1579q-36 0 -36 35q0 18 12.5 30.5t30.5 12.5q13 0 24.5 -11.5t11.5 -25.5q0 -17 -12 -29t-31 -12zM-31 0h-47l858 1427h39l279 -1427h-43l-84 432h-742z
M791 1364l-537 -891h709z" />
    <glyph glyph-name="Aring" unicode="&#xc5;" horiz-adv-x="1290" 
d="M-31 0h-49l860 1427q-43 6 -69.5 37.5t-26.5 75.5q0 56 42 98.5t99 42.5q51 0 85 -32.5t34 -81.5q0 -56 -39.5 -98t-99.5 -42l280 -1427h-45l-86 432h-723zM805 1460q43 0 73.5 31.5t30.5 73.5q0 36 -24 59t-62 23q-41 0 -72.5 -32t-31.5 -73q0 -35 24.5 -58.5
t61.5 -23.5zM778 1343l-522 -870h690z" />
    <glyph glyph-name="AE" unicode="&#xc6;" horiz-adv-x="1964" 
d="M-41 0h-59l1390 1427h676l-8 -41h-645l-125 -610h606l-8 -41h-606l-142 -694h660l-8 -41h-705l82 401h-719zM1257 1335l-868 -893h686z" />
    <glyph glyph-name="Ccedilla" unicode="&#xc7;" horiz-adv-x="1490" 
d="M688 -16l-76 -121l19 2q49 0 77.5 -24.5t28.5 -67.5q0 -49 -37.5 -80t-97.5 -31q-76 0 -117 41l19 23q39 -33 98 -33q43 0 70.5 22.5t27.5 57.5q0 69 -98 69q-24 0 -45 -6l96 152q-253 35 -405 209q-152 178 -152 430q0 326 238 573q236 248 569 248q193 0 347 -84.5
t241 -233.5l-35 -26q-80 142 -226 222.5t-329 80.5q-315 0 -539 -236q-223 -235 -223 -542q0 -267 178 -439q179 -170 459 -170q296 0 510 205l29 -30q-232 -215 -543 -215q-18 0 -84 4z" />
    <glyph glyph-name="Egrave" unicode="&#xc8;" horiz-adv-x="1097" 
d="M823 0h-764l291 1427h750l-8 -41h-705l-125 -612h664l-8 -41h-664l-141 -692h718zM805 1526h-37l-94 297h51z" />
    <glyph glyph-name="Eacute" unicode="&#xc9;" horiz-adv-x="1097" 
d="M823 0h-764l291 1427h750l-8 -41h-705l-125 -612h664l-8 -41h-664l-141 -692h718zM750 1526h-41l198 297h54z" />
    <glyph glyph-name="Ecircumflex" unicode="&#xca;" horiz-adv-x="1097" 
d="M823 0h-764l291 1427h750l-8 -41h-705l-125 -612h664l-8 -41h-664l-141 -692h718zM522 1575h-65l321 248h51l218 -248h-56l-186 215z" />
    <glyph glyph-name="Edieresis" unicode="&#xcb;" horiz-adv-x="1097" 
d="M823 0h-764l291 1427h750l-8 -41h-705l-125 -612h664l-8 -41h-664l-141 -692h718zM975 1587q-37 0 -37 35q0 17 12 30t29 13q37 0 37 -37q0 -18 -11.5 -29.5t-29.5 -11.5zM553 1587q-37 0 -37 35q0 17 12 30t29 13q37 0 37 -37q0 -18 -11.5 -29.5t-29.5 -11.5z" />
    <glyph glyph-name="Igrave" unicode="&#xcc;" horiz-adv-x="471" 
d="M420 1526h-37l-94 297h51zM113 0h-45l290 1427h45z" />
    <glyph glyph-name="Iacute" unicode="&#xcd;" horiz-adv-x="471" 
d="M113 0h-45l290 1427h45zM424 1526h-41l199 297h53z" />
    <glyph glyph-name="Icircumflex" unicode="&#xce;" horiz-adv-x="471" 
d="M211 1575h-61l282 248h51l185 -248h-54l-157 213zM113 0h-45l290 1427h45z" />
    <glyph glyph-name="Idieresis" unicode="&#xcf;" horiz-adv-x="471" 
d="M582 1587q-37 0 -37 35q0 17 12 30t29 13q37 0 37 -37q0 -17 -12 -29t-29 -12zM248 1587q-37 0 -37 35q0 17 13 30t30 13q37 0 37 -37q0 -17 -12 -29t-31 -12zM113 0h-45l290 1427h45z" />
    <glyph glyph-name="Eth" unicode="&#xd0;" horiz-adv-x="1462" 
d="M588 0h-529l146 715h-115l10 41h113l137 671h359q289 0 471 -170t182 -434q0 -155 -52 -301.5t-149 -263.5q-96 -119 -246 -188.5t-327 -69.5zM250 715l-137 -674h477q224 0 395 115q166 114 250 286.5t84 378.5q0 252 -170 408q-171 157 -440 157h-322l-129 -630h297
l-10 -41h-295z" />
    <glyph glyph-name="Ntilde" unicode="&#xd1;" horiz-adv-x="1454" 
d="M104 0h-45l291 1427h37l688 -1345l275 1345h45l-291 -1427h-33l-692 1352zM655 1581l-39 4q24 59 70.5 95t104.5 36q61 0 127 -51q70 -49 120 -49q96 0 136 113l38 -5q-46 -147 -178 -147q-63 0 -133 49q-66 51 -119 51q-86 0 -127 -96z" />
    <glyph glyph-name="Ograve" unicode="&#xd2;" horiz-adv-x="1683" 
d="M96 627q0 326 238 573q236 248 569 248q303 0 492 -186q190 -184 190 -474q0 -205 -104 -391q-101 -182 -291 -301q-186 -116 -416 -116q-300 0 -489 180q-189 183 -189 467zM141 629q0 -266 176 -439q179 -170 459 -170q212 0 391 111q177 109 275 283.5t98 371.5
q0 272 -178 447q-177 174 -461 174q-312 0 -536 -236t-224 -542zM1006 1526h-37l-95 297h52z" />
    <glyph glyph-name="Oacute" unicode="&#xd3;" horiz-adv-x="1683" 
d="M96 627q0 326 238 573q236 248 569 248q303 0 492 -186q190 -184 190 -474q0 -205 -104 -391q-101 -182 -291 -301q-186 -116 -416 -116q-300 0 -489 180q-189 183 -189 467zM141 629q0 -266 176 -439q179 -170 459 -170q212 0 391 111q177 109 275 283.5t98 371.5
q0 272 -178 447q-177 174 -461 174q-312 0 -536 -236t-224 -542zM1006 1526h-41l198 297h54z" />
    <glyph glyph-name="Ocircumflex" unicode="&#xd4;" horiz-adv-x="1683" 
d="M768 1575h-66l322 248h51l217 -248h-55l-186 215zM96 627q0 326 238 573q236 248 569 248q303 0 492 -186q190 -184 190 -474q0 -205 -104 -391q-101 -182 -291 -301q-186 -116 -416 -116q-300 0 -489 180q-189 183 -189 467zM141 629q0 -266 176 -439q179 -170 459 -170
q212 0 391 111q177 109 275 283.5t98 371.5q0 272 -178 447q-177 174 -461 174q-312 0 -536 -236t-224 -542z" />
    <glyph glyph-name="Otilde" unicode="&#xd5;" horiz-adv-x="1683" 
d="M96 627q0 326 238 573q236 248 569 248q303 0 492 -186q190 -184 190 -474q0 -205 -104 -391q-101 -182 -291 -301q-186 -116 -416 -116q-300 0 -489 180q-189 183 -189 467zM141 629q0 -266 176 -439q179 -170 459 -170q212 0 391 111q177 109 275 283.5t98 371.5
q0 272 -178 447q-177 174 -461 174q-312 0 -536 -236t-224 -542zM750 1581l-39 4q24 59 70 95t104 36q61 0 127 -51q70 -49 121 -49q95 0 135 113l39 -5q-47 -147 -179 -147q-63 0 -133 49q-66 51 -118 51q-86 0 -127 -96z" />
    <glyph glyph-name="Odieresis" unicode="&#xd6;" horiz-adv-x="1683" 
d="M1188 1579q-37 0 -37 35q0 17 12 30t29 13q37 0 37 -37q0 -17 -12 -29t-29 -12zM764 1579q-35 0 -35 35q0 17 12 30t29 13q37 0 37 -37q0 -17 -12 -29t-31 -12zM96 627q0 326 238 573q236 248 569 248q303 0 492 -186q190 -184 190 -474q0 -205 -104 -391
q-101 -182 -291 -301q-186 -116 -416 -116q-300 0 -489 180q-189 183 -189 467zM141 629q0 -266 176 -439q179 -170 459 -170q212 0 391 111q177 109 275 283.5t98 371.5q0 272 -178 447q-177 174 -461 174q-312 0 -536 -236t-224 -542z" />
    <glyph glyph-name="multiply" unicode="&#xd7;" horiz-adv-x="819" 
d="M397 653l-303 -254l-24 33l303 254l-199 252l35 29l199 -254l301 252l26 -31l-305 -254l197 -252l-33 -27z" />
    <glyph glyph-name="Oslash" unicode="&#xd8;" horiz-adv-x="1683" 
d="M150 -53l-29 26l174 181q-199 181 -199 473q0 326 238 573q236 248 569 248q280 0 467 -166l182 191l31 -25l-184 -193q186 -180 186 -467q0 -205 -104 -391q-101 -182 -291 -301q-186 -116 -416 -116q-270 0 -450 149zM324 184l1017 1067q-179 156 -440 156
q-312 0 -536 -236t-224 -542q0 -271 183 -445zM1368 1223l-1014 -1063q175 -140 422 -140q212 0 391 111q177 109 275 283.5t98 371.5q0 268 -172 437z" />
    <glyph glyph-name="Ugrave" unicode="&#xd9;" 
d="M135 381q0 48 12 113l191 933h45l-193 -946q-10 -55 -10 -100q0 -155 109 -258q110 -98 286 -98q387 0 472 411l200 991h45l-202 -999q-88 -444 -519 -444q-190 0 -313 108t-123 289zM846 1526h-37l-94 297h51z" />
    <glyph glyph-name="Uacute" unicode="&#xda;" 
d="M135 381q0 48 12 113l191 933h45l-193 -946q-10 -55 -10 -100q0 -155 109 -258q110 -98 286 -98q387 0 472 411l200 991h45l-202 -999q-88 -444 -519 -444q-190 0 -313 108t-123 289zM813 1526h-41l199 297h53z" />
    <glyph glyph-name="Ucircumflex" unicode="&#xdb;" 
d="M135 381q0 48 12 113l191 933h45l-193 -946q-10 -55 -10 -100q0 -155 109 -258q110 -98 286 -98q387 0 472 411l200 991h45l-202 -999q-88 -444 -519 -444q-190 0 -313 108t-123 289zM598 1575h-66l322 248h51l217 -248h-55l-186 215z" />
    <glyph glyph-name="Udieresis" unicode="&#xdc;" 
d="M135 381q0 48 12 113l191 933h45l-193 -946q-10 -55 -10 -100q0 -155 109 -258q110 -98 286 -98q387 0 472 411l200 991h45l-202 -999q-88 -444 -519 -444q-190 0 -313 108t-123 289zM1044 1579q-34 0 -34 35q0 17 12 30t29 13q36 0 36 -37q0 -17 -12 -29t-31 -12z
M623 1579q-35 0 -35 35q0 17 12 30t29 13q37 0 37 -37q0 -17 -12 -29t-31 -12z" />
    <glyph glyph-name="Yacute" unicode="&#xdd;" horiz-adv-x="1157" 
d="M455 0h-45l127 618l-330 809h47l311 -763l619 763h53l-657 -815zM709 1526h-41l198 297h54z" />
    <glyph glyph-name="Thorn" unicode="&#xde;" horiz-adv-x="897" 
d="M104 0h-45l291 1427h45l-69 -331h112q159 0 262 -92q105 -91 105 -234q0 -174 -123 -315q-125 -140 -309 -140h-205zM319 1055l-143 -697h197q166 0 276 125q111 126 111 285q0 125 -92 206t-234 81h-115z" />
    <glyph glyph-name="germandbls" unicode="&#xdf;" horiz-adv-x="1103" 
d="M29 0h-43l227 1112q22 105 84 201q39 61 107 96t153 35q127 0 211 -84t84 -209q0 -92 -56 -173t-147 -122q141 -24 234 -131q94 -104 94 -250q0 -199 -148 -350q-149 -152 -372 -152q-105 0 -154 19l8 39q59 -17 150 -17q199 0 336 140q135 141 135 317q0 146 -103 246
q-101 101 -264 110q-40 -9 -94 -12l6 39q141 3 236 92q94 91 94 203q0 110 -72.5 182t-181.5 72q-72 0 -130 -31.5t-91 -83.5q-62 -98 -76 -178z" />
    <glyph glyph-name="agrave" unicode="&#xe0;" horiz-adv-x="1251" 
d="M35 449q0 233 166 417q166 187 413 187q182 0 312 -95q130 -92 151 -241l66 315h43l-211 -1032h-43l51 254q-75 -131 -196 -202.5t-277 -71.5q-213 0 -344 131t-131 338zM78 451q0 -191 121 -312q119 -119 315 -119q240 0 385 183q148 183 148 428q0 168 -123 276
q-119 107 -314 107q-232 0 -381 -174q-151 -174 -151 -389zM725 1130h-37l-94 297h51z" />
    <glyph glyph-name="aacute" unicode="&#xe1;" horiz-adv-x="1251" 
d="M35 449q0 233 166 417q166 187 413 187q182 0 312 -95q130 -92 151 -241l66 315h43l-211 -1032h-43l51 254q-75 -131 -196 -202.5t-277 -71.5q-213 0 -344 131t-131 338zM78 451q0 -191 121 -312q119 -119 315 -119q240 0 385 183q148 183 148 428q0 168 -123 276
q-119 107 -314 107q-232 0 -381 -174q-151 -174 -151 -389zM696 1130h-41l199 297h53z" />
    <glyph glyph-name="acircumflex" unicode="&#xe2;" horiz-adv-x="1251" 
d="M35 449q0 233 166 417q166 187 413 187q182 0 312 -95q130 -92 151 -241l66 315h43l-211 -1032h-43l51 254q-75 -131 -196 -202.5t-277 -71.5q-213 0 -344 131t-131 338zM78 451q0 -191 121 -312q119 -119 315 -119q240 0 385 183q148 183 148 428q0 168 -123 276
q-119 107 -314 107q-232 0 -381 -174q-151 -174 -151 -389zM481 1180h-65l321 247h51l218 -247h-56l-186 215z" />
    <glyph glyph-name="atilde" unicode="&#xe3;" horiz-adv-x="1251" 
d="M35 449q0 233 166 417q166 187 413 187q182 0 312 -95q130 -92 151 -241l66 315h43l-211 -1032h-43l51 254q-75 -131 -196 -202.5t-277 -71.5q-213 0 -344 131t-131 338zM78 451q0 -191 121 -312q119 -119 315 -119q240 0 385 183q148 183 148 428q0 168 -123 276
q-119 107 -314 107q-232 0 -381 -174q-151 -174 -151 -389zM479 1229l-39 4q24 59 70 95t104 36q61 0 127 -51q70 -49 121 -49q95 0 135 112l39 -4q-46 -147 -178 -147q-63 0 -133 49q-66 51 -119 51q-86 0 -127 -96z" />
    <glyph glyph-name="adieresis" unicode="&#xe4;" horiz-adv-x="1251" 
d="M948 1272q-37 0 -37 37q0 17 12 29t29 12q37 0 37 -35q0 -18 -11.5 -30.5t-29.5 -12.5zM526 1272q-37 0 -37 37q0 17 12 29t29 12q37 0 37 -35q0 -18 -11.5 -30.5t-29.5 -12.5zM35 449q0 233 166 417q166 187 413 187q182 0 312 -95q130 -92 151 -241l66 315h43
l-211 -1032h-43l51 254q-75 -131 -196 -202.5t-277 -71.5q-213 0 -344 131t-131 338zM78 451q0 -191 121 -312q119 -119 315 -119q240 0 385 183q148 183 148 428q0 168 -123 276q-119 107 -314 107q-232 0 -381 -174q-151 -174 -151 -389z" />
    <glyph glyph-name="aring" unicode="&#xe5;" horiz-adv-x="1251" 
d="M35 449q0 233 166 417q166 187 413 187q182 0 312 -95q130 -92 151 -241l66 315h43l-211 -1032h-43l51 254q-75 -131 -196 -202.5t-277 -71.5q-213 0 -344 131t-131 338zM78 451q0 -191 121 -312q119 -119 315 -119q240 0 385 183q148 183 148 428q0 168 -123 276
q-119 107 -314 107q-232 0 -381 -174q-151 -174 -151 -389zM727 1153q-54 0 -87.5 32t-33.5 83q0 60 42 103.5t102 43.5q55 0 88.5 -32.5t33.5 -86.5q0 -58 -41.5 -100.5t-103.5 -42.5zM731 1190q42 0 72.5 31.5t30.5 70.5q0 35 -24.5 59.5t-61.5 24.5q-41 0 -72 -31.5
t-31 -72.5q0 -35 24.5 -58.5t61.5 -23.5z" />
    <glyph glyph-name="ae" unicode="&#xe6;" horiz-adv-x="1878" 
d="M-4 238q0 84 32.5 150.5t84.5 103.5q54 37 125 57q72 22 132.5 28.5t155.5 8.5q211 6 285 71q49 46 49 140t-77.5 155.5t-198.5 61.5q-235 0 -334 -205l-33 18q51 108 148 167t221 59q131 0 221 -72t90 -170q0 -25 -2 -31q67 123 186 197t254 74q189 0 307 -127
q119 -125 119 -322q0 -46 -10 -94h-917q-9 -47 -9 -96q0 -173 109 -285q112 -109 291 -109q192 0 340 142l26 -29q-165 -151 -368 -151q-157 0 -271.5 80.5t-146.5 220.5q-102 -301 -483 -301q-153 0 -239.5 68.5t-86.5 189.5zM842 547h872q6 27 6 63q0 176 -108 287
q-107 113 -279 113q-175 0 -313 -129q-134 -125 -178 -334zM39 242q0 -104 76.5 -164t210.5 -60q185 0 303 86t155 246q-2 12 -2 60q0 122 33 204q-72 -63 -295 -69q-104 -2 -177.5 -14.5t-147.5 -43.5q-156 -61 -156 -245z" />
    <glyph glyph-name="ccedilla" unicode="&#xe7;" horiz-adv-x="1089" 
d="M285 -297l18 29q39 -33 96 -33q42 0 70.5 21.5t28.5 52.5q0 67 -95 67q-24 0 -51 -6l97 152q-186 21 -302 149q-112 127 -112 318q0 244 174 421q176 179 416 179q139 0 252 -60t176 -166l-31 -26q-60 100 -164.5 156.5t-232.5 56.5q-223 0 -385 -168
q-162 -165 -162 -391q0 -197 125 -316q127 -121 329 -121q213 0 365 146l27 -29q-165 -155 -394 -155q-31 0 -41 2l-69 -109h6q115 0 115 -100q0 -49 -39.5 -80t-102.5 -31q-76 0 -114 41z" />
    <glyph glyph-name="egrave" unicode="&#xe8;" horiz-adv-x="1150" 
d="M33 428q0 246 164 434q168 189 401 189q195 0 317 -125q123 -126 123 -322q0 -44 -10 -96h-948q-4 -28 -4 -76q0 -187 114 -301q118 -115 308 -115q204 0 356 146l27 -29q-159 -156 -385 -156q-211 0 -336 125q-127 127 -127 326zM88 547h903q4 36 4 65q0 178 -112 287
q-110 113 -287 113q-183 0 -326 -131q-142 -133 -182 -334zM696 1130h-37l-94 297h51z" />
    <glyph glyph-name="eacute" unicode="&#xe9;" horiz-adv-x="1150" 
d="M33 428q0 246 164 434q168 189 401 189q195 0 317 -125q123 -126 123 -322q0 -44 -10 -96h-948q-4 -28 -4 -76q0 -187 114 -301q118 -115 308 -115q204 0 356 146l27 -29q-159 -156 -385 -156q-211 0 -336 125q-127 127 -127 326zM88 547h903q4 36 4 65q0 178 -112 287
q-110 113 -287 113q-183 0 -326 -131q-142 -133 -182 -334zM643 1130h-41l199 297h53z" />
    <glyph glyph-name="ecircumflex" unicode="&#xea;" horiz-adv-x="1150" 
d="M33 428q0 246 164 434q168 189 401 189q195 0 317 -125q123 -126 123 -322q0 -44 -10 -96h-948q-4 -28 -4 -76q0 -187 114 -301q118 -115 308 -115q204 0 356 146l27 -29q-159 -156 -385 -156q-211 0 -336 125q-127 127 -127 326zM88 547h903q4 36 4 65q0 178 -112 287
q-110 113 -287 113q-183 0 -326 -131q-142 -133 -182 -334zM432 1180h-65l321 247h51l217 -247h-55l-186 215z" />
    <glyph glyph-name="edieresis" unicode="&#xeb;" horiz-adv-x="1150" 
d="M905 1272q-35 0 -35 37q0 17 12 29t29 12q37 0 37 -35q0 -18 -12.5 -30.5t-30.5 -12.5zM483 1272q-34 0 -34 37q0 17 11.5 29t28.5 12q37 0 37 -35q0 -18 -12.5 -30.5t-30.5 -12.5zM33 428q0 246 164 434q168 189 401 189q195 0 317 -125q123 -126 123 -322
q0 -44 -10 -96h-948q-4 -28 -4 -76q0 -187 114 -301q118 -115 308 -115q204 0 356 146l27 -29q-159 -156 -385 -156q-211 0 -336 125q-127 127 -127 326zM88 547h903q4 36 4 65q0 178 -112 287q-110 113 -287 113q-183 0 -326 -131q-142 -133 -182 -334z" />
    <glyph glyph-name="igrave" unicode="&#xec;" horiz-adv-x="313" 
d="M33 0h-43l211 1032h43zM260 1130h-37l-94 297h51z" />
    <glyph glyph-name="iacute" unicode="&#xed;" horiz-adv-x="313" 
d="M33 0h-43l211 1032h43zM262 1130h-41l199 297h53z" />
    <glyph glyph-name="icircumflex" unicode="&#xee;" horiz-adv-x="313" 
d="M70 1180h-60l262 247h52l163 -247h-51l-139 213zM33 0h-43l211 1032h43z" />
    <glyph glyph-name="idieresis" unicode="&#xef;" horiz-adv-x="313" 
d="M379 1272q-37 0 -37 37q0 17 12 29t31 12q37 0 37 -35q0 -18 -12.5 -30.5t-30.5 -12.5zM164 1272q-37 0 -37 37q0 17 13 29t30 12q37 0 37 -35q0 -18 -12.5 -30.5t-30.5 -12.5zM33 0h-43l211 1032h43z" />
    <glyph glyph-name="eth" unicode="&#xf0;" horiz-adv-x="1087" 
d="M23 391q0 209 147 359q151 151 354 151q164 0 277 -90q113 -88 131 -221q4 70 4 86q-3 316 -231 528l-226 -182l-24 31l221 176q-138 117 -293 157l12 41q183 -54 314 -170l229 185l23 -31l-224 -178q240 -225 240 -569q0 -106 -35 -258q-46 -184 -178 -304
q-131 -116 -320 -116q-187 0 -305 112q-116 113 -116 293zM68 393q0 -165 104 -266q106 -100 274 -100q193 0 326 145t133 324q0 160 -106 260q-108 102 -273 102q-187 0 -323 -139q-135 -138 -135 -326z" />
    <glyph glyph-name="ntilde" unicode="&#xf1;" horiz-adv-x="1128" 
d="M31 0h-43l211 1032h41l-43 -215q55 111 158 172.5t243 61.5q172 0 273.5 -100.5t101.5 -268.5q0 -66 -12 -127l-33 -156l-56 -270q-24 -126 -24 -129h-43q0 12 51 266l59 289q15 70 15 121q0 155 -92 244.5t-250 89.5q-171 0 -284.5 -109t-156.5 -319zM426 1229l-39 4
q24 59 70 95t104 36q61 0 127 -51q70 -49 121 -49q95 0 135 112l39 -4q-47 -147 -178 -147q-63 0 -133 49q-66 51 -119 51q-86 0 -127 -96z" />
    <glyph glyph-name="ograve" unicode="&#xf2;" horiz-adv-x="1243" 
d="M35 451q0 246 174 423q176 179 418 179q220 0 358 -135q139 -133 139 -347q4 -108 -40.5 -215t-122.5 -191t-192.5 -135.5t-240.5 -49.5q-219 0 -356 131t-137 340zM78 455q0 -194 125 -316q127 -121 329 -121q237 0 392 168q157 171 157 381q0 196 -129 322
q-125 125 -329 125q-223 0 -385 -168q-160 -168 -160 -391zM727 1130h-37l-94 297h51z" />
    <glyph glyph-name="oacute" unicode="&#xf3;" horiz-adv-x="1243" 
d="M35 451q0 246 174 423q176 179 418 179q220 0 358 -135q139 -133 139 -347q4 -108 -40.5 -215t-122.5 -191t-192.5 -135.5t-240.5 -49.5q-219 0 -356 131t-137 340zM78 455q0 -194 125 -316q127 -121 329 -121q237 0 392 168q157 171 157 381q0 196 -129 322
q-125 125 -329 125q-223 0 -385 -168q-160 -168 -160 -391zM702 1130h-40l198 297h53z" />
    <glyph glyph-name="ocircumflex" unicode="&#xf4;" horiz-adv-x="1243" 
d="M463 1180h-66l322 247h51l217 -247h-55l-187 215zM35 451q0 246 174 423q176 179 418 179q220 0 358 -135q139 -133 139 -347q4 -108 -40.5 -215t-122.5 -191t-192.5 -135.5t-240.5 -49.5q-219 0 -356 131t-137 340zM78 455q0 -194 125 -316q127 -121 329 -121
q237 0 392 168q157 171 157 381q0 196 -129 322q-125 125 -329 125q-223 0 -385 -168q-160 -168 -160 -391z" />
    <glyph glyph-name="otilde" unicode="&#xf5;" horiz-adv-x="1243" 
d="M35 451q0 246 174 423q176 179 418 179q220 0 358 -135q139 -133 139 -347q4 -108 -40.5 -215t-122.5 -191t-192.5 -135.5t-240.5 -49.5q-219 0 -356 131t-137 340zM78 455q0 -194 125 -316q127 -121 329 -121q237 0 392 168q157 171 157 381q0 196 -129 322
q-125 125 -329 125q-223 0 -385 -168q-160 -168 -160 -391zM457 1229l-39 4q24 59 70 95t104 36q61 0 127 -51q70 -49 121 -49q95 0 135 112l39 -4q-46 -147 -178 -147q-64 0 -134 49q-66 51 -118 51q-86 0 -127 -96z" />
    <glyph glyph-name="odieresis" unicode="&#xf6;" horiz-adv-x="1243" 
d="M930 1272q-37 0 -37 37q0 17 12 29t31 12q37 0 37 -35q0 -18 -12.5 -30.5t-30.5 -12.5zM508 1272q-37 0 -37 37q0 17 12 29t31 12q37 0 37 -35q0 -18 -12.5 -30.5t-30.5 -12.5zM35 451q0 246 174 423q176 179 418 179q220 0 358 -135q139 -133 139 -347
q4 -108 -40.5 -215t-122.5 -191t-192.5 -135.5t-240.5 -49.5q-219 0 -356 131t-137 340zM78 455q0 -194 125 -316q127 -121 329 -121q237 0 392 168q157 171 157 381q0 196 -129 322q-125 125 -329 125q-223 0 -385 -168q-160 -168 -160 -391z" />
    <glyph glyph-name="divide" unicode="&#xf7;" horiz-adv-x="905" 
d="M494 891q-37 0 -37 37q0 17 12 29t29 12q37 0 37 -35q0 -18 -11.5 -30.5t-29.5 -12.5zM799 696h-701l8 39h701zM406 463q-37 0 -37 35q0 18 12.5 30.5t30.5 12.5q22 0 31.5 -19.5t-0.5 -39t-37 -19.5z" />
    <glyph glyph-name="oslash" unicode="&#xf8;" horiz-adv-x="1243" 
d="M82 -51l-29 26l123 134q-141 129 -141 342q0 246 174 423q176 179 418 179q200 0 331 -113l123 131l29 -27l-123 -129q137 -137 137 -344q4 -108 -40.5 -215t-122.5 -191t-192.5 -135.5t-240.5 -49.5q-189 0 -321 102zM205 139l725 770q-126 105 -307 105
q-223 0 -385 -168q-160 -168 -160 -391q0 -195 127 -316zM958 883l-722 -770q121 -95 296 -95q237 0 392 168q157 171 157 381q0 193 -123 316z" />
    <glyph glyph-name="ugrave" unicode="&#xf9;" horiz-adv-x="1077" 
d="M41 330q0 34 12 96l121 606h43l-121 -606q-10 -58 -10 -96q0 -138 95 -224t253 -86q342 0 412 357l133 655h43l-133 -663q-79 -389 -457 -389q-172 0 -282 96q-109 95 -109 254zM627 1130h-37l-94 297h51z" />
    <glyph glyph-name="uacute" unicode="&#xfa;" horiz-adv-x="1077" 
d="M41 330q0 34 12 96l121 606h43l-121 -606q-10 -58 -10 -96q0 -138 95 -224t253 -86q342 0 412 357l133 655h43l-133 -663q-79 -389 -457 -389q-172 0 -282 96q-109 95 -109 254zM592 1130h-41l199 297h53z" />
    <glyph glyph-name="ucircumflex" unicode="&#xfb;" horiz-adv-x="1077" 
d="M41 330q0 34 12 96l121 606h43l-121 -606q-10 -58 -10 -96q0 -138 95 -224t253 -86q342 0 412 357l133 655h43l-133 -663q-79 -389 -457 -389q-172 0 -282 96q-109 95 -109 254zM383 1180h-66l322 247h51l217 -247h-55l-186 215z" />
    <glyph glyph-name="udieresis" unicode="&#xfc;" horiz-adv-x="1077" 
d="M41 330q0 34 12 96l121 606h43l-121 -606q-10 -58 -10 -96q0 -138 95 -224t253 -86q342 0 412 357l133 655h43l-133 -663q-79 -389 -457 -389q-172 0 -282 96q-109 95 -109 254zM838 1272q-37 0 -37 37q0 17 12 29t29 12q37 0 37 -35q0 -17 -12 -30t-29 -13zM418 1272
q-37 0 -37 37q0 17 12 29t29 12q37 0 37 -35q0 -17 -12 -30t-29 -13z" />
    <glyph glyph-name="yacute" unicode="&#xfd;" horiz-adv-x="980" 
d="M55 -395l254 407l-196 1020h43l186 -966l608 966h49l-897 -1427h-47zM553 1130h-41l199 297h53z" />
    <glyph glyph-name="thorn" unicode="&#xfe;" horiz-adv-x="1245" 
d="M98 338l-149 -733h-41l371 1822h40l-131 -643q75 127 193.5 198t265.5 71q210 0 346 -133q137 -131 137 -340q0 -233 -165 -416q-166 -184 -418 -184q-183 0 -301 100q-121 103 -148 258zM127 444q0 -187 117 -307q117 -117 303 -117q232 0 385 170q155 171 155 388
q0 195 -124 313q-123 123 -320 123q-211 0 -364 -170q-152 -172 -152 -400z" />
    <glyph glyph-name="ydieresis" unicode="&#xff;" horiz-adv-x="980" 
d="M784 1272q-36 0 -36 37q0 17 13 29t30 12q36 0 36 -35q0 -18 -12.5 -30.5t-30.5 -12.5zM362 1272q-36 0 -36 37q0 17 13 29t30 12q37 0 37 -35q0 -17 -13 -30t-31 -13zM55 -395l254 407l-196 1020h43l186 -966l608 966h49l-897 -1427h-47z" />
    <glyph glyph-name="Amacron" unicode="&#x100;" horiz-adv-x="1302" 
d="M1104 1575h-602l10 41h602zM-31 0h-47l858 1427h39l279 -1427h-43l-84 432h-742zM791 1364l-537 -891h709z" />
    <glyph glyph-name="amacron" unicode="&#x101;" horiz-adv-x="1251" 
d="M35 449q0 233 166 417q166 187 413 187q182 0 312 -95q130 -92 151 -241l66 315h43l-211 -1032h-43l51 254q-75 -131 -196 -202.5t-277 -71.5q-213 0 -344 131t-131 338zM78 451q0 -191 121 -312q119 -119 315 -119q240 0 385 183q148 183 148 428q0 168 -123 276
q-119 107 -314 107q-232 0 -381 -174q-151 -174 -151 -389zM1032 1260h-602l8 40h602z" />
    <glyph glyph-name="Abreve" unicode="&#x102;" horiz-adv-x="1302" 
d="M-31 0h-47l858 1427h39l279 -1427h-43l-84 432h-742zM791 1364l-537 -891h709zM815 1536q-87 0 -135.5 49.5t-48.5 140.5h41q3 -151 149 -151q148 0 207 151h41q-29 -90 -96 -140t-158 -50z" />
    <glyph glyph-name="abreve" unicode="&#x103;" horiz-adv-x="1251" 
d="M35 449q0 233 166 417q166 187 413 187q182 0 312 -95q130 -92 151 -241l66 315h43l-211 -1032h-43l51 254q-75 -131 -196 -202.5t-277 -71.5q-213 0 -344 131t-131 338zM78 451q0 -191 121 -312q119 -119 315 -119q240 0 385 183q148 183 148 428q0 168 -123 276
q-119 107 -314 107q-232 0 -381 -174q-151 -174 -151 -389zM719 1237q-87 0 -135.5 49.5t-48.5 140.5h40q3 -151 150 -151q148 0 207 151h41q-29 -90 -96 -140t-158 -50z" />
    <glyph glyph-name="Aogonek" unicode="&#x104;" horiz-adv-x="1300" 
d="M-31 0h-47l858 1427h39l277 -1427q-228 -120 -228 -246q0 -43 28 -68.5t75 -25.5q59 0 125 29l-17 -39q-55 -25 -116 -25q-60 0 -97 34t-37 89q0 77 63 144.5t161 113.5v2l-82 424h-742zM791 1364l-537 -891h709z" />
    <glyph glyph-name="aogonek" unicode="&#x105;" horiz-adv-x="1251" 
d="M35 449q0 233 166 417q166 187 413 187q182 0 312 -95q130 -92 151 -241l66 315h43l-211 -1032l-101 -57q-33 -22 -81 -80q-43 -52 -43 -109q0 -43 26.5 -67.5t75.5 -24.5q63 0 123 31l-17 -43q-55 -25 -114 -25q-61 0 -98 33.5t-37 89.5q0 77 63.5 148t161.5 116v2
l49 240q-75 -131 -196 -202.5t-277 -71.5q-213 0 -344 131t-131 338zM78 451q0 -191 121 -312q119 -119 315 -119q240 0 385 183q148 183 148 428q0 168 -123 276q-119 107 -314 107q-232 0 -381 -174q-151 -174 -151 -389z" />
    <glyph glyph-name="Cacute" unicode="&#x106;" horiz-adv-x="1490" 
d="M96 627q0 326 238 573q236 248 569 248q193 0 347 -84.5t241 -233.5l-35 -26q-80 142 -226 222.5t-329 80.5q-315 0 -539 -236q-223 -235 -223 -542q0 -267 178 -439q179 -170 459 -170q296 0 510 205l29 -30q-232 -215 -543 -215q-301 0 -487 180q-189 183 -189 467z
M1022 1526h-41l199 297h53z" />
    <glyph glyph-name="cacute" unicode="&#x107;" horiz-adv-x="1089" 
d="M35 453q0 244 174 421q176 179 416 179q139 0 252 -60t176 -166l-31 -26q-60 100 -164.5 156.5t-232.5 56.5q-223 0 -385 -168q-162 -165 -162 -391q0 -197 125 -316q127 -121 329 -121q213 0 365 146l27 -29q-165 -155 -394 -155q-221 0 -358 131t-137 342zM707 1130
h-41l198 297h54z" />
    <glyph glyph-name="Ccircumflex" unicode="&#x108;" horiz-adv-x="1490" 
d="M750 1575h-66l322 248h51l217 -248h-55l-187 215zM96 627q0 326 238 573q236 248 569 248q193 0 347 -84.5t241 -233.5l-35 -26q-80 142 -226 222.5t-329 80.5q-315 0 -539 -236q-223 -235 -223 -542q0 -267 178 -439q179 -170 459 -170q296 0 510 205l29 -30
q-232 -215 -543 -215q-301 0 -487 180q-189 183 -189 467z" />
    <glyph glyph-name="ccircumflex" unicode="&#x109;" horiz-adv-x="1089" 
d="M453 1180h-66l322 247h51l217 -247h-55l-187 215zM35 453q0 244 174 421q176 179 416 179q139 0 252 -60t176 -166l-31 -26q-60 100 -164.5 156.5t-232.5 56.5q-223 0 -385 -168q-162 -165 -162 -391q0 -197 125 -316q127 -121 329 -121q213 0 365 146l27 -29
q-165 -155 -394 -155q-221 0 -358 131t-137 342z" />
    <glyph glyph-name="Cdotaccent" unicode="&#x10a;" horiz-adv-x="1490" 
d="M995 1587q-37 0 -37 35q0 18 12.5 30.5t30.5 12.5q37 0 37 -37q0 -17 -12 -29t-31 -12zM96 627q0 326 238 573q236 248 569 248q193 0 347 -84.5t241 -233.5l-35 -26q-80 142 -226 222.5t-329 80.5q-315 0 -539 -236q-223 -235 -223 -542q0 -267 178 -439
q179 -170 459 -170q296 0 510 205l29 -30q-232 -215 -543 -215q-301 0 -487 180q-189 183 -189 467z" />
    <glyph glyph-name="cdotaccent" unicode="&#x10b;" horiz-adv-x="1089" 
d="M715 1274q-35 0 -35 33q0 19 13 31t32 12q35 0 35 -33q0 -19 -13 -31t-32 -12zM35 453q0 244 174 421q176 179 416 179q139 0 252 -60t176 -166l-31 -26q-60 100 -164.5 156.5t-232.5 56.5q-223 0 -385 -168q-162 -165 -162 -391q0 -197 125 -316q127 -121 329 -121
q213 0 365 146l27 -29q-165 -155 -394 -155q-221 0 -358 131t-137 342z" />
    <glyph glyph-name="Ccaron" unicode="&#x10c;" horiz-adv-x="1490" 
d="M1012 1575h-51l-218 248h56l186 -215l283 215h65zM96 627q0 326 238 573q236 248 569 248q193 0 347 -84.5t241 -233.5l-35 -26q-80 142 -226 222.5t-329 80.5q-315 0 -539 -236q-223 -235 -223 -542q0 -267 178 -439q179 -170 459 -170q296 0 510 205l29 -30
q-232 -215 -543 -215q-301 0 -487 180q-189 183 -189 467z" />
    <glyph glyph-name="ccaron" unicode="&#x10d;" horiz-adv-x="1089" 
d="M717 1180h-51l-217 247h55l186 -215l283 215h65zM35 453q0 244 174 421q176 179 416 179q139 0 252 -60t176 -166l-31 -26q-60 100 -164.5 156.5t-232.5 56.5q-223 0 -385 -168q-162 -165 -162 -391q0 -197 125 -316q127 -121 329 -121q213 0 365 146l27 -29
q-165 -155 -394 -155q-221 0 -358 131t-137 342z" />
    <glyph glyph-name="Dcaron" unicode="&#x10e;" horiz-adv-x="1462" 
d="M588 0h-529l291 1427h359q289 0 471 -170t182 -434q0 -155 -52 -301.5t-149 -263.5q-96 -119 -246 -188.5t-327 -69.5zM387 1386l-274 -1345h477q224 0 395 115q166 114 250 286.5t84 378.5q0 252 -170 408q-171 157 -440 157h-322zM903 1575h-51l-217 248h55l187 -215
l282 215h66z" />
    <glyph glyph-name="dcaron" unicode="&#x10f;" horiz-adv-x="1490" 
d="M35 449q0 233 166 417q166 187 413 187q182 0 312 -95q130 -92 151 -241l146 710h43l-291 -1427h-43l51 254q-75 -131 -196 -202.5t-277 -71.5q-213 0 -344 131t-131 338zM78 451q0 -191 121 -312q119 -119 315 -119q240 0 385 183q148 183 148 428q0 168 -123 276
q-119 107 -314 107q-232 0 -381 -174q-151 -174 -151 -389zM1325 1130h-41l199 297h53z" />
    <glyph glyph-name="Dcroat" unicode="&#x110;" horiz-adv-x="1462" 
d="M588 0h-529l146 715h-115l10 41h113l137 671h359q289 0 471 -170t182 -434q0 -155 -52 -301.5t-149 -263.5q-96 -119 -246 -188.5t-327 -69.5zM250 715l-137 -674h477q224 0 395 115q166 114 250 286.5t84 378.5q0 252 -170 408q-171 157 -440 157h-322l-129 -630h297
l-10 -41h-295z" />
    <glyph glyph-name="dslash" unicode="&#x111;" horiz-adv-x="1245" 
d="M35 449q0 233 166 417q166 187 413 187q182 0 312 -95q130 -92 151 -241l103 506h-498l8 37h498l35 167h43l-35 -167h108l-8 -37h-108l-248 -1223h-43l51 254q-75 -131 -196 -202.5t-277 -71.5q-213 0 -344 131t-131 338zM78 451q0 -191 121 -312q119 -119 315 -119
q240 0 385 183q148 183 148 428q0 168 -123 276q-119 107 -314 107q-232 0 -381 -174q-151 -174 -151 -389z" />
    <glyph glyph-name="Emacron" unicode="&#x112;" horiz-adv-x="1097" 
d="M1049 1575h-603l11 41h602zM823 0h-764l291 1427h750l-8 -41h-705l-125 -612h664l-8 -41h-664l-141 -692h718z" />
    <glyph glyph-name="emacron" unicode="&#x113;" horiz-adv-x="1150" 
d="M33 428q0 246 164 434q168 189 401 189q195 0 317 -125q123 -126 123 -322q0 -44 -10 -96h-948q-4 -28 -4 -76q0 -187 114 -301q118 -115 308 -115q204 0 356 146l27 -29q-159 -156 -385 -156q-211 0 -336 125q-127 127 -127 326zM88 547h903q4 36 4 65q0 178 -112 287
q-110 113 -287 113q-183 0 -326 -131q-142 -133 -182 -334zM971 1260h-602l8 40h602z" />
    <glyph glyph-name="Ebreve" unicode="&#x114;" horiz-adv-x="1097" 
d="M823 0h-764l291 1427h750l-8 -41h-705l-125 -612h664l-8 -41h-664l-141 -692h718zM752 1536q-87 0 -136 49.5t-49 140.5h41q3 -151 150 -151q148 0 207 151h41q-29 -90 -96 -140t-158 -50z" />
    <glyph glyph-name="ebreve" unicode="&#x115;" horiz-adv-x="1150" 
d="M33 428q0 246 164 434q168 189 401 189q195 0 317 -125q123 -126 123 -322q0 -44 -10 -96h-948q-4 -28 -4 -76q0 -187 114 -301q118 -115 308 -115q204 0 356 146l27 -29q-159 -156 -385 -156q-211 0 -336 125q-127 127 -127 326zM88 547h903q4 36 4 65q0 178 -112 287
q-110 113 -287 113q-183 0 -326 -131q-142 -133 -182 -334zM664 1237q-87 0 -136 49.5t-49 140.5h41q3 -151 150 -151q148 0 207 151h41q-29 -90 -96 -140t-158 -50z" />
    <glyph glyph-name="Edotaccent" unicode="&#x116;" horiz-adv-x="1097" 
d="M823 0h-764l291 1427h750l-8 -41h-705l-125 -612h664l-8 -41h-664l-141 -692h718zM756 1587q-35 0 -35 35q0 17 12 30t29 13q37 0 37 -37q0 -17 -12 -29t-31 -12z" />
    <glyph glyph-name="edotaccent" unicode="&#x117;" horiz-adv-x="1150" 
d="M33 428q0 246 164 434q168 189 401 189q195 0 317 -125q123 -126 123 -322q0 -44 -10 -96h-948q-4 -28 -4 -76q0 -187 114 -301q118 -115 308 -115q204 0 356 146l27 -29q-159 -156 -385 -156q-211 0 -336 125q-127 127 -127 326zM88 547h903q4 36 4 65q0 178 -112 287
q-110 113 -287 113q-183 0 -326 -131q-142 -133 -182 -334zM666 1272q-37 0 -37 37q0 17 12 29t29 12q37 0 37 -35q0 -17 -12 -30t-29 -13z" />
    <glyph glyph-name="Eogonek" unicode="&#x118;" horiz-adv-x="1097" 
d="M766 0h-707l291 1427h750l-8 -41h-705l-125 -612h664l-8 -41h-664l-141 -692h718l-8 -41q-225 -120 -225 -246q0 -42 26.5 -66t73.5 -24q59 0 125 29l-18 -43q-52 -25 -115 -25q-61 0 -97 33.5t-36 89.5q0 157 209 252z" />
    <glyph glyph-name="eogonek" unicode="&#x119;" horiz-adv-x="1150" 
d="M406 -227q0 118 157 213q-27 -9 -76 -9q-205 3 -329 127q-125 125 -125 324q0 246 164 434q168 189 401 189q195 0 317 -125q123 -126 123 -322q0 -44 -10 -96h-948q-4 -28 -4 -76q0 -187 114 -301q118 -115 308 -115q206 0 358 146l25 -29q-83 -80 -183 -117
q-104 -41 -176 -102q-76 -64 -76 -135q0 -41 28 -65.5t75 -24.5q67 0 125 28l-19 -43q-53 -24 -114 -24q-62 0 -98.5 33t-36.5 90zM88 547h901q6 27 6 65q0 178 -112 287q-110 113 -287 113q-183 0 -326 -131q-142 -133 -182 -334z" />
    <glyph glyph-name="Ecaron" unicode="&#x11a;" horiz-adv-x="1097" 
d="M823 0h-764l291 1427h750l-8 -41h-705l-125 -612h664l-8 -41h-664l-141 -692h718zM793 1575h-52l-217 248h56l186 -215l283 215h65z" />
    <glyph glyph-name="ecaron" unicode="&#x11b;" horiz-adv-x="1150" 
d="M33 428q0 246 164 434q168 189 401 189q195 0 317 -125q123 -126 123 -322q0 -44 -10 -96h-948q-4 -28 -4 -76q0 -187 114 -301q118 -115 308 -115q204 0 356 146l27 -29q-159 -156 -385 -156q-211 0 -336 125q-127 127 -127 326zM88 547h903q4 36 4 65q0 178 -112 287
q-110 113 -287 113q-183 0 -326 -131q-142 -133 -182 -334zM700 1180h-51l-217 247h55l187 -215l282 215h66z" />
    <glyph glyph-name="Gcircumflex" unicode="&#x11c;" horiz-adv-x="1566" 
d="M96 623q-4 155 62.5 308t177 267t261.5 184t306 66q141 0 280 -47t224 -131l-29 -33q-79 77 -211 123.5t-268 46.5q-298 0 -528 -236t-230 -540q0 -264 183 -438q182 -173 452 -173q145 0 280 42.5t220 119.5l104 518h-538l10 41h582l-119 -581q-92 -85 -238.5 -132.5
t-304.5 -47.5q-289 0 -483 182q-193 184 -193 461zM756 1575h-66l322 248h51l217 -248h-55l-187 215z" />
    <glyph glyph-name="gcircumflex" unicode="&#x11d;" horiz-adv-x="1253" 
d="M-31 -213l31 29q52 -87 172.5 -141t271.5 -54q214 0 335 111.5t171 347.5l35 172q-158 -272 -473 -272q-213 0 -344 131q-133 133 -133 338q0 233 166 417q169 187 413 187q182 0 312 -95q130 -92 151 -241l66 315h45l-193 -934q-55 -269 -182.5 -392.5t-372.5 -123.5
q-143 0 -276 53q-132 53 -195 152zM78 451q0 -191 121 -312q122 -119 315 -119q239 0 387 183t148 428q0 168 -123 276q-119 107 -316 107q-229 0 -381 -174q-151 -174 -151 -389zM479 1180h-65l321 247h51l218 -247h-56l-186 215z" />
    <glyph glyph-name="Gbreve" unicode="&#x11e;" horiz-adv-x="1566" 
d="M96 623q-4 155 62.5 308t177 267t261.5 184t306 66q141 0 280 -47t224 -131l-29 -33q-79 77 -211 123.5t-268 46.5q-298 0 -528 -236t-230 -540q0 -264 183 -438q182 -173 452 -173q145 0 280 42.5t220 119.5l104 518h-538l10 41h582l-119 -581q-92 -85 -238.5 -132.5
t-304.5 -47.5q-289 0 -483 182q-193 184 -193 461zM973 1536q-87 0 -136 49.5t-49 140.5h41q3 -151 150 -151q148 0 207 151h41q-29 -90 -96 -140t-158 -50z" />
    <glyph glyph-name="gbreve" unicode="&#x11f;" horiz-adv-x="1253" 
d="M-31 -213l31 29q52 -87 172.5 -141t271.5 -54q214 0 335 111.5t171 347.5l35 172q-158 -272 -473 -272q-213 0 -344 131q-133 133 -133 338q0 233 166 417q169 187 413 187q182 0 312 -95q130 -92 151 -241l66 315h45l-193 -934q-55 -269 -182.5 -392.5t-372.5 -123.5
q-143 0 -276 53q-132 53 -195 152zM78 451q0 -191 121 -312q122 -119 315 -119q239 0 387 183t148 428q0 168 -123 276q-119 107 -316 107q-229 0 -381 -174q-151 -174 -151 -389zM723 1237q-87 0 -135.5 49.5t-48.5 140.5h41q3 -151 149 -151q148 0 207 151h41
q-29 -90 -96 -140t-158 -50z" />
    <glyph glyph-name="Gdotaccent" unicode="&#x120;" horiz-adv-x="1566" 
d="M96 623q-4 155 62.5 308t177 267t261.5 184t306 66q141 0 280 -47t224 -131l-29 -33q-79 77 -211 123.5t-268 46.5q-298 0 -528 -236t-230 -540q0 -264 183 -438q182 -173 452 -173q145 0 280 42.5t220 119.5l104 518h-538l10 41h582l-119 -581q-92 -85 -238.5 -132.5
t-304.5 -47.5q-289 0 -483 182q-193 184 -193 461zM985 1587q-35 0 -35 35q0 17 12 30t29 13q37 0 37 -37q0 -17 -12 -29t-31 -12z" />
    <glyph glyph-name="gdotaccent" unicode="&#x121;" horiz-adv-x="1253" 
d="M729 1257q-35 0 -35 33q0 19 13 32t32 13q35 0 35 -32q0 -19 -12.5 -32.5t-32.5 -13.5zM-31 -213l31 29q52 -87 172.5 -141t271.5 -54q214 0 335 111.5t171 347.5l35 172q-158 -272 -473 -272q-213 0 -344 131q-133 133 -133 338q0 233 166 417q169 187 413 187
q182 0 312 -95q130 -92 151 -241l66 315h45l-193 -934q-55 -269 -182.5 -392.5t-372.5 -123.5q-143 0 -276 53q-132 53 -195 152zM78 451q0 -191 121 -312q122 -119 315 -119q239 0 387 183t148 428q0 168 -123 276q-119 107 -316 107q-229 0 -381 -174q-151 -174 -151 -389
z" />
    <glyph glyph-name="Gcommaaccent" unicode="&#x122;" horiz-adv-x="1566" 
d="M96 623q-4 155 62.5 308t177 267t261.5 184t306 66q141 0 280 -47t224 -131l-29 -33q-79 77 -211 123.5t-268 46.5q-298 0 -528 -236t-230 -540q0 -264 183 -438q182 -173 452 -173q145 0 280 42.5t220 119.5l104 518h-538l10 41h582l-119 -581q-92 -85 -238.5 -132.5
t-304.5 -47.5q-289 0 -483 182q-193 184 -193 461zM508 -395h-41l199 297h53z" />
    <glyph glyph-name="gcommaaccent" unicode="&#x123;" horiz-adv-x="1253" 
d="M-31 -213l31 29q52 -87 172.5 -141t271.5 -54q214 0 335 111.5t171 347.5l35 172q-158 -272 -473 -272q-213 0 -344 131q-133 133 -133 338q0 233 166 417q169 187 413 187q182 0 312 -95q130 -92 151 -241l66 315h45l-193 -934q-55 -269 -182.5 -392.5t-372.5 -123.5
q-143 0 -276 53q-132 53 -195 152zM78 451q0 -191 121 -312q122 -119 315 -119q239 0 387 183t148 428q0 168 -123 276q-119 107 -316 107q-229 0 -381 -174q-151 -174 -151 -389zM696 1130h-41l199 297h53z" />
    <glyph glyph-name="Hcircumflex" unicode="&#x124;" horiz-adv-x="1404" 
d="M104 0h-45l291 1427h45l-133 -649h907l131 649h46l-291 -1427h-45l151 737h-907zM631 1575h-66l322 248h51l217 -248h-55l-187 215z" />
    <glyph glyph-name="hcircumflex" unicode="&#x125;" horiz-adv-x="1112" 
d="M31 0h-43l291 1427h43l-125 -606q52 106 156 168t241 62q169 0 266.5 -98.5t97.5 -266.5q0 -64 -12 -125q-115 -548 -115 -561h-43q0 32 113 561q14 66 14 119q0 154 -87.5 242t-239.5 88q-171 0 -283 -109t-155 -319zM113 1479h-62l283 247h51l184 -247h-53l-158 213z
" />
    <glyph glyph-name="Hbar" unicode="&#x126;" horiz-adv-x="1404" 
d="M104 0h-45l220 1081h-119l6 41h121l63 305h45l-63 -305h907l61 305h46l-62 -305h121l-8 -41h-121l-221 -1081h-45l151 737h-907zM324 1081l-62 -303h907l62 303h-907z" />
    <glyph glyph-name="hbar" unicode="&#x127;" horiz-adv-x="1112" 
d="M31 0h-43l248 1223h-109l8 37h109l35 167h43l-35 -167h473l-8 -37h-473l-82 -402q52 106 156 168t241 62q169 0 266.5 -98.5t97.5 -266.5q0 -64 -12 -125q-115 -548 -115 -561h-43q0 32 113 561q14 66 14 119q0 154 -87.5 242t-239.5 88q-171 0 -283 -109t-155 -319z" />
    <glyph glyph-name="Itilde" unicode="&#x128;" horiz-adv-x="471" 
d="M178 1581l-39 4q24 59 70 95t104 36q61 0 127 -51q70 -49 121 -49q95 0 135 113l39 -5q-47 -147 -178 -147q-63 0 -133 49q-66 51 -119 51q-86 0 -127 -96zM113 0h-45l290 1427h45z" />
    <glyph glyph-name="itilde" unicode="&#x129;" horiz-adv-x="358" 
d="M82 1229l-39 4q19 58 59.5 94.5t90.5 36.5q53 0 110 -51q61 -49 105 -49q76 0 110 112l39 -4q-41 -147 -154 -147q-56 0 -114 49q-57 51 -105 51q-67 0 -102 -96zM55 0h-43l211 1032h43z" />
    <glyph glyph-name="Imacron" unicode="&#x12a;" horiz-adv-x="471" 
d="M639 1575h-465l10 41h465zM113 0h-45l290 1427h45z" />
    <glyph glyph-name="imacron" unicode="&#x12b;" horiz-adv-x="313" 
d="M465 1260h-402l9 40h401zM33 0h-43l211 1032h43z" />
    <glyph glyph-name="Ibreve" unicode="&#x12c;" horiz-adv-x="471" 
d="M113 0h-45l290 1427h45zM408 1536q-87 0 -136 49.5t-49 140.5h41q3 -151 150 -151q148 0 207 151h41q-29 -90 -96 -140t-158 -50z" />
    <glyph glyph-name="ibreve" unicode="&#x12d;" horiz-adv-x="313" 
d="M266 1237q-80 0 -126 49.5t-46 140.5h41q3 -151 137 -151q67 0 118.5 40.5t76.5 110.5h41q-26 -90 -90.5 -140t-151.5 -50zM33 0h-43l211 1032h43z" />
    <glyph glyph-name="Iogonek" unicode="&#x12e;" horiz-adv-x="471" 
d="M68 2v2l290 1423h45l-290 -1427q-226 -118 -226 -246q0 -41 28.5 -67.5t72.5 -26.5q62 0 125 29l-17 -39q-55 -25 -116 -25t-97.5 32.5t-36.5 88.5q0 69 59 137t163 119z" />
    <glyph glyph-name="iogonek" unicode="&#x12f;" horiz-adv-x="313" 
d="M244 1032l-211 -1032q-226 -121 -226 -246q0 -41 27 -65.5t74 -24.5q59 0 125 29l-19 -43q-52 -25 -114 -25q-61 0 -97 33.5t-36 89.5q0 166 225 260v2l209 1022h43zM274 1274q-36 0 -36 35q0 17 13 30t30 13q36 0 36 -37q0 -17 -12 -29t-31 -12z" />
    <glyph glyph-name="Idot" unicode="&#x130;" horiz-adv-x="471" 
d="M418 1587q-37 0 -37 35q0 17 12 30t29 13q37 0 37 -37q0 -17 -12 -29t-29 -12zM113 0h-45l290 1427h45z" />
    <glyph glyph-name="dotlessi" unicode="&#x131;" horiz-adv-x="313" 
d="M33 0h-43l211 1032h43z" />
    <glyph glyph-name="IJ" unicode="&#x132;" horiz-adv-x="864" 
d="M72 8l8 43q56 -26 151 -26q140 0 213.5 75.5t110.5 255.5l217 1071h45l-219 -1073q-39 -197 -121.5 -284.5t-245.5 -87.5q-91 0 -159 26zM170 289h-43l231 1138h43z" />
    <glyph glyph-name="ij" unicode="&#x133;" horiz-adv-x="616" 
d="M580 1272q-37 0 -37 37q0 17 13 29t30 12q37 0 37 -35q0 -18 -12.5 -30.5t-30.5 -12.5zM274 1272q-36 0 -36 37q0 17 12 29t31 12q36 0 36 -35q0 -18 -12.5 -30.5t-30.5 -12.5zM25 -2l8 39q35 -14 106 -14q91 0 135.5 43t63.5 143l168 823h43l-170 -829
q-23 -118 -79.5 -169.5t-164.5 -51.5q-64 0 -110 16zM90 283h-43l154 749h43z" />
    <glyph glyph-name="Jcircumflex" unicode="&#x134;" horiz-adv-x="661" 
d="M-100 6l10 39q44 -20 127 -20q134 0 204 75.5t107 255.5l217 1071h45l-217 -1073q-41 -198 -114 -282q-78 -90 -240 -90q-83 0 -139 24zM418 1575h-62l283 248h51l184 -248h-53l-157 213z" />
    <glyph glyph-name="jcircumflex" unicode="&#x135;" horiz-adv-x="350" 
d="M-31 -188l250 1220h43l-250 -1227q-23 -118 -78.5 -169.5t-160.5 -51.5q-56 0 -86 10l6 39q42 -10 86 -10q85 0 127 44t63 145zM86 1180h-59l262 247h51l164 -247h-51l-140 213z" />
    <glyph glyph-name="Kcommaaccent" unicode="&#x136;" horiz-adv-x="1216" 
d="M104 0h-45l291 1427h45l-184 -897l1003 897h60l-709 -636l451 -791h-49l-437 762l-331 -297zM276 -395l199 297h53l-211 -297h-41z" />
    <glyph glyph-name="kcommaaccent" unicode="&#x137;" horiz-adv-x="874" 
d="M31 0h-43l291 1427h43l-203 -999l686 604h61l-510 -450l340 -582h-49l-323 553l-220 -195zM78 -395l198 297h54l-211 -297h-41z" />
    <glyph glyph-name="Lacute" unicode="&#x139;" horiz-adv-x="989" 
d="M750 0h-691l291 1427h45l-282 -1386h645zM422 1526h-41l199 297h53z" />
    <glyph glyph-name="lacute" unicode="&#x13a;" horiz-adv-x="313" 
d="M33 0h-43l291 1427h43zM328 1479h-41l198 297h54z" />
    <glyph glyph-name="Lcommaaccent" unicode="&#x13b;" horiz-adv-x="989" 
d="M750 0h-691l291 1427h45l-282 -1386h645zM182 -395l199 297h53l-211 -297h-41z" />
    <glyph glyph-name="lcommaaccent" unicode="&#x13c;" horiz-adv-x="313" 
d="M33 0h-43l291 1427h43zM-231 -395l198 297h53l-210 -297h-41z" />
    <glyph glyph-name="Lcaron" unicode="&#x13d;" horiz-adv-x="989" 
d="M750 0h-691l291 1427h45l-282 -1386h645zM641 1130h-41l199 297h53z" />
    <glyph glyph-name="lcaron" unicode="&#x13e;" horiz-adv-x="477" 
d="M33 0h-43l291 1427h43zM375 1130h-41l198 297h54z" />
    <glyph glyph-name="Ldot" unicode="&#x13f;" horiz-adv-x="989" 
d="M750 0h-691l291 1427h45l-282 -1386h645zM602 745q-35 0 -35 35q0 17 12 30t29 13q37 0 37 -35q0 -18 -12.5 -30.5t-30.5 -12.5z" />
    <glyph glyph-name="ldot" unicode="&#x140;" horiz-adv-x="475" 
d="M33 0h-43l291 1427h43zM315 717q-36 0 -36 35q0 17 13 30t30 13q36 0 36 -35q0 -18 -12.5 -30.5t-30.5 -12.5z" />
    <glyph glyph-name="Lslash" unicode="&#x141;" horiz-adv-x="989" 
d="M750 0h-691l134 649l-156 -84l10 51l154 84l149 727h45l-143 -702l328 176l-11 -51l-327 -176l-129 -633h645z" />
    <glyph glyph-name="lslash" unicode="&#x142;" horiz-adv-x="368" 
d="M61 0h-43l144 711l-154 -84l8 51l154 82l139 667h43l-133 -643l197 109l-10 -51l-195 -105z" />
    <glyph glyph-name="Nacute" unicode="&#x143;" horiz-adv-x="1454" 
d="M104 0h-45l291 1427h37l688 -1345l275 1345h45l-291 -1427h-33l-692 1352zM877 1526h-41l198 297h53z" />
    <glyph glyph-name="nacute" unicode="&#x144;" horiz-adv-x="1128" 
d="M31 0h-43l211 1032h41l-43 -215q55 111 158 172.5t243 61.5q172 0 273.5 -100.5t101.5 -268.5q0 -66 -12 -127l-33 -156l-56 -270q-24 -126 -24 -129h-43q0 12 51 266l59 289q15 70 15 121q0 155 -92 244.5t-250 89.5q-171 0 -284.5 -109t-156.5 -319zM643 1130h-41
l199 297h53z" />
    <glyph glyph-name="Ncommaaccent" unicode="&#x145;" horiz-adv-x="1454" 
d="M104 0h-45l291 1427h37l688 -1345l275 1345h45l-291 -1427h-33l-692 1352zM403 -395h-41l199 297h53z" />
    <glyph glyph-name="ncommaaccent" unicode="&#x146;" horiz-adv-x="1128" 
d="M31 0h-43l211 1032h41l-43 -215q55 111 158 172.5t243 61.5q172 0 273.5 -100.5t101.5 -268.5q0 -66 -12 -127l-33 -156l-56 -270q-24 -126 -24 -129h-43q0 12 51 266l59 289q15 70 15 121q0 155 -92 244.5t-250 89.5q-171 0 -284.5 -109t-156.5 -319zM217 -395l199 297
h53l-211 -297h-41z" />
    <glyph glyph-name="Ncaron" unicode="&#x147;" horiz-adv-x="1454" 
d="M104 0h-45l291 1427h37l688 -1345l275 1345h45l-291 -1427h-33l-692 1352zM913 1575h-51l-217 248h55l187 -215l282 215h66z" />
    <glyph glyph-name="ncaron" unicode="&#x148;" horiz-adv-x="1128" 
d="M31 0h-43l211 1032h41l-43 -215q55 111 158 172.5t243 61.5q172 0 273.5 -100.5t101.5 -268.5q0 -66 -12 -127l-33 -156l-56 -270q-24 -126 -24 -129h-43q0 12 51 266l59 289q15 70 15 121q0 155 -92 244.5t-250 89.5q-171 0 -284.5 -109t-156.5 -319zM686 1180h-51
l-217 247h55l186 -215l283 215h66z" />
    <glyph glyph-name="Eng" unicode="&#x14a;" horiz-adv-x="1454" 
d="M104 0h-45l291 1427h39l686 -1357l275 1357h45l-299 -1468q-40 -197 -119 -285t-234 -88q-75 0 -139 23l10 41q47 -21 127 -21q134 0 204.5 76t107.5 256l8 39l-682 1354z" />
    <glyph glyph-name="eng" unicode="&#x14b;" horiz-adv-x="1132" 
d="M31 0h-43l211 1032h41l-43 -215q55 111 157 172.5t242 61.5q171 0 271 -100.5t100 -268.5q0 -60 -13 -127l-149 -737q-23 -118 -78 -169.5t-160 -51.5q-50 0 -88 10l8 39q27 -8 84 -8q89 0 131.5 42.5t61.5 143.5l145 731q15 85 15 121q0 156 -90 245t-248 89
q-171 0 -283.5 -109t-155.5 -319z" />
    <glyph glyph-name="Omacron" unicode="&#x14c;" horiz-adv-x="1683" 
d="M1278 1575h-602l10 41h602zM96 627q0 326 238 573q236 248 569 248q303 0 492 -186q190 -184 190 -474q0 -205 -104 -391q-101 -182 -291 -301q-186 -116 -416 -116q-300 0 -489 180q-189 183 -189 467zM141 629q0 -266 176 -439q179 -170 459 -170q212 0 391 111
q177 109 275 283.5t98 371.5q0 272 -178 447q-177 174 -461 174q-312 0 -536 -236t-224 -542z" />
    <glyph glyph-name="omacron" unicode="&#x14d;" horiz-adv-x="1243" 
d="M35 451q0 246 174 423q176 179 418 179q220 0 358 -135q139 -133 139 -347q4 -108 -40.5 -215t-122.5 -191t-192.5 -135.5t-240.5 -49.5q-219 0 -356 131t-137 340zM78 455q0 -194 125 -316q127 -121 329 -121q237 0 392 168q157 171 157 381q0 196 -129 322
q-125 125 -329 125q-223 0 -385 -168q-160 -168 -160 -391zM1012 1260h-602l8 40h602z" />
    <glyph glyph-name="Obreve" unicode="&#x14e;" horiz-adv-x="1683" 
d="M96 627q0 326 238 573q236 248 569 248q303 0 492 -186q190 -184 190 -474q0 -205 -104 -391q-101 -182 -291 -301q-186 -116 -416 -116q-300 0 -489 180q-189 183 -189 467zM141 629q0 -266 176 -439q179 -170 459 -170q212 0 391 111q177 109 275 283.5t98 371.5
q0 272 -178 447q-177 174 -461 174q-312 0 -536 -236t-224 -542zM991 1536q-87 0 -135.5 49.5t-48.5 140.5h41q3 -151 149 -151q148 0 207 151h41q-29 -90 -96 -140t-158 -50z" />
    <glyph glyph-name="obreve" unicode="&#x14f;" horiz-adv-x="1243" 
d="M35 451q0 246 174 423q176 179 418 179q220 0 358 -135q139 -133 139 -347q4 -108 -40.5 -215t-122.5 -191t-192.5 -135.5t-240.5 -49.5q-219 0 -356 131t-137 340zM78 455q0 -194 125 -316q127 -121 329 -121q237 0 392 168q157 171 157 381q0 196 -129 322
q-125 125 -329 125q-223 0 -385 -168q-160 -168 -160 -391zM711 1237q-87 0 -136 49.5t-49 140.5h41q3 -151 150 -151q148 0 207 151h41q-29 -90 -96 -140t-158 -50z" />
    <glyph glyph-name="Ohungarumlaut" unicode="&#x150;" horiz-adv-x="1683" 
d="M96 627q0 326 238 573q236 248 569 248q303 0 492 -186q190 -184 190 -474q0 -205 -104 -391q-101 -182 -291 -301q-186 -116 -416 -116q-300 0 -489 180q-189 183 -189 467zM141 629q0 -266 176 -439q179 -170 459 -170q212 0 391 111q177 109 275 283.5t98 371.5
q0 272 -178 447q-177 174 -461 174q-312 0 -536 -236t-224 -542zM1147 1526h-41l221 297h55zM831 1526h-40l221 297h55z" />
    <glyph glyph-name="ohungarumlaut" unicode="&#x151;" horiz-adv-x="1243" 
d="M35 451q0 246 174 423q176 179 418 179q220 0 358 -135q139 -133 139 -347q4 -108 -40.5 -215t-122.5 -191t-192.5 -135.5t-240.5 -49.5q-219 0 -356 131t-137 340zM78 455q0 -194 125 -316q127 -121 329 -121q237 0 392 168q157 171 157 381q0 196 -129 322
q-125 125 -329 125q-223 0 -385 -168q-160 -168 -160 -391zM862 1130h-41l221 297h56zM547 1130h-41l221 297h55z" />
    <glyph glyph-name="OE" unicode="&#x152;" horiz-adv-x="2342" 
d="M96 627q0 327 234 573q233 248 557 248q125 0 232 -30t182 -80.5t130 -117.5t84 -140t35 -150l103 497h719l-9 -41h-673l-125 -612h633l-9 -41h-630l-142 -692h686l-8 -41h-733l78 379q-225 -399 -682 -399q-291 0 -477 180q-185 182 -185 467zM139 629q0 -267 172 -439
q176 -170 449 -170q175 0 319.5 66.5t227.5 169.5q79 99 131 217q84 195 84 352q0 248 -166 414q-165 168 -471 168q-307 0 -527 -236q-219 -239 -219 -542z" />
    <glyph glyph-name="oe" unicode="&#x153;" horiz-adv-x="2185" 
d="M35 451q0 246 174 423q176 179 418 179q202 0 336 -119q137 -119 149 -295q53 176 197 293q143 119 329 119q197 0 316 -125q123 -126 123 -322q0 -58 -9 -96h-948q-4 -28 -4 -76q0 -186 115 -301q118 -115 307 -115q204 0 356 146l27 -29q-159 -156 -385 -156
q-196 0 -322 111q-124 115 -133 287q-55 -166 -207 -281q-150 -114 -348 -114q-217 0 -354 131t-137 340zM78 455q0 -194 125 -316q127 -121 329 -121q235 0 390 168q157 171 157 381q0 196 -129 322q-125 125 -329 125q-221 0 -383 -168q-160 -168 -160 -391zM1128 547h902
q6 27 6 65q0 177 -113 287q-110 113 -287 113q-182 0 -325 -131q-143 -134 -183 -334z" />
    <glyph glyph-name="Racute" unicode="&#x154;" horiz-adv-x="1173" 
d="M104 0h-45l289 1427h383q170 0 273 -100q104 -98 104 -256q0 -162 -113 -287q-112 -127 -274 -145l225 -639h-47l-225 635h-441zM385 1386l-143 -710h424q167 0 282 121q115 124 115 272q0 138 -92 227q-93 90 -242 90h-344zM717 1526h-41l198 297h54z" />
    <glyph glyph-name="racute" unicode="&#x155;" horiz-adv-x="661" 
d="M31 0h-43l211 1032h43l-49 -231q133 250 436 250q27 0 33 -2l-9 -41q-10 2 -37 2q-191 0 -311 -121t-164 -342zM408 1130h-41l198 297h53z" />
    <glyph glyph-name="Rcommaaccent" unicode="&#x156;" horiz-adv-x="1173" 
d="M104 0h-45l289 1427h383q170 0 273 -100q104 -98 104 -256q0 -162 -113 -287q-112 -127 -274 -145l225 -639h-47l-225 635h-441zM385 1386l-143 -710h424q167 0 282 121q115 124 115 272q0 138 -92 227q-93 90 -242 90h-344zM270 -395l199 297h53l-211 -297h-41z" />
    <glyph glyph-name="rcommaaccent" unicode="&#x157;" horiz-adv-x="661" 
d="M31 0h-43l211 1032h43l-49 -231q133 250 436 250q27 0 33 -2l-9 -41q-10 2 -37 2q-191 0 -311 -121t-164 -342zM-160 -395l199 297h53l-211 -297h-41z" />
    <glyph glyph-name="Rcaron" unicode="&#x158;" horiz-adv-x="1173" 
d="M104 0h-45l289 1427h383q170 0 273 -100q104 -98 104 -256q0 -162 -113 -287q-112 -127 -274 -145l225 -639h-47l-225 635h-441zM385 1386l-143 -710h424q167 0 282 121q115 124 115 272q0 138 -92 227q-93 90 -242 90h-344zM770 1575h-51l-217 248h55l186 -215l283 215
h66z" />
    <glyph glyph-name="rcaron" unicode="&#x159;" horiz-adv-x="661" 
d="M31 0h-43l211 1032h43l-49 -231q133 250 436 250q27 0 33 -2l-9 -41q-10 2 -37 2q-191 0 -311 -121t-164 -342zM477 1180h-51l-217 247h55l187 -215l282 215h66z" />
    <glyph glyph-name="Sacute" unicode="&#x15a;" horiz-adv-x="1107" 
d="M18 297l39 16q42 -142 146.5 -218.5t261.5 -76.5q186 0 307 109q123 111 123 279q0 109 -68 183t-227 150q-158 78 -225.5 151t-67.5 185q0 159 113 266t278 107q107 0 193.5 -50.5t122.5 -131.5l-39 -19q-83 160 -281 160q-140 0 -241 -94q-101 -91 -101 -230
q0 -110 64 -174q61 -58 207 -131q170 -82 243.5 -163.5t73.5 -200.5q0 -192 -133 -316q-133 -121 -344 -121q-167 0 -285.5 84t-159.5 236zM754 1526h-41l198 297h54z" />
    <glyph glyph-name="sacute" unicode="&#x15b;" horiz-adv-x="794" 
d="M-45 217l39 14q29 -101 107.5 -157t193.5 -56q135 0 222 77t87 194q0 79 -50.5 131.5t-168.5 109.5q-112 55 -163.5 111.5t-51.5 144.5q0 113 82 189q84 78 205 78q171 0 239 -138l-37 -16q-59 115 -202 115q-104 0 -174 -65.5t-70 -162.5q0 -74 49 -125t152 -98
q123 -58 178 -119.5t55 -154.5q0 -133 -98 -221t-254 -88q-129 0 -218.5 62.5t-121.5 174.5zM487 1130h-41l199 297h53z" />
    <glyph glyph-name="Scircumflex" unicode="&#x15c;" horiz-adv-x="1107" 
d="M18 297l39 16q42 -142 146.5 -218.5t261.5 -76.5q186 0 307 109q123 111 123 279q0 109 -68 183t-227 150q-158 78 -225.5 151t-67.5 185q0 159 113 266t278 107q107 0 193.5 -50.5t122.5 -131.5l-39 -19q-83 160 -281 160q-140 0 -241 -94q-101 -91 -101 -230
q0 -110 64 -174q61 -58 207 -131q170 -82 243.5 -163.5t73.5 -200.5q0 -192 -133 -316q-133 -121 -344 -121q-167 0 -285.5 84t-159.5 236zM516 1575h-65l321 248h51l217 -248h-55l-186 215z" />
    <glyph glyph-name="scircumflex" unicode="&#x15d;" horiz-adv-x="794" 
d="M-45 217l39 14q29 -101 107.5 -157t193.5 -56q135 0 222 77t87 194q0 79 -50.5 131.5t-168.5 109.5q-112 55 -163.5 111.5t-51.5 144.5q0 113 82 189q84 78 205 78q171 0 239 -138l-37 -16q-59 115 -202 115q-104 0 -174 -65.5t-70 -162.5q0 -74 49 -125t152 -98
q123 -58 178 -119.5t55 -154.5q0 -133 -98 -221t-254 -88q-129 0 -218.5 62.5t-121.5 174.5zM270 1180h-65l321 247h52l217 -247h-56l-186 215z" />
    <glyph glyph-name="Scedilla" unicode="&#x15e;" horiz-adv-x="1107" 
d="M276 -297l19 29q39 -33 96 -33q42 0 70 21.5t28 52.5q0 67 -92 67q-26 0 -53 -6l90 146q-157 6 -267.5 89t-148.5 228l39 16q42 -142 146.5 -218.5t261.5 -76.5q186 0 307 109q123 111 123 279q0 109 -68 183t-227 150q-158 78 -225.5 151t-67.5 185q0 159 113 266
t278 107q107 0 193.5 -50.5t122.5 -131.5l-39 -19q-83 160 -281 160q-140 0 -241 -94q-101 -91 -101 -230q0 -110 64 -174q61 -58 207 -131q170 -82 243.5 -163.5t73.5 -200.5q0 -189 -127 -310t-334 -127l-67 -104h6q114 0 114 -100q0 -50 -39 -80.5t-102 -30.5
q-77 0 -115 41z" />
    <glyph glyph-name="scedilla" unicode="&#x15f;" horiz-adv-x="794" 
d="M94 -297l19 29q39 -33 96 -33q42 0 70 21.5t28 52.5q0 67 -92 67q-26 0 -53 -6l92 148q-112 7 -190 68.5t-109 166.5l39 14q29 -101 107.5 -157t193.5 -56q135 0 222 77t87 194q0 79 -50.5 131.5t-168.5 109.5q-112 55 -163.5 111.5t-51.5 144.5q0 113 82 189
q84 78 205 78q171 0 239 -138l-37 -16q-59 115 -202 115q-104 0 -174 -65.5t-70 -162.5q0 -74 49 -125t152 -98q123 -58 178 -119.5t55 -154.5q0 -131 -98 -219q-93 -87 -250 -90l-70 -107h7q114 0 114 -100q0 -50 -39 -80.5t-102 -30.5q-77 0 -115 41z" />
    <glyph glyph-name="Scaron" unicode="&#x160;" horiz-adv-x="1107" 
d="M18 297l39 16q42 -142 146.5 -218.5t261.5 -76.5q186 0 307 109q123 111 123 279q0 109 -68 183t-227 150q-158 78 -225.5 151t-67.5 185q0 159 113 266t278 107q107 0 193.5 -50.5t122.5 -131.5l-39 -19q-83 160 -281 160q-140 0 -241 -94q-101 -91 -101 -230
q0 -110 64 -174q61 -58 207 -131q170 -82 243.5 -163.5t73.5 -200.5q0 -192 -133 -316q-133 -121 -344 -121q-167 0 -285.5 84t-159.5 236zM772 1575h-51l-217 248h55l186 -215l283 215h66z" />
    <glyph glyph-name="scaron" unicode="&#x161;" horiz-adv-x="794" 
d="M-45 217l39 14q29 -101 107.5 -157t193.5 -56q135 0 222 77t87 194q0 79 -50.5 131.5t-168.5 109.5q-112 55 -163.5 111.5t-51.5 144.5q0 113 82 189q84 78 205 78q171 0 239 -138l-37 -16q-59 115 -202 115q-104 0 -174 -65.5t-70 -162.5q0 -74 49 -125t152 -98
q123 -58 178 -119.5t55 -154.5q0 -133 -98 -221t-254 -88q-129 0 -218.5 62.5t-121.5 174.5zM532 1180h-51l-217 247h55l187 -215l282 215h66z" />
    <glyph glyph-name="Tcommaaccent" unicode="&#x162;" horiz-adv-x="1093" 
d="M424 0h-45l283 1386h-447l8 41h938l-8 -41h-446zM156 -395l198 297h54l-211 -297h-41z" />
    <glyph glyph-name="tcommaaccent" unicode="&#x163;" horiz-adv-x="563" 
d="M106 0h-43l201 991h-131l10 41h131l80 395h43l-80 -395h258l-10 -41h-258zM-156 -395l199 297h53l-211 -297h-41z" />
    <glyph glyph-name="Tcaron" unicode="&#x164;" horiz-adv-x="1093" 
d="M735 1575h-51l-217 248h55l187 -215l282 215h66zM424 0h-45l283 1386h-447l8 41h938l-8 -41h-446z" />
    <glyph glyph-name="tcaron" unicode="&#x165;" horiz-adv-x="598" 
d="M106 0h-43l201 991h-131l10 41h131l80 395h43l-80 -395h258l-10 -41h-258zM477 1130h-41l199 297h53z" />
    <glyph glyph-name="Tbar" unicode="&#x166;" horiz-adv-x="1093" 
d="M424 0h-45l170 840h-277l7 41h278l105 505h-447l8 41h938l-8 -41h-446l-105 -505h279l-7 -41h-280z" />
    <glyph glyph-name="tbar" unicode="&#x167;" horiz-adv-x="563" 
d="M106 0h-43l142 702h-129l8 41h129l51 248h-131l10 41h131l80 395h43l-80 -395h258l-10 -41h-258l-51 -248h260l-8 -41h-260z" />
    <glyph glyph-name="Utilde" unicode="&#x168;" 
d="M135 381q0 48 12 113l191 933h45l-193 -946q-10 -55 -10 -100q0 -155 109 -258q110 -98 286 -98q387 0 472 411l200 991h45l-202 -999q-88 -444 -519 -444q-190 0 -313 108t-123 289zM590 1581l-39 4q24 59 70 95t104 36q61 0 127 -51q70 -49 121 -49q95 0 135 113l39 -5
q-47 -147 -178 -147q-63 0 -133 49q-66 51 -119 51q-86 0 -127 -96z" />
    <glyph glyph-name="utilde" unicode="&#x169;" horiz-adv-x="1077" 
d="M41 330q0 34 12 96l121 606h43l-121 -606q-10 -58 -10 -96q0 -138 95 -224t253 -86q342 0 412 357l133 655h43l-133 -663q-79 -389 -457 -389q-172 0 -282 96q-109 95 -109 254zM381 1229l-39 4q24 59 70 95t104 36q61 0 127 -51q70 -49 121 -49q95 0 135 112l39 -4
q-46 -147 -178 -147q-63 0 -133 49q-66 51 -119 51q-86 0 -127 -96z" />
    <glyph glyph-name="Umacron" unicode="&#x16a;" 
d="M135 381q0 48 12 113l191 933h45l-193 -946q-10 -55 -10 -100q0 -155 109 -258q110 -98 286 -98q387 0 472 411l200 991h45l-202 -999q-88 -444 -519 -444q-190 0 -313 108t-123 289zM1135 1575h-603l9 41h602z" />
    <glyph glyph-name="umacron" unicode="&#x16b;" horiz-adv-x="1077" 
d="M41 330q0 34 12 96l121 606h43l-121 -606q-10 -58 -10 -96q0 -138 95 -224t253 -86q342 0 412 357l133 655h43l-133 -663q-79 -389 -457 -389q-172 0 -282 96q-109 95 -109 254zM932 1260h-602l8 40h602z" />
    <glyph glyph-name="Ubreve" unicode="&#x16c;" 
d="M135 381q0 48 12 113l191 933h45l-193 -946q-10 -55 -10 -100q0 -155 109 -258q110 -98 286 -98q387 0 472 411l200 991h45l-202 -999q-88 -444 -519 -444q-190 0 -313 108t-123 289zM815 1536q-87 0 -135.5 49.5t-48.5 140.5h41q3 -151 149 -151q148 0 207 151h41
q-29 -90 -96 -140t-158 -50z" />
    <glyph glyph-name="ubreve" unicode="&#x16d;" horiz-adv-x="1077" 
d="M41 330q0 34 12 96l121 606h43l-121 -606q-10 -58 -10 -96q0 -138 95 -224t253 -86q342 0 412 357l133 655h43l-133 -663q-79 -389 -457 -389q-172 0 -282 96q-109 95 -109 254zM623 1237q-87 0 -136 49.5t-49 140.5h41q3 -151 150 -151q148 0 207 151h41
q-29 -90 -96 -140t-158 -50z" />
    <glyph glyph-name="Uring" unicode="&#x16e;" 
d="M811 1440q-54 0 -87.5 31.5t-33.5 82.5q0 60 42 104t102 44q55 0 88.5 -32.5t33.5 -86.5q0 -58 -41.5 -100.5t-103.5 -42.5zM815 1477q41 0 72 31.5t31 70.5q0 35 -25 59.5t-62 24.5q-41 0 -71.5 -31.5t-30.5 -72.5q0 -35 24.5 -58.5t61.5 -23.5zM135 381q0 48 12 113
l191 933h45l-193 -946q-10 -55 -10 -100q0 -155 109 -258q110 -98 286 -98q387 0 472 411l200 991h45l-202 -999q-88 -444 -519 -444q-190 0 -313 108t-123 289z" />
    <glyph glyph-name="uring" unicode="&#x16f;" horiz-adv-x="1077" 
d="M606 1137q-54 0 -87.5 31.5t-33.5 82.5q0 60 42 104t102 44q56 0 89.5 -32.5t33.5 -86.5q0 -58 -42 -100.5t-104 -42.5zM610 1174q41 0 72 31.5t31 70.5q0 35 -24.5 59.5t-61.5 24.5q-41 0 -72 -32t-31 -73q0 -35 24.5 -58t61.5 -23zM41 330q0 34 12 96l121 606h43
l-121 -606q-10 -58 -10 -96q0 -138 95 -224t253 -86q342 0 412 357l133 655h43l-133 -663q-79 -389 -457 -389q-172 0 -282 96q-109 95 -109 254z" />
    <glyph glyph-name="Uhungarumlaut" unicode="&#x170;" 
d="M135 381q0 48 12 113l191 933h45l-193 -946q-10 -55 -10 -100q0 -155 109 -258q110 -98 286 -98q387 0 472 411l200 991h45l-202 -999q-88 -444 -519 -444q-190 0 -313 108t-123 289zM973 1526h-41l221 297h55zM657 1526h-41l222 297h55z" />
    <glyph glyph-name="uhungarumlaut" unicode="&#x171;" horiz-adv-x="1077" 
d="M41 330q0 34 12 96l121 606h43l-121 -606q-10 -58 -10 -96q0 -138 95 -224t253 -86q342 0 412 357l133 655h43l-133 -663q-79 -389 -457 -389q-172 0 -282 96q-109 95 -109 254zM764 1130h-41l221 297h55zM449 1130h-41l221 297h55z" />
    <glyph glyph-name="Uogonek" unicode="&#x172;" 
d="M137 383q0 46 13 113l190 931h45l-192 -942q-13 -67 -13 -102q0 -149 105 -254q107 -104 290 -104q387 0 472 411l200 991h45l-202 -999q-59 -280 -254 -387q-42 -21 -111 -47l-127 -55q-53 -28 -93 -78t-40 -107q0 -43 29.5 -68.5t80.5 -25.5q58 0 119 25l-6 -33
q-52 -27 -121 -27q-66 0 -103.5 32.5t-37.5 88.5q0 164 223 246q-36 -8 -78 -8q-195 0 -315 108q-119 107 -119 291z" />
    <glyph glyph-name="uogonek" unicode="&#x173;" horiz-adv-x="1077" 
d="M41 330q0 34 12 96l121 606h43l-121 -606q-10 -58 -10 -96q0 -138 95 -224t253 -86q342 0 412 357l133 655h43l-133 -663q-53 -258 -242 -349q-2 -1 -9.5 -4.5t-21 -9.5t-28.5 -12q-51 -23 -64 -33q-7 -5 -53 -29q-15 -9 -25.5 -16t-20 -15t-14 -12.5t-15 -15.5
t-15.5 -16q-37 -39 -37 -103q0 -42 26.5 -66t73.5 -24q59 0 125 29l-18 -43q-52 -25 -115 -25q-61 0 -97 33.5t-36 89.5q0 146 193 234q-14 -2 -64 -2q-172 0 -282 96q-109 95 -109 254z" />
    <glyph glyph-name="Wcircumflex" unicode="&#x174;" horiz-adv-x="1900" 
d="M436 0h-30l-191 1427h43l176 -1335l643 1335h29l100 -1337l719 1337h49l-768 -1427h-32l-103 1319zM877 1575h-66l322 248h51l217 -248h-55l-187 215z" />
    <glyph glyph-name="wcircumflex" unicode="&#x175;" horiz-adv-x="1560" 
d="M297 0h-35l-149 1032h43l135 -962l518 962h33l147 -958l543 958h47l-586 -1032h-32l-148 961zM610 1180h-65l321 247h52l217 -247h-56l-186 215z" />
    <glyph glyph-name="Ycircumflex" unicode="&#x176;" horiz-adv-x="1157" 
d="M455 0h-45l127 618l-330 809h47l311 -763l619 763h53l-657 -815zM485 1575h-65l321 248h52l217 -248h-56l-186 215z" />
    <glyph glyph-name="ycircumflex" unicode="&#x177;" horiz-adv-x="980" 
d="M55 -395l254 407l-196 1020h43l186 -966l608 966h49l-897 -1427h-47zM326 1180h-66l322 247h51l217 -247h-55l-187 215z" />
    <glyph glyph-name="Ydieresis" unicode="&#x178;" horiz-adv-x="1157" 
d="M934 1577q-35 0 -35 37q0 17 12 30t29 13q37 0 37 -37q0 -18 -12.5 -30.5t-30.5 -12.5zM512 1577q-35 0 -35 37q0 17 12 30t29 13q37 0 37 -37q0 -18 -12.5 -30.5t-30.5 -12.5zM455 0h-45l127 618l-330 809h47l311 -763l619 763h53l-657 -815z" />
    <glyph glyph-name="Zacute" unicode="&#x179;" horiz-adv-x="1249" 
d="M999 0h-1093l8 31l1319 1355h-899l8 41h961l-9 -34l-1312 -1352h1026zM809 1526h-41l199 297h53z" />
    <glyph glyph-name="zacute" unicode="&#x17a;" horiz-adv-x="995" 
d="M743 0h-858l9 31l980 960h-694l8 41h758l-6 -35l-979 -956h791zM561 1130h-41l199 297h53z" />
    <glyph glyph-name="Zdotaccent" unicode="&#x17b;" horiz-adv-x="1249" 
d="M848 1587q-37 0 -37 35q0 17 13 30t30 13q37 0 37 -37q0 -17 -12 -29t-31 -12zM999 0h-1093l8 31l1319 1355h-899l8 41h961l-9 -34l-1312 -1352h1026z" />
    <glyph glyph-name="zdotaccent" unicode="&#x17c;" horiz-adv-x="995" 
d="M604 1272q-37 0 -37 37q0 17 13 29t30 12q37 0 37 -35q0 -18 -12.5 -30.5t-30.5 -12.5zM743 0h-858l9 31l980 960h-694l8 41h758l-6 -35l-979 -956h791z" />
    <glyph glyph-name="Zcaron" unicode="&#x17d;" horiz-adv-x="1249" 
d="M864 1575h-51l-217 248h55l187 -215l282 215h66zM999 0h-1093l8 31l1319 1355h-899l8 41h961l-9 -34l-1312 -1352h1026z" />
    <glyph glyph-name="zcaron" unicode="&#x17e;" horiz-adv-x="995" 
d="M629 1180h-51l-218 247h56l186 -215l283 215h65zM743 0h-858l9 31l980 960h-694l8 41h758l-6 -35l-979 -956h791z" />
    <glyph glyph-name="florin" unicode="&#x192;" horiz-adv-x="712" 
d="M346 821l-426 -1028h-45l426 1028h-154l15 37h155l154 367q88 223 266 223q83 0 140 -31l-17 -35q-52 27 -127 27q-140 0 -219 -186l-152 -365h252l-14 -37h-254z" />
    <glyph glyph-name="Aringacute" unicode="&#x1fa;" horiz-adv-x="1290" 
d="M-31 0h-49l860 1427q-43 6 -69.5 37.5t-26.5 75.5q0 56 42 98.5t99 42.5q51 0 85 -32.5t34 -81.5q0 -56 -39.5 -98t-99.5 -42l280 -1427h-45l-86 432h-723zM805 1460q43 0 73.5 31.5t30.5 73.5q0 36 -24 59t-62 23q-41 0 -72.5 -32t-31.5 -73q0 -35 24.5 -58.5
t61.5 -23.5zM778 1343l-522 -870h690zM877 1751h-41l198 297h53z" />
    <glyph glyph-name="aringacute" unicode="&#x1fb;" horiz-adv-x="1251" 
d="M811 1520h-41l199 297h53zM727 1153q-54 0 -87.5 32t-33.5 83q0 60 42 103.5t102 43.5q55 0 88.5 -32.5t33.5 -86.5q0 -58 -41.5 -100.5t-103.5 -42.5zM731 1190q42 0 72.5 31.5t30.5 70.5q0 35 -24.5 59.5t-61.5 24.5q-41 0 -72 -31.5t-31 -72.5q0 -35 24.5 -58.5
t61.5 -23.5zM35 449q0 233 166 417q166 187 413 187q182 0 312 -95q130 -92 151 -241l66 315h43l-211 -1032h-43l51 254q-75 -131 -196 -202.5t-277 -71.5q-213 0 -344 131t-131 338zM78 451q0 -191 121 -312q119 -119 315 -119q240 0 385 183q148 183 148 428
q0 168 -123 276q-119 107 -314 107q-232 0 -381 -174q-151 -174 -151 -389z" />
    <glyph glyph-name="AEacute" unicode="&#x1fc;" horiz-adv-x="1964" 
d="M-41 0h-59l1390 1427h676l-8 -41h-645l-125 -610h606l-8 -41h-606l-142 -694h660l-8 -41h-705l82 401h-719zM1257 1335l-868 -893h686zM1341 1526h-41l199 297h53z" />
    <glyph glyph-name="aeacute" unicode="&#x1fd;" horiz-adv-x="1878" 
d="M-4 238q0 84 32.5 150.5t84.5 103.5q54 37 125 57q72 22 132.5 28.5t155.5 8.5q211 6 285 71q49 46 49 140t-77.5 155.5t-198.5 61.5q-235 0 -334 -205l-33 18q51 108 148 167t221 59q131 0 221 -72t90 -170q0 -25 -2 -31q67 123 186 197t254 74q189 0 307 -127
q119 -125 119 -322q0 -46 -10 -94h-917q-9 -47 -9 -96q0 -173 109 -285q112 -109 291 -109q192 0 340 142l26 -29q-165 -151 -368 -151q-157 0 -271.5 80.5t-146.5 220.5q-102 -301 -483 -301q-153 0 -239.5 68.5t-86.5 189.5zM842 547h872q6 27 6 63q0 176 -108 287
q-107 113 -279 113q-175 0 -313 -129q-134 -125 -178 -334zM39 242q0 -104 76.5 -164t210.5 -60q185 0 303 86t155 246q-2 12 -2 60q0 122 33 204q-72 -63 -295 -69q-104 -2 -177.5 -14.5t-147.5 -43.5q-156 -61 -156 -245zM1014 1130h-41l198 297h54z" />
    <glyph glyph-name="Oslashacute" unicode="&#x1fe;" horiz-adv-x="1683" 
d="M150 -53l-29 26l174 181q-199 181 -199 473q0 326 238 573q236 248 569 248q280 0 467 -166l182 191l31 -25l-184 -193q186 -180 186 -467q0 -205 -104 -391q-101 -182 -291 -301q-186 -116 -416 -116q-270 0 -450 149zM324 184l1017 1067q-179 156 -440 156
q-312 0 -536 -236t-224 -542q0 -271 183 -445zM1368 1223l-1014 -1063q175 -140 422 -140q212 0 391 111q177 109 275 283.5t98 371.5q0 268 -172 437zM1004 1526h-41l198 297h53z" />
    <glyph glyph-name="oslashacute" unicode="&#x1ff;" horiz-adv-x="1243" 
d="M82 -51l-29 26l123 134q-141 129 -141 342q0 246 174 423q176 179 418 179q200 0 331 -113l123 131l29 -27l-123 -129q137 -137 137 -344q4 -108 -40.5 -215t-122.5 -191t-192.5 -135.5t-240.5 -49.5q-189 0 -321 102zM205 139l725 770q-126 105 -307 105
q-223 0 -385 -168q-160 -168 -160 -391q0 -195 127 -316zM958 883l-722 -770q121 -95 296 -95q237 0 392 168q157 171 157 381q0 193 -123 316zM705 1130h-41l198 297h53z" />
    <glyph glyph-name="Scommaaccent" unicode="&#x218;" horiz-adv-x="1107" 
d="M18 297l39 16q42 -142 146.5 -218.5t261.5 -76.5q186 0 307 109q123 111 123 279q0 109 -68 183t-227 150q-158 78 -225.5 151t-67.5 185q0 159 113 266t278 107q107 0 193.5 -50.5t122.5 -131.5l-39 -19q-83 160 -281 160q-140 0 -241 -94q-101 -91 -101 -230
q0 -110 64 -174q61 -58 207 -131q170 -82 243.5 -163.5t73.5 -200.5q0 -192 -133 -316q-133 -121 -344 -121q-167 0 -285.5 84t-159.5 236zM240 -395l198 297h54l-211 -297h-41z" />
    <glyph glyph-name="scommaaccent" unicode="&#x219;" horiz-adv-x="794" 
d="M-45 217l39 14q29 -101 107.5 -157t193.5 -56q135 0 222 77t87 194q0 79 -50.5 131.5t-168.5 109.5q-112 55 -163.5 111.5t-51.5 144.5q0 113 82 189q84 78 205 78q171 0 239 -138l-37 -16q-59 115 -202 115q-104 0 -174 -65.5t-70 -162.5q0 -74 49 -125t152 -98
q123 -58 178 -119.5t55 -154.5q0 -133 -98 -221t-254 -88q-129 0 -218.5 62.5t-121.5 174.5zM53 -395l199 297h53l-211 -297h-41z" />
    <glyph glyph-name="circumflex" unicode="&#x2c6;" horiz-adv-x="1282" 
d="M504 1180h-66l322 247h51l217 -247h-55l-187 215z" />
    <glyph glyph-name="caron" unicode="&#x2c7;" horiz-adv-x="1282" 
d="M760 1180h-51l-217 247h55l186 -215l283 215h65z" />
    <glyph glyph-name="breve" unicode="&#x2d8;" horiz-adv-x="1273" 
d="M748 1237q-87 0 -136 49.5t-49 140.5h41q3 -151 150 -151q148 0 207 151h40q-29 -91 -95.5 -140.5t-157.5 -49.5z" />
    <glyph glyph-name="dotaccent" unicode="&#x2d9;" horiz-adv-x="1107" 
d="M672 1274q-37 0 -37 35q0 17 12 30t29 13q37 0 37 -37q0 -18 -11.5 -29.5t-29.5 -11.5z" />
    <glyph glyph-name="ring" unicode="&#x2da;" horiz-adv-x="522" 
d="M371 1186q-54 0 -87.5 31.5t-33.5 82.5q0 60 41.5 104t101.5 44q56 0 89.5 -32.5t33.5 -86.5q0 -58 -41.5 -100.5t-103.5 -42.5zM375 1223q42 0 72 31.5t30 70.5q0 35 -24.5 59.5t-61.5 24.5q-41 0 -71.5 -31.5t-30.5 -72.5q0 -35 24.5 -58.5t61.5 -23.5z" />
    <glyph glyph-name="ogonek" unicode="&#x2db;" horiz-adv-x="1110" 
d="M168 -252q0 157 209 252h57q-225 -120 -225 -246q0 -42 26.5 -66t73.5 -24q59 0 125 29l-18 -43q-52 -25 -115 -25q-61 0 -97 33.5t-36 89.5z" />
    <glyph glyph-name="tilde" unicode="&#x2dc;" horiz-adv-x="1224" 
d="M494 1307l-39 4q24 59 70 95t104 36q61 0 127 -51q71 -50 121 -50q95 0 135 113l39 -4q-47 -147 -179 -147q-63 0 -133 49q-66 51 -118 51q-86 0 -127 -96z" />
    <glyph glyph-name="hungarumlaut" unicode="&#x2dd;" horiz-adv-x="1230" 
d="M825 1130h-41l222 297h55zM510 1130h-41l221 297h55z" />
    <glyph glyph-name="pi" unicode="&#x3c0;" horiz-adv-x="1198" 
d="M125 0h-49q233 429 356 991h-47q-72 0 -152 -40t-129 -105l-30 22q55 76 147.5 120t181.5 44h805l-14 -41h-190l-148 -725q-10 -52 -10 -86q0 -143 143 -143l-8 -39h-2q-176 0 -176 178q0 42 10 94l148 721h-486q-114 -547 -350 -991z" />
    <glyph glyph-name="Wgrave" unicode="&#x1e80;" horiz-adv-x="1900" 
d="M436 0h-30l-191 1427h43l176 -1335l643 1335h29l100 -1337l719 1337h49l-768 -1427h-32l-103 1319zM1137 1526h-37l-94 297h51z" />
    <glyph glyph-name="wgrave" unicode="&#x1e81;" horiz-adv-x="1560" 
d="M297 0h-35l-149 1032h43l135 -962l518 962h33l147 -958l543 958h47l-586 -1032h-32l-148 961zM887 1130h-37l-94 297h51z" />
    <glyph glyph-name="Wacute" unicode="&#x1e82;" horiz-adv-x="1900" 
d="M436 0h-30l-191 1427h43l176 -1335l643 1335h29l100 -1337l719 1337h49l-768 -1427h-32l-103 1319zM1114 1526h-41l199 297h53z" />
    <glyph glyph-name="wacute" unicode="&#x1e83;" horiz-adv-x="1560" 
d="M297 0h-35l-149 1032h43l135 -962l518 962h33l147 -958l543 958h47l-586 -1032h-32l-148 961zM852 1130h-41l199 297h53z" />
    <glyph glyph-name="Wdieresis" unicode="&#x1e84;" horiz-adv-x="1900" 
d="M1323 1579q-37 0 -37 35q0 17 12 30t29 13q37 0 37 -37q0 -17 -12 -29t-29 -12zM901 1579q-37 0 -37 35q0 17 12 30t29 13q37 0 37 -37q0 -17 -12 -29t-29 -12zM436 0h-30l-191 1427h43l176 -1335l643 1335h29l100 -1337l719 1337h49l-768 -1427h-32l-103 1319z" />
    <glyph glyph-name="wdieresis" unicode="&#x1e85;" horiz-adv-x="1560" 
d="M1081 1272q-37 0 -37 37q0 17 13 29t30 12q37 0 37 -35q0 -18 -12.5 -30.5t-30.5 -12.5zM659 1272q-36 0 -36 37q0 17 13 29t30 12q36 0 36 -35q0 -18 -12.5 -30.5t-30.5 -12.5zM297 0h-35l-149 1032h43l135 -962l518 962h33l147 -958l543 958h47l-586 -1032h-32
l-148 961z" />
    <glyph glyph-name="Ygrave" unicode="&#x1ef2;" horiz-adv-x="1157" 
d="M455 0h-45l127 618l-330 809h47l311 -763l619 763h53l-657 -815zM756 1526h-37l-94 297h51z" />
    <glyph glyph-name="ygrave" unicode="&#x1ef3;" horiz-adv-x="980" 
d="M55 -395l254 407l-196 1020h43l186 -966l608 966h49l-897 -1427h-47zM592 1130h-37l-94 297h51z" />
    <glyph glyph-name="endash" unicode="&#x2013;" horiz-adv-x="966" 
d="M827 518h-766l7 39h766z" />
    <glyph glyph-name="emdash" unicode="&#x2014;" horiz-adv-x="1507" 
d="M1368 518h-1307l7 39h1306z" />
    <glyph glyph-name="quoteleft" unicode="&#x2018;" horiz-adv-x="333" 
d="M168 911h-57l338 516h43z" />
    <glyph glyph-name="quoteright" unicode="&#x2019;" horiz-adv-x="335" 
d="M84 911h-43l324 516h57z" />
    <glyph glyph-name="quotesinglbase" unicode="&#x201a;" horiz-adv-x="333" 
d="M-238 -262l308 489h57l-322 -489h-43z" />
    <glyph glyph-name="quotedblleft" unicode="&#x201c;" horiz-adv-x="575" 
d="M412 911h-58l338 516h43zM168 911h-57l338 516h43z" />
    <glyph glyph-name="quotedblright" unicode="&#x201d;" horiz-adv-x="579" 
d="M328 911h-43l323 516h58zM84 911h-43l324 516h57z" />
    <glyph glyph-name="quotedblbase" unicode="&#x201e;" horiz-adv-x="573" 
d="M51 -262h-43l307 489h58zM-238 -262l308 489h57l-322 -489h-43z" />
    <glyph glyph-name="dagger" unicode="&#x2020;" horiz-adv-x="622" 
d="M313 616h-41l111 533h-211l8 37h209l47 241h41l-51 -241h209l-8 -37h-209z" />
    <glyph glyph-name="daggerdbl" unicode="&#x2021;" horiz-adv-x="622" 
d="M311 616h-41l49 242h-206l8 37h209l51 254h-209l8 37h209l47 241h41l-51 -241h209l-8 -37h-209l-51 -254h208l-8 -37h-209z" />
    <glyph glyph-name="bullet" unicode="&#x2022;" horiz-adv-x="366" 
d="M137 451q-26 0 -43.5 16.5t-17.5 42.5q0 31 21.5 53.5t52.5 22.5q26 0 43.5 -18t17.5 -44q0 -31 -21.5 -52t-52.5 -21z" />
    <glyph glyph-name="ellipsis" unicode="&#x2026;" horiz-adv-x="825" 
d="M492 27q0 18 11.5 30.5t28.5 12.5q37 0 37 -35q0 -17 -12 -30t-29 -13q-36 0 -36 35zM233 27q0 17 13 30t30 13q37 0 37 -35q0 -18 -12.5 -30.5t-30.5 -12.5q-37 0 -37 35zM-23 27q0 17 12 30t29 13q37 0 37 -35q0 -17 -12 -30t-29 -13q-37 0 -37 35z" />
    <glyph glyph-name="perthousand" unicode="&#x2030;" horiz-adv-x="2201" 
d="M461 801q-130 0 -213.5 78.5t-83.5 201.5q0 143 104 250q109 109 250 109q130 0 214.5 -81t84.5 -206q0 -136 -102 -244t-254 -108zM143 0h-51l1215 1427h51zM465 838q133 0 223 96t90 215q0 112 -73 183t-189 71q-123 0 -219 -96q-92 -95 -92 -222q0 -109 72.5 -178
t187.5 -69zM1380 270q0 142 105 250q109 109 250 109q130 0 214.5 -81t84.5 -206q0 -135 -103 -244q-102 -108 -254 -108q-130 0 -213.5 78.5t-83.5 201.5zM629 270q0 143 104 250q109 109 250 109q130 0 214.5 -81t84.5 -206q0 -136 -102 -244t-254 -108
q-130 0 -213.5 78.5t-83.5 201.5zM1421 274q0 -109 72.5 -178t187.5 -69q134 0 224 96t90 215q0 112 -73 183t-189 71q-124 0 -220 -96q-92 -95 -92 -222zM670 274q0 -109 72.5 -178t187.5 -69q133 0 223 96t90 215q0 112 -73 183t-189 71q-123 0 -219 -96q-92 -95 -92 -222
z" />
    <glyph glyph-name="guilsinglleft" unicode="&#x2039;" horiz-adv-x="446" 
d="M246 160h-45l-154 358l297 359h53l-301 -363z" />
    <glyph glyph-name="guilsinglright" unicode="&#x203a;" horiz-adv-x="446" 
d="M23 160h-54l301 362l-149 355h45l153 -359z" />
    <glyph glyph-name="fraction" unicode="&#x2044;" horiz-adv-x="1028" 
d="M1145 1427l-1215 -1427h-45l1215 1427h45z" />
    <glyph glyph-name="zerosuperior" unicode="&#x2070;" horiz-adv-x="827" 
d="M420 655q-104 0 -168 57.5t-64 149.5q0 59 37 223l33 127q29 109 103.5 170.5t179.5 61.5q100 0 164.5 -58t64.5 -149q0 -47 -35 -205l-35 -151q-59 -226 -280 -226zM424 690q192 0 242 201q16 49 34 141q35 169 35 201q0 75 -56 125.5t-140 50.5q-88 0 -152.5 -52.5
t-93.5 -148.5q-27 -121 -31 -127q-37 -164 -37 -217q0 -80 53.5 -127t145.5 -47z" />
    <glyph glyph-name="foursuperior" unicode="&#x2074;" horiz-adv-x="720" 
d="M571 860h-452l6 27l377 540h39l-373 -534h412l38 188h35l-84 -409h-34z" />
    <glyph glyph-name="fivesuperior" unicode="&#x2075;" horiz-adv-x="757" 
d="M109 811l32 14q20 -63 81 -100t145 -37q120 0 192 78q74 77 74 180q0 86 -59.5 142.5t-151.5 56.5q-89 0 -160 -62l-26 17l126 327h345l-9 -32h-311l-102 -256q56 39 141 39q106 0 173 -64t67 -168q0 -115 -84 -205q-83 -86 -220 -86q-89 0 -159 42t-94 114z" />
    <glyph glyph-name="sixsuperior" unicode="&#x2076;" horiz-adv-x="794" 
d="M412 655q-102 0 -169 66t-67 166q0 112 113 231l301 312h45l-270 -281q44 20 100 20q101 0 168 -63t67 -162q0 -113 -84 -203q-83 -86 -204 -86zM416 688q106 0 178 78t72 174q0 86 -58.5 141.5t-150.5 55.5q-101 0 -174 -76q-72 -78 -72 -174q0 -87 57.5 -143t147.5 -56
z" />
    <glyph glyph-name="sevensuperior" unicode="&#x2077;" horiz-adv-x="735" 
d="M281 672h-43l497 723h-444l8 32h489l-2 -20z" />
    <glyph glyph-name="eightsuperior" unicode="&#x2078;" horiz-adv-x="784" 
d="M418 659q-98 0 -160.5 58.5t-62.5 152.5q0 95 63 164q67 73 148 82q-72 44 -72 135q0 79 60.5 137t140.5 58q73 0 121.5 -45.5t48.5 -114.5q0 -63 -39 -115t-99 -71q54 -23 85.5 -71.5t31.5 -110.5q0 -93 -72 -177q-70 -82 -194 -82zM504 1120q68 0 117 49.5t49 112.5
q0 57 -38.5 93t-99.5 36q-67 0 -114 -48t-47 -112q0 -57 36.5 -94t96.5 -37zM420 694q99 0 164 68t65 153q0 78 -52.5 127.5t-137.5 49.5q-93 0 -162 -66q-68 -65 -68 -154q0 -78 53 -128t138 -50z" />
    <glyph glyph-name="ninesuperior" unicode="&#x2079;" horiz-adv-x="817" 
d="M348 670h-45l277 282q-33 -20 -99 -20q-104 0 -170.5 63.5t-66.5 161.5q0 119 84 203t204 84q103 0 168.5 -63.5t65.5 -163.5q0 -121 -98 -222zM487 965q109 0 175 75q69 75 69 174q0 86 -56.5 141.5t-144.5 55.5q-104 0 -178 -74q-73 -73 -73 -176q0 -87 57.5 -141.5
t150.5 -54.5z" />
    <glyph glyph-name="zero.inferior" unicode="&#x2080;" horiz-adv-x="806" 
d="M43 190q0 60 37 224l33 127q29 109 103 170t179 61q103 0 167.5 -58t64.5 -149q0 -27 -35 -205l-35 -151q-59 -225 -283 -225q-104 0 -167.5 57t-63.5 149zM80 193q0 -80 53.5 -127.5t145.5 -47.5q193 0 243 201q18 57 35 141q35 169 35 201q0 75 -56.5 125.5
t-142.5 50.5q-88 0 -152.5 -52t-93.5 -148q-27 -123 -30 -127q-37 -164 -37 -217z" />
    <glyph glyph-name="one.inferior" unicode="&#x2081;" horiz-adv-x="468" 
d="M119 0h-35l145 723h-98l8 33h133z" />
    <glyph glyph-name="two.inferior" unicode="&#x2082;" horiz-adv-x="706" 
d="M434 0h-463l4 27l451 419q74 68 74 134q0 69 -44.5 114t-113.5 45q-71 0 -123.5 -44.5t-73.5 -119.5l-34 3q25 89 86.5 141.5t146.5 52.5t139 -53.5t54 -138.5q0 -78 -84 -156l-422 -391h409z" />
    <glyph glyph-name="three.inferior" unicode="&#x2083;" horiz-adv-x="741" 
d="M-18 166l32 8q17 -73 77 -114.5t151 -41.5q105 0 178 70q74 71 74 170q0 80 -56.5 130t-148.5 50q-41 0 -72 -8l-12 23l317 270h-368l6 33h426l-4 -25l-320 -268q20 4 51 4q92 0 153.5 -59.5t61.5 -147.5q0 -110 -84 -194q-83 -80 -204 -80q-102 0 -171.5 49t-86.5 131z
" />
    <glyph glyph-name="four.inferior" unicode="&#x2084;" horiz-adv-x="720" 
d="M436 188h-452l6 27l377 541h39l-373 -535h411l39 189h35l-84 -410h-35z" />
    <glyph glyph-name="five.inferior" unicode="&#x2085;" horiz-adv-x="755" 
d="M-25 139l33 15q20 -63 80.5 -100.5t144.5 -37.5q121 0 193 78q74 77 74 180q0 86 -59.5 142.5t-151.5 56.5q-90 0 -160 -61l-27 16l127 328h344l-8 -33h-311l-102 -256q56 39 141 39q106 0 172.5 -64t66.5 -168q0 -115 -83 -204q-83 -86 -220 -86q-90 0 -160 41.5
t-94 113.5z" />
    <glyph glyph-name="six.inferior" unicode="&#x2086;" horiz-adv-x="794" 
d="M39 215q0 112 113 231l301 312h45l-271 -281q47 21 101 21q101 0 168 -63.5t67 -162.5q0 -112 -84 -202q-83 -86 -205 -86q-102 0 -168.5 65.5t-66.5 165.5zM74 215q0 -87 57.5 -143t147.5 -56q106 0 178 78q71 77 71 174q0 86 -58.5 141.5t-150.5 55.5q-101 0 -174 -76
q-71 -77 -71 -174z" />
    <glyph glyph-name="seven.inferior" unicode="&#x2087;" horiz-adv-x="739" 
d="M147 0h-43l498 723h-444l8 33h489l-2 -21z" />
    <glyph glyph-name="eight.inferior" unicode="&#x2088;" horiz-adv-x="784" 
d="M47 195q0 93 64 163q67 73 147 82q-72 44 -72 135q0 79 60.5 137t140.5 58q73 0 121.5 -45.5t48.5 -114.5q0 -63 -38.5 -115t-98.5 -71q54 -23 85.5 -71.5t31.5 -110.5q0 -92 -72 -176q-70 -82 -195 -82q-98 0 -160.5 58.5t-62.5 152.5zM356 444q68 0 117 49.5t49 112.5
q0 57 -38 93t-99 36q-67 0 -114.5 -48t-47.5 -112q0 -57 36.5 -94t96.5 -37zM82 197q0 -78 53 -128.5t137 -50.5q99 0 164 68q66 69 66 154q0 78 -53 127t-138 49q-92 0 -161 -66q-68 -65 -68 -153z" />
    <glyph glyph-name="nine.inferior" unicode="&#x2089;" horiz-adv-x="800" 
d="M211 0h-45l274 281q-34 -21 -98 -21q-104 0 -171 63.5t-67 161.5q0 119 84 203t205 84q103 0 168.5 -63.5t65.5 -163.5q0 -119 -99 -221zM348 293q107 0 174 76q70 76 70 174q0 86 -56.5 141t-144.5 55q-105 0 -178 -73q-74 -74 -74 -177q0 -87 58 -141.5t151 -54.5z" />
    <glyph glyph-name="Euro" unicode="&#x20ac;" horiz-adv-x="1552" 
d="M244 545h-193l29 39h162q-2 10 -2 45q0 114 36 235h-112l29 41h94q82 236 276 389q195 154 432 154q182 0 325.5 -83t223.5 -230l-35 -27q-74 141 -209 220t-305 79q-217 0 -399 -141q-177 -140 -258 -361h651l-26 -41h-639q-37 -112 -37 -235q0 -35 2 -45h504l-27 -39
h-475q27 -234 184 -379q158 -146 393 -146q278 0 471 205l27 -30q-206 -215 -500 -215q-258 0 -426 155q-169 156 -196 410z" />
    <glyph glyph-name="uni2113" unicode="&#x2113;" horiz-adv-x="886" 
d="M119 346l-129 -92l-13 37q85 59 148 106l131 643q80 402 326 402q91 0 144.5 -57t53.5 -150q0 -136 -75.5 -279t-206.5 -280.5t-334 -300.5q-21 -120 -21 -150q0 -95 53.5 -148.5t151.5 -53.5q158 0 279 161l28 -24q-141 -176 -319 -176q-106 0 -170 63t-64 168
q0 31 17 131zM301 1047l-127 -617q123 102 199 178q101 97 176 189q190 218 190 436q0 75 -45.5 122.5t-118.5 47.5q-201 0 -274 -356z" />
    <glyph glyph-name="uni2116" unicode="&#x2116;" horiz-adv-x="2289" 
d="M1442 946q0 177 125 305q125 131 301 131q159 0 260 -98q102 -99 102 -252q0 -167 -123 -299q-122 -131 -307 -131q-156 0 -260 96q-98 94 -98 248zM1487 950q0 -135 88 -221t227 -86q166 0 273 119q110 119 110 266q0 139 -89 226t-230 87q-154 0 -267 -116
q-112 -115 -112 -275zM2075 408h-703l8 41h701zM104 0h-45l291 1427h37l617 -1339l270 1339h45l-291 -1427h-33l-618 1350z" />
    <glyph glyph-name="trademark" unicode="&#x2122;" horiz-adv-x="1593" 
d="M760 668h-43l155 759h13l245 -505l459 505h13l-154 -759h-43l127 632l-412 -442l-227 463zM358 668h-43l148 718h-264l8 41h571l-8 -41h-264z" />
    <glyph glyph-name="Omega" unicode="&#x2126;" horiz-adv-x="1570" 
d="M528 0h-440l8 41h301q-128 85 -211 262q-82 177 -82 365q0 313 222 546q226 232 530 232q277 0 453 -170t176 -434q0 -243 -150 -471q-147 -229 -377 -330h244l-8 -41h-440q300 77 491 317q195 245 195 521q0 251 -164 407q-165 160 -422 160q-289 0 -498 -221t-209 -520
q0 -200 105 -394q109 -194 276 -270z" />
    <glyph glyph-name="estimated" unicode="&#x212e;" horiz-adv-x="1894" 
d="M360 735l-102 -502q193 -239 541 -239q192 0 377.5 75.5t320.5 209.5h27q-142 -142 -334.5 -223t-392.5 -81q-306 0 -502 187q-197 188 -197 471q0 236 142 446q140 210 374 336q235 125 498 125q90 0 180 -20t184.5 -70.5t166 -126t117.5 -198t46 -275.5q0 -54 -12 -100
l-2 -15h-1432zM475 1298l-110 -544h1181l107 528q-193 240 -543 240q-354 0 -635 -224z" />
    <glyph glyph-name="onethird" unicode="&#x2153;" horiz-adv-x="1484" 
d="M33 0h-45l1188 1427h45zM264 672h-35l148 723h-98l6 32h133zM719 166l33 8q17 -73 76.5 -114.5t150.5 -41.5q105 0 178 70q74 71 74 170q0 80 -56.5 130t-148.5 50q-41 0 -72 -8l-12 23l318 270h-369l6 33h426l-4 -25l-320 -268q20 4 52 4q92 0 153.5 -59.5t61.5 -147.5
q0 -110 -84 -194q-83 -80 -205 -80q-102 0 -171.5 49t-86.5 131z" />
    <glyph glyph-name="twothirds" unicode="&#x2154;" horiz-adv-x="1566" 
d="M211 0h-45l1188 1427h45zM801 166l33 8q17 -73 76.5 -114.5t150.5 -41.5q105 0 178 70q74 71 74 170q0 80 -56.5 130t-148.5 50q-41 0 -72 -8l-12 23l317 270h-368l6 33h426l-4 -25l-320 -268q20 4 52 4q92 0 153.5 -59.5t61.5 -147.5q0 -110 -84 -194q-83 -80 -205 -80
q-102 0 -171.5 49t-86.5 131zM580 672h-463l4 26l450 420q74 68 74 133q0 69 -44.5 114.5t-113.5 45.5q-71 0 -123 -44.5t-73 -119.5l-35 2q25 89 86.5 142t146.5 53t139 -54t54 -139q0 -77 -84 -155l-422 -391h410z" />
    <glyph glyph-name="arrowleft" unicode="&#x2190;" horiz-adv-x="1284" 
d="M362 201l-32 -27l-289 358l436 361l25 -33l-371 -307h1030l-10 -41h-1038z" />
    <glyph glyph-name="arrowup" unicode="&#x2191;" horiz-adv-x="1325" 
d="M539 0h-45l206 1012l-362 -303l-25 30l426 357l281 -357l-31 -26l-244 307z" />
    <glyph glyph-name="arrowright" unicode="&#x2192;" horiz-adv-x="1284" 
d="M1079 512h-1030l8 41h1041l-250 311l33 27l288 -359l-436 -360l-26 33z" />
    <glyph glyph-name="arrowdown" unicode="&#x2193;" horiz-adv-x="1325" 
d="M504 -55l-283 354l31 29l246 -310l204 1014h46l-205 -1005l360 303l27 -31z" />
    <glyph glyph-name="arrowboth" unicode="&#x2194;" horiz-adv-x="1622" 
d="M362 201l-32 -27l-289 358l436 361l25 -31l-371 -309h1305l-250 313l33 27l286 -361l-434 -358l-27 31l371 307h-1302z" />
    <glyph glyph-name="arrowupdn" unicode="&#x2195;" horiz-adv-x="1325" 
d="M498 -86l-275 346l31 27l238 -299l217 1065l-351 -293l-26 31l416 346l274 -346l-31 -27l-237 299l-217 -1065l350 293l26 -31z" />
    <glyph glyph-name="arrownorthwest" unicode="&#x2196;" horiz-adv-x="1325" 
d="M231 442h-43l105 510h512l-10 -43h-443l619 -774l-33 -29l-616 775z" />
    <glyph glyph-name="arrownortheast" unicode="&#x2197;" horiz-adv-x="1325" 
d="M1071 877l-930 -773l-26 33l932 772h-437l8 43h512l-104 -510h-45z" />
    <glyph glyph-name="arrowsoutheast" unicode="&#x2198;" horiz-adv-x="1325" 
d="M956 98h-512l11 43h442l-618 774l32 29l617 -774l90 438h43z" />
    <glyph glyph-name="arrowsouthwest" unicode="&#x2199;" horiz-adv-x="1325" 
d="M631 98h-512l104 510h45l-90 -434l930 772l25 -35l-930 -770h436z" />
    <glyph glyph-name="partialdiff" unicode="&#x2202;" horiz-adv-x="1032" 
d="M14 346q0 214 142 371t338 157q140 0 230.5 -90t98.5 -233q0 -65 -10 -113q109 279 109 508q0 226 -88 356t-242 130q-131 0 -225 -125l-27 24q100 142 254 142q172 0 271.5 -140.5t99.5 -382.5q0 -279 -150 -602q-163 -362 -457 -362q-154 0 -247 100q-97 105 -97 260z
M57 346q0 -141 85 -230t220 -89q161 0 291 139q129 138 129 362q0 135 -82 220q-82 88 -208 88q-176 0 -306 -148q-129 -144 -129 -342z" />
    <glyph glyph-name="increment" unicode="&#x2206;" horiz-adv-x="1273" 
d="M1055 0h-1123l5 29l829 1398h37l256 -1398zM774 1360l-780 -1319h1020z" />
    <glyph glyph-name="product" unicode="&#x220f;" horiz-adv-x="1284" 
d="M188 0h-43l283 1386h-211l8 41h1125l-9 -41h-211l-282 -1386h-43l282 1386h-616z" />
    <glyph glyph-name="summation" unicode="&#x2211;" horiz-adv-x="1189" 
d="M922 0h-977l6 33l663 723l-352 639l6 32h922l-8 -41h-867l351 -636l-650 -709h914z" />
    <glyph glyph-name="minus" unicode="&#x2212;" horiz-adv-x="819" 
d="M713 696h-615l8 39h615z" />
    <glyph glyph-name="radical" unicode="&#x221a;" horiz-adv-x="1484" 
d="M301 780l-203 -82l-8 39l244 97l233 -1051l975 1855h45l-1009 -1923h-37z" />
    <glyph glyph-name="infinity" unicode="&#x221e;" horiz-adv-x="1572" 
d="M371 414q-121 0 -196 64t-75 167q0 116 97 207q96 90 227 90q173 0 362 -235l52 45l57 51l51 41q23 19 39 29t40 21.5t34 16.5q58 31 129 31q118 0 192 -66t74 -171q0 -112 -92 -201q-93 -90 -227 -90q-168 0 -355 233q-127 -122 -219 -177.5t-190 -55.5zM860 719
l-49 -45q180 -219 328 -219q119 0 194 75q78 78 78 170q0 88 -63.5 144.5t-163.5 56.5q-59 9 -166 -55q-10 -5 -55 -41l-50 -39zM377 455q65 0 135 37q79 41 119 75q83 72 125 111q-183 223 -334 223q-113 0 -195 -76t-82 -178q0 -85 64.5 -138.5t167.5 -53.5z" />
    <glyph glyph-name="integral" unicode="&#x222b;" horiz-adv-x="667" 
d="M-25 -170q118 0 164 76q47 70 82 235q24 119 96 578q72 446 93 551q32 183 98.5 266.5t193.5 83.5q11 0 26 -2.5t26 -5.5l10 -2l-6 -37l-8 2q-42 6 -52 6q-107 0 -161.5 -75.5t-85.5 -239.5l-86 -531q-81 -496 -101 -600q-36 -189 -98.5 -266.5t-192.5 -77.5
q-43 0 -67 12l6 37q23 -10 63 -10z" />
    <glyph glyph-name="approxequal" unicode="&#x2248;" horiz-adv-x="825" 
d="M125 807l-31 6q52 123 193 123q65 0 153 -55q94 -54 152 -54q109 0 156 93l30 -2q-24 -58 -74 -92.5t-118 -34.5q-71 0 -160 53q-88 55 -145 55q-51 0 -94.5 -24.5t-61.5 -67.5zM80 530l-31 7q52 122 193 122q67 0 155 -55q89 -53 150 -53q114 0 155 92l33 -2
q-53 -127 -194 -127q-71 0 -160 53q-89 56 -143 56q-117 0 -158 -93z" />
    <glyph glyph-name="notequal" unicode="&#x2260;" horiz-adv-x="905" 
d="M360 586l-241 -305l-31 18l225 287h-237l8 39h260l162 202h-381l8 39h404l241 303l29 -20l-225 -283h252l-9 -39h-274l-160 -202h393l-8 -39h-416z" />
    <glyph glyph-name="lessequal" unicode="&#x2264;" horiz-adv-x="827" 
d="M592 100h-631l8 39h631zM635 313l-541 398l6 34l705 400l-10 -53l-652 -367l502 -367z" />
    <glyph glyph-name="greaterequal" unicode="&#x2265;" horiz-adv-x="823" 
d="M612 100h-630l8 39h631zM727 713l-704 -400l10 54l651 366l-502 367l11 45l542 -397z" />
    <glyph glyph-name="triagup" unicode="&#x25b2;" horiz-adv-x="694" 
d="M440 438h-299l199 256z" />
    <glyph glyph-name="triagrt" unicode="&#x25ba;" horiz-adv-x="694" 
d="M457 553l-285 -152l59 299z" />
    <glyph glyph-name="triagdn" unicode="&#x25bc;" horiz-adv-x="694" 
d="M485 664l-202 -254l-97 254h299z" />
    <glyph glyph-name="triaglf" unicode="&#x25c4;" horiz-adv-x="694" 
d="M395 401l-223 152l285 147z" />
    <glyph glyph-name="lozenge" unicode="&#x25ca;" horiz-adv-x="1083" 
d="M412 0h-33l-293 715l586 712h28l295 -714zM135 709l268 -654l543 664l-268 651z" />
    <glyph glyph-name="uni25E2" unicode="&#x25e2;" horiz-adv-x="694" 
d="M412 428l-275 74l256 211z" />
    <glyph glyph-name="uni25E3" unicode="&#x25e3;" horiz-adv-x="694" 
d="M469 502l-301 -72l133 283z" />
    <glyph glyph-name="uni25E4" unicode="&#x25e4;" horiz-adv-x="694" 
d="M483 621l-252 -211l-18 282z" />
    <glyph glyph-name="uni25E5" unicode="&#x25e5;" horiz-adv-x="694" 
d="M473 692l-131 -286l-168 210z" />
    <glyph glyph-name="CR" horiz-adv-x="681" 
 />
    <glyph glyph-name="space.frac" horiz-adv-x="61" 
 />
    <glyph glyph-name="C.alt" horiz-adv-x="1411" 
d="M96 625q0 326 238 573q236 248 569 248q304 0 490 -162l-11 -45q-187 166 -481 166q-315 0 -539 -236q-223 -235 -223 -542q0 -267 178 -439q179 -170 459 -170q228 0 408 113l-10 -49q-172 -105 -402 -105q-298 0 -487 183t-189 465z" />
    <glyph glyph-name="G.alt" horiz-adv-x="1568" 
d="M96 623q0 327 242 575q244 250 565 250q141 0 276.5 -44.5t219.5 -123.5l-10 -47q-80 78 -214.5 126t-275.5 48q-298 0 -528 -236t-230 -540q0 -264 183 -438q182 -173 452 -173q145 0 280 42.5t220 119.5l104 518h-538l10 41h582l-119 -581q-92 -85 -238.5 -132.5
t-304.5 -47.5q-289 0 -483 182q-193 184 -193 461z" />
    <glyph glyph-name="K.alt" horiz-adv-x="1146" 
d="M104 0h-45l291 1427h45l-137 -667l866 667h66l-897 -692l625 -735h-56l-612 721z" />
    <glyph glyph-name="M.alt" horiz-adv-x="1738" 
d="M-27 0h-45l561 1427h29l219 -1351l758 1351h31v-1427h-43v1321l-742 -1321h-32l-215 1321z" />
    <glyph glyph-name="Q.alt" horiz-adv-x="1683" 
d="M96 627q0 326 238 573q236 248 569 248q303 0 492 -186q190 -184 190 -474q0 -176 -79.5 -340t-219.5 -282l125 -166h-51l-107 141q-208 -161 -479 -161q-300 0 -489 180q-189 183 -189 467zM141 629q0 -266 176 -439q179 -170 459 -170q247 0 451 154l-332 440h51
l314 -415q131 109 205.5 265t74.5 322q0 272 -178 447q-177 174 -461 174q-312 0 -536 -236t-224 -542z" />
    <glyph glyph-name="S.alt" horiz-adv-x="1081" 
d="M16 190l11 56q54 -103 165 -164.5t242 -61.5q217 0 324 107q108 108 108 248q0 126 -75 207q-70 76 -236 182q-87 55 -131 88q-51 40 -90 107.5t-39 136.5q0 154 115 254q113 98 284 98q184 0 295 -123l-10 -47q-111 129 -287 129q-153 0 -254 -88q-98 -85 -98 -219
q0 -92 56 -157t186 -144q161 -101 247 -197q82 -88 82 -227q0 -156 -116 -275q-117 -120 -363 -120q-132 0 -246.5 57t-169.5 153z" />
    <glyph glyph-name="W.alt" horiz-adv-x="1882" 
d="M489 0h-32l-240 1427h43l225 -1351l463 796l-96 555h43l88 -499l291 499h49l-324 -555l134 -788l774 1343h51l-825 -1427h-29l-139 815z" />
    <glyph glyph-name="Cacute.alt" horiz-adv-x="1411" 
d="M96 625q0 326 238 573q236 248 569 248q304 0 490 -162l-11 -45q-187 166 -481 166q-315 0 -539 -236q-223 -235 -223 -542q0 -267 178 -439q179 -170 459 -170q228 0 408 113l-10 -49q-172 -105 -402 -105q-298 0 -487 183t-189 465zM1022 1526h-41l199 297h53z" />
    <glyph glyph-name="Ccircumflex.alt" horiz-adv-x="1411" 
d="M766 1575h-66l322 248h51l217 -248h-55l-186 215zM96 625q0 326 238 573q236 248 569 248q304 0 490 -162l-11 -45q-187 166 -481 166q-315 0 -539 -236q-223 -235 -223 -542q0 -267 178 -439q179 -170 459 -170q228 0 408 113l-10 -49q-172 -105 -402 -105
q-298 0 -487 183t-189 465z" />
    <glyph glyph-name="Ccaron.alt" horiz-adv-x="1411" 
d="M1044 1575h-51l-217 248h55l187 -215l282 215h66zM96 625q0 326 238 573q236 248 569 248q304 0 490 -162l-11 -45q-187 166 -481 166q-315 0 -539 -236q-223 -235 -223 -542q0 -267 178 -439q179 -170 459 -170q228 0 408 113l-10 -49q-172 -105 -402 -105
q-298 0 -487 183t-189 465z" />
    <glyph glyph-name="Cdotaccent.alt" horiz-adv-x="1411" 
d="M1018 1587q-37 0 -37 35q0 18 12.5 30.5t30.5 12.5q37 0 37 -37q0 -17 -12 -29t-31 -12zM96 625q0 326 238 573q236 248 569 248q304 0 490 -162l-11 -45q-187 166 -481 166q-315 0 -539 -236q-223 -235 -223 -542q0 -267 178 -439q179 -170 459 -170q228 0 408 113
l-10 -49q-172 -105 -402 -105q-298 0 -487 183t-189 465z" />
    <glyph glyph-name="Ccedilla.alt" horiz-adv-x="1411" 
d="M469 -297l18 23q39 -33 99 -33q43 0 70.5 22.5t27.5 57.5q0 69 -98 69q-24 0 -45 -6l96 154q-245 41 -393 211q-148 177 -148 424q0 326 238 573q236 248 569 248q304 0 490 -162l-11 -45q-187 166 -481 166q-315 0 -539 -236q-223 -235 -223 -542q0 -267 178 -439
q179 -170 459 -170q228 0 408 113l-10 -49q-172 -105 -402 -105q-4 0 -15 1t-36 2.5t-47 3.5l-78 -121l18 2q50 0 78.5 -24.5t28.5 -67.5q0 -49 -37.5 -80t-97.5 -31q-76 0 -117 41z" />
    <glyph glyph-name="Gcircumflex.alt" horiz-adv-x="1568" 
d="M96 623q0 327 242 575q244 250 565 250q141 0 276.5 -44.5t219.5 -123.5l-10 -47q-80 78 -214.5 126t-275.5 48q-298 0 -528 -236t-230 -540q0 -264 183 -438q182 -173 452 -173q145 0 280 42.5t220 119.5l104 518h-538l10 41h582l-119 -581q-92 -85 -238.5 -132.5
t-304.5 -47.5q-289 0 -483 182q-193 184 -193 461zM764 1575h-66l322 248h51l217 -248h-55l-186 215z" />
    <glyph glyph-name="Gbreve.alt" horiz-adv-x="1568" 
d="M96 623q0 327 242 575q244 250 565 250q141 0 276.5 -44.5t219.5 -123.5l-10 -47q-80 78 -214.5 126t-275.5 48q-298 0 -528 -236t-230 -540q0 -264 183 -438q182 -173 452 -173q145 0 280 42.5t220 119.5l104 518h-538l10 41h582l-119 -581q-92 -85 -238.5 -132.5
t-304.5 -47.5q-289 0 -483 182q-193 184 -193 461zM997 1536q-87 0 -135.5 49.5t-48.5 140.5h41q3 -151 150 -151t206 151h41q-29 -90 -96 -140t-158 -50z" />
    <glyph glyph-name="Gdotaccent.alt" horiz-adv-x="1568" 
d="M1016 1587q-37 0 -37 35q0 17 12 30t29 13q37 0 37 -37q0 -17 -12 -29t-29 -12zM96 623q0 327 242 575q244 250 565 250q141 0 276.5 -44.5t219.5 -123.5l-10 -47q-80 78 -214.5 126t-275.5 48q-298 0 -528 -236t-230 -540q0 -264 183 -438q182 -173 452 -173
q145 0 280 42.5t220 119.5l104 518h-538l10 41h582l-119 -581q-92 -85 -238.5 -132.5t-304.5 -47.5q-289 0 -483 182q-193 184 -193 461z" />
    <glyph glyph-name="Gcommaaccent.alt" horiz-adv-x="1568" 
d="M96 623q0 327 242 575q244 250 565 250q141 0 276.5 -44.5t219.5 -123.5l-10 -47q-80 78 -214.5 126t-275.5 48q-298 0 -528 -236t-230 -540q0 -264 183 -438q182 -173 452 -173q145 0 280 42.5t220 119.5l104 518h-538l10 41h582l-119 -581q-92 -85 -238.5 -132.5
t-304.5 -47.5q-289 0 -483 182q-193 184 -193 461zM487 -395h-41l199 297h53z" />
    <glyph glyph-name="Kcommaaccent.alt" horiz-adv-x="1146" 
d="M104 0h-45l291 1427h45l-137 -667l866 667h66l-897 -692l625 -735h-56l-612 721zM240 -395l198 297h54l-211 -297h-41z" />
    <glyph glyph-name="Sacute.alt" horiz-adv-x="1081" 
d="M16 190l11 56q54 -103 165 -164.5t242 -61.5q217 0 324 107q108 108 108 248q0 126 -75 207q-70 76 -236 182q-87 55 -131 88q-51 40 -90 107.5t-39 136.5q0 154 115 254q113 98 284 98q184 0 295 -123l-10 -47q-111 129 -287 129q-153 0 -254 -88q-98 -85 -98 -219
q0 -92 56 -157t186 -144q161 -101 247 -197q82 -88 82 -227q0 -156 -116 -275q-117 -120 -363 -120q-132 0 -246.5 57t-169.5 153zM719 1526h-41l199 297h53z" />
    <glyph glyph-name="Scircumflex.alt" horiz-adv-x="1081" 
d="M16 190l11 56q54 -103 165 -164.5t242 -61.5q217 0 324 107q108 108 108 248q0 126 -75 207q-70 76 -236 182q-87 55 -131 88q-51 40 -90 107.5t-39 136.5q0 154 115 254q113 98 284 98q184 0 295 -123l-10 -47q-111 129 -287 129q-153 0 -254 -88q-98 -85 -98 -219
q0 -92 56 -157t186 -144q161 -101 247 -197q82 -88 82 -227q0 -156 -116 -275q-117 -120 -363 -120q-132 0 -246.5 57t-169.5 153zM487 1575h-65l321 248h52l217 -248h-56l-186 215z" />
    <glyph glyph-name="Scaron.alt" horiz-adv-x="1081" 
d="M16 190l11 56q54 -103 165 -164.5t242 -61.5q217 0 324 107q108 108 108 248q0 126 -75 207q-70 76 -236 182q-87 55 -131 88q-51 40 -90 107.5t-39 136.5q0 154 115 254q113 98 284 98q184 0 295 -123l-10 -47q-111 129 -287 129q-153 0 -254 -88q-98 -85 -98 -219
q0 -92 56 -157t186 -144q161 -101 247 -197q82 -88 82 -227q0 -156 -116 -275q-117 -120 -363 -120q-132 0 -246.5 57t-169.5 153zM764 1575h-51l-217 248h55l186 -215l283 215h65z" />
    <glyph glyph-name="Scommaaccent.alt" horiz-adv-x="1081" 
d="M16 190l11 56q54 -103 165 -164.5t242 -61.5q217 0 324 107q108 108 108 248q0 126 -75 207q-70 76 -236 182q-87 55 -131 88q-51 40 -90 107.5t-39 136.5q0 154 115 254q113 98 284 98q184 0 295 -123l-10 -47q-111 129 -287 129q-153 0 -254 -88q-98 -85 -98 -219
q0 -92 56 -157t186 -144q161 -101 247 -197q82 -88 82 -227q0 -156 -116 -275q-117 -120 -363 -120q-132 0 -246.5 57t-169.5 153zM217 -395l199 297h53l-211 -297h-41z" />
    <glyph glyph-name="Scedilla.alt" horiz-adv-x="1081" 
d="M250 -297l18 29q39 -33 97 -33q42 0 70 21.5t28 52.5q0 67 -92 67q-27 0 -54 -6l93 146q-125 5 -232.5 61.5t-161.5 148.5l11 56q54 -103 165 -164.5t242 -61.5q217 0 324 107q108 108 108 248q0 126 -75 207q-70 76 -236 182q-87 55 -131 88q-51 40 -90 107.5t-39 136.5
q0 154 115 254q113 98 284 98q184 0 295 -123l-10 -47q-111 129 -287 129q-153 0 -254 -88q-98 -85 -98 -219q0 -92 56 -157t186 -144q161 -101 247 -197q82 -88 82 -227q0 -53 -14.5 -105.5t-49 -105t-85.5 -92t-130.5 -65t-176.5 -27.5l-70 -107h6q115 0 115 -100
q0 -50 -39 -80.5t-102 -30.5q-77 0 -115 41z" />
    <glyph glyph-name="Wgrave.alt" horiz-adv-x="1882" 
d="M489 0h-32l-240 1427h43l225 -1351l463 796l-96 555h43l88 -499l291 499h49l-324 -555l134 -788l774 1343h51l-825 -1427h-29l-139 815zM1133 1526h-37l-95 297h52z" />
    <glyph glyph-name="Wacute.alt" horiz-adv-x="1882" 
d="M489 0h-32l-240 1427h43l225 -1351l463 796l-96 555h43l88 -499l291 499h49l-324 -555l134 -788l774 1343h51l-825 -1427h-29l-139 815zM1104 1526h-41l199 297h53z" />
    <glyph glyph-name="Wcircumflex.alt" horiz-adv-x="1882" 
d="M489 0h-32l-240 1427h43l225 -1351l463 796l-96 555h43l88 -499l291 499h49l-324 -555l134 -788l774 1343h51l-825 -1427h-29l-139 815zM874 1575h-65l321 248h52l217 -248h-56l-186 215z" />
    <glyph glyph-name="Wdieresis.alt" horiz-adv-x="1882" 
d="M1331 1579q-35 0 -35 35q0 17 12 30t29 13q37 0 37 -37q0 -17 -12 -29t-31 -12zM907 1579q-37 0 -37 35q0 18 12.5 30.5t30.5 12.5q16 0 26.5 -11.5t10.5 -25.5q0 -17 -12 -29t-31 -12zM489 0h-32l-240 1427h43l225 -1351l463 796l-96 555h43l88 -499l291 499h49
l-324 -555l134 -788l774 1343h51l-825 -1427h-29l-139 815z" />
    <glyph glyph-name="a.alt" horiz-adv-x="1048" 
d="M14 238q0 198 160 270q140 66 338 80q198 18 266 74t68 143q0 92 -80 150.5t-205 58.5q-231 0 -330 -205l-30 25q112 219 364 219q140 0 231 -69t91 -179q0 -21 -4 -49l-123 -606q-10 -65 -10 -68q0 -53 57 -53q29 0 37 8v-31q-17 -14 -53 -14q-82 0 -82 74q0 40 12 81
q-100 -167 -381 -167q-150 0 -238 68t-88 190zM57 242q0 -104 76.5 -164t210.5 -60q167 0 272.5 74.5t131.5 208.5l69 344q-64 -79 -311 -100q-164 -13 -256 -47q-193 -65 -193 -256z" />
    <glyph glyph-name="c.alt" horiz-adv-x="1073" 
d="M35 451q0 246 174 423q176 179 418 179q257 0 395 -176l-8 -48q-138 185 -391 185q-223 0 -385 -168q-160 -168 -160 -391q0 -192 127 -316q127 -121 327 -121q197 0 340 119l-10 -53q-137 -104 -334 -104q-219 0 -356 131t-137 340z" />
    <glyph glyph-name="e.alt" horiz-adv-x="1165" 
d="M33 430q0 247 166 434q168 189 401 189q196 0 315 -125q123 -126 123 -324q0 -56 -10 -94h-946q-6 -38 -6 -78q0 -187 117 -301q116 -113 305 -113q210 0 368 152l-10 -61q-150 -132 -358 -132q-210 0 -338 125q-127 127 -127 328zM90 547h901q6 27 6 65q0 178 -112 287
q-110 113 -287 113q-169 0 -317 -127q-144 -126 -191 -338z" />
    <glyph glyph-name="g.alt" horiz-adv-x="1253" 
d="M-27 -225l11 51q53 -96 178 -150.5t282 -54.5q214 0 336 112t170 347l35 172q-158 -272 -473 -272q-213 0 -344 131q-133 133 -133 338q0 233 166 417q169 187 413 187q182 0 312 -95q130 -92 151 -241l66 315h45l-193 -934q-55 -268 -183.5 -392t-371.5 -124
q-143 0 -274 49q-129 45 -193 144zM78 451q0 -191 121 -312q122 -119 315 -119q239 0 387 183t148 428q0 168 -123 276q-119 107 -316 107q-229 0 -381 -174q-151 -174 -151 -389z" />
    <glyph glyph-name="j.alt" horiz-adv-x="309" 
d="M272 1272q-36 0 -36 37q0 17 12 29t31 12q36 0 36 -35q0 -18 -12.5 -30.5t-30.5 -12.5zM242 1032l-291 -1427h-43l291 1427h43z" />
    <glyph glyph-name="k.alt" horiz-adv-x="847" 
d="M31 0h-43l291 1427h43l-175 -858l621 463h61l-651 -489l490 -543h-52l-479 528z" />
    <glyph glyph-name="l.alt" horiz-adv-x="528" 
d="M33 172q0 48 12 107l236 1148h43l-236 -1153q-10 -65 -10 -96q0 -75 41.5 -116.5t116.5 -41.5q47 0 90 19l-13 -43q-25 -14 -84 -14q-94 0 -145 49.5t-51 140.5z" />
    <glyph glyph-name="r.alt" horiz-adv-x="669" 
d="M31 0h-43l147 725q36 173 120 255.5t241 82.5q83 0 149 -16l-8 -39q-46 14 -143 14q-135 0 -209.5 -71t-106.5 -234z" />
    <glyph glyph-name="s.alt" horiz-adv-x="815" 
d="M-27 147l17 48q44 -81 131 -128t192 -47q145 0 225 72t80 178t-67 162q-53 49 -158 105q-96 52 -153 100q-72 63 -72 158q0 112 84 184q86 74 209 74q146 0 229 -95l-14 -43q-76 99 -217 99q-108 0 -178 -62.5t-70 -156.5q0 -81 63 -133q65 -49 132 -84q80 -46 100 -60
q34 -18 76 -57q80 -66 80 -189q0 -115 -91 -206q-89 -86 -260 -86q-105 0 -200.5 46.5t-137.5 120.5z" />
    <glyph glyph-name="t.alt" horiz-adv-x="663" 
d="M96 172q0 44 13 107l145 712h-121l10 41h119l82 395h43l-82 -395h348l-8 -41h-348l-145 -717q-11 -71 -11 -96q0 -75 45 -116.5t129 -41.5q69 0 134 19l-11 -41q-46 -16 -129 -16q-100 0 -156.5 50t-56.5 140z" />
    <glyph glyph-name="u.alt" horiz-adv-x="1079" 
d="M49 348q0 48 12 109l119 575h43l-119 -583q-10 -55 -10 -101q0 -149 88 -238.5t240 -89.5q179 0 288 112t158 349l115 551h43l-211 -1032h-43l43 213q-119 -233 -399 -233q-169 0 -268 100.5t-99 267.5z" />
    <glyph glyph-name="w.alt" horiz-adv-x="1562" 
d="M379 0h-33l-235 1032h43l219 -966l368 577l-94 389h43l82 -346l219 346h47l-250 -397l130 -572l614 969h49l-655 -1032h-35l-133 590z" />
    <glyph glyph-name="y.alt" horiz-adv-x="974" 
d="M193 -182l114 184l-196 1030h43l186 -977l604 977h49l-755 -1220q-60 -93 -76 -115q-30 -44 -89.5 -79.5t-123.5 -35.5q-42 0 -88 17l6 39q34 -15 82 -15q56 0 104 31q45 28 72 60.5t68 103.5z" />
    <glyph glyph-name="agrave.alt" horiz-adv-x="1048" 
d="M14 238q0 198 160 270q140 66 338 80q198 18 266 74t68 143q0 92 -80 150.5t-205 58.5q-231 0 -330 -205l-30 25q112 219 364 219q140 0 231 -69t91 -179q0 -21 -4 -49l-123 -606q-10 -65 -10 -68q0 -53 57 -53q29 0 37 8v-31q-17 -14 -53 -14q-82 0 -82 74q0 40 12 81
q-100 -167 -381 -167q-150 0 -238 68t-88 190zM57 242q0 -104 76.5 -164t210.5 -60q167 0 272.5 74.5t131.5 208.5l69 344q-64 -79 -311 -100q-164 -13 -256 -47q-193 -65 -193 -256zM647 1130h-37l-94 297h51z" />
    <glyph glyph-name="aacute.alt" horiz-adv-x="1048" 
d="M14 238q0 198 160 270q140 66 338 80q198 18 266 74t68 143q0 92 -80 150.5t-205 58.5q-231 0 -330 -205l-30 25q112 219 364 219q140 0 231 -69t91 -179q0 -21 -4 -49l-123 -606q-10 -65 -10 -68q0 -53 57 -53q29 0 37 8v-31q-17 -14 -53 -14q-82 0 -82 74q0 40 12 81
q-100 -167 -381 -167q-150 0 -238 68t-88 190zM57 242q0 -104 76.5 -164t210.5 -60q167 0 272.5 74.5t131.5 208.5l69 344q-64 -79 -311 -100q-164 -13 -256 -47q-193 -65 -193 -256zM612 1130h-41l199 297h53z" />
    <glyph glyph-name="acircumflex.alt" horiz-adv-x="1048" 
d="M14 238q0 198 160 270q140 66 338 80q198 18 266 74t68 143q0 92 -80 150.5t-205 58.5q-231 0 -330 -205l-30 25q112 219 364 219q140 0 231 -69t91 -179q0 -21 -4 -49l-123 -606q-10 -65 -10 -68q0 -53 57 -53q29 0 37 8v-31q-17 -14 -53 -14q-82 0 -82 74q0 40 12 81
q-100 -167 -381 -167q-150 0 -238 68t-88 190zM57 242q0 -104 76.5 -164t210.5 -60q167 0 272.5 74.5t131.5 208.5l69 344q-64 -79 -311 -100q-164 -13 -256 -47q-193 -65 -193 -256zM406 1180h-66l322 247h51l217 -247h-56l-186 215z" />
    <glyph glyph-name="atilde.alt" horiz-adv-x="1048" 
d="M14 238q0 198 160 270q140 66 338 80q198 18 266 74t68 143q0 92 -80 150.5t-205 58.5q-231 0 -330 -205l-30 25q112 219 364 219q140 0 231 -69t91 -179q0 -21 -4 -49l-123 -606q-10 -65 -10 -68q0 -53 57 -53q29 0 37 8v-31q-17 -14 -53 -14q-82 0 -82 74q0 40 12 81
q-100 -167 -381 -167q-150 0 -238 68t-88 190zM57 242q0 -104 76.5 -164t210.5 -60q167 0 272.5 74.5t131.5 208.5l69 344q-64 -79 -311 -100q-164 -13 -256 -47q-193 -65 -193 -256zM389 1229l-39 4q24 59 70 95t104 36q61 0 127 -51q70 -49 121 -49q95 0 135 112l39 -4
q-46 -147 -178 -147q-63 0 -133 49q-66 51 -119 51q-86 0 -127 -96z" />
    <glyph glyph-name="adieresis.alt" horiz-adv-x="1048" 
d="M836 1272q-37 0 -37 37q0 17 12 29t31 12q37 0 37 -35q0 -18 -12.5 -30.5t-30.5 -12.5zM449 1272q-37 0 -37 37q0 17 13 29t30 12q37 0 37 -35q0 -18 -12.5 -30.5t-30.5 -12.5zM14 238q0 198 160 270q140 66 338 80q198 18 266 74t68 143q0 92 -80 150.5t-205 58.5
q-231 0 -330 -205l-30 25q112 219 364 219q140 0 231 -69t91 -179q0 -21 -4 -49l-123 -606q-10 -65 -10 -68q0 -53 57 -53q29 0 37 8v-31q-17 -14 -53 -14q-82 0 -82 74q0 40 12 81q-100 -167 -381 -167q-150 0 -238 68t-88 190zM57 242q0 -104 76.5 -164t210.5 -60
q167 0 272.5 74.5t131.5 208.5l69 344q-64 -79 -311 -100q-164 -13 -256 -47q-193 -65 -193 -256z" />
    <glyph glyph-name="amacron.alt" horiz-adv-x="1048" 
d="M950 1260h-602l6 40h602zM14 238q0 198 160 270q140 66 338 80q198 18 266 74t68 143q0 92 -80 150.5t-205 58.5q-231 0 -330 -205l-30 25q112 219 364 219q140 0 231 -69t91 -179q0 -21 -4 -49l-123 -606q-10 -65 -10 -68q0 -53 57 -53q29 0 37 8v-31q-17 -14 -53 -14
q-82 0 -82 74q0 40 12 81q-100 -167 -381 -167q-150 0 -238 68t-88 190zM57 242q0 -104 76.5 -164t210.5 -60q167 0 272.5 74.5t131.5 208.5l69 344q-64 -79 -311 -100q-164 -13 -256 -47q-193 -65 -193 -256z" />
    <glyph glyph-name="abreve.alt" horiz-adv-x="1048" 
d="M14 238q0 198 160 270q140 66 338 80q198 18 266 74t68 143q0 92 -80 150.5t-205 58.5q-231 0 -330 -205l-30 25q112 219 364 219q140 0 231 -69t91 -179q0 -21 -4 -49l-123 -606q-10 -65 -10 -68q0 -53 57 -53q29 0 37 8v-31q-17 -14 -53 -14q-82 0 -82 74q0 40 12 81
q-100 -167 -381 -167q-150 0 -238 68t-88 190zM57 242q0 -104 76.5 -164t210.5 -60q167 0 272.5 74.5t131.5 208.5l69 344q-64 -79 -311 -100q-164 -13 -256 -47q-193 -65 -193 -256zM647 1237q-87 0 -135.5 49.5t-48.5 140.5h41q3 -151 149 -151q148 0 207 151h41
q-29 -90 -96 -140t-158 -50z" />
    <glyph glyph-name="aring.alt" horiz-adv-x="1048" 
d="M14 238q0 198 160 270q140 66 338 80q198 18 266 74t68 143q0 92 -80 150.5t-205 58.5q-231 0 -330 -205l-30 25q112 219 364 219q140 0 231 -69t91 -179q0 -21 -4 -49l-123 -606q-10 -65 -10 -68q0 -53 57 -53q29 0 37 8v-31q-17 -14 -53 -14q-82 0 -82 74q0 40 12 81
q-100 -167 -381 -167q-150 0 -238 68t-88 190zM57 242q0 -104 76.5 -164t210.5 -60q167 0 272.5 74.5t131.5 208.5l69 344q-64 -79 -311 -100q-164 -13 -256 -47q-193 -65 -193 -256zM637 1153q-54 0 -87.5 32t-33.5 83q0 60 41.5 103.5t101.5 43.5q56 0 89.5 -32.5
t33.5 -86.5q0 -58 -41.5 -100.5t-103.5 -42.5zM641 1190q42 0 72 31.5t30 70.5q0 35 -24.5 59.5t-61.5 24.5q-41 0 -71.5 -31.5t-30.5 -72.5q0 -35 24.5 -58.5t61.5 -23.5z" />
    <glyph glyph-name="aringacute.alt" horiz-adv-x="1048" 
d="M702 1522h-40l198 297h53zM637 1153q-54 0 -87.5 32t-33.5 83q0 60 41.5 103.5t101.5 43.5q56 0 89.5 -32.5t33.5 -86.5q0 -58 -41.5 -100.5t-103.5 -42.5zM641 1190q42 0 72 31.5t30 70.5q0 35 -24.5 59.5t-61.5 24.5q-41 0 -71.5 -31.5t-30.5 -72.5q0 -35 24.5 -58.5
t61.5 -23.5zM14 238q0 198 160 270q140 66 338 80q198 18 266 74t68 143q0 92 -80 150.5t-205 58.5q-231 0 -330 -205l-30 25q112 219 364 219q140 0 231 -69t91 -179q0 -21 -4 -49l-123 -606q-10 -65 -10 -68q0 -53 57 -53q29 0 37 8v-31q-17 -14 -53 -14q-82 0 -82 74
q0 40 12 81q-100 -167 -381 -167q-150 0 -238 68t-88 190zM57 242q0 -104 76.5 -164t210.5 -60q167 0 272.5 74.5t131.5 208.5l69 344q-64 -79 -311 -100q-164 -13 -256 -47q-193 -65 -193 -256z" />
    <glyph glyph-name="aogonek.alt" horiz-adv-x="1048" 
d="M14 238q0 198 160 270q140 66 338 80q198 18 266 74t68 143q0 92 -80 150.5t-205 58.5q-231 0 -330 -205l-30 25q112 219 364 219q140 0 231 -69t91 -179q0 -21 -4 -49l-123 -606q-10 -65 -10 -68q0 -53 57 -53q9 0 41 8l6 4l-6 -35q-209 -114 -209 -239
q0 -44 27.5 -69.5t74.5 -25.5q68 0 127 33l-18 -45q-55 -25 -117 -25q-60 0 -96.5 34t-36.5 89q0 74 51.5 140.5t130.5 99.5q-73 0 -73 68q0 40 12 81q-100 -167 -381 -167q-150 0 -238 68t-88 190zM57 242q0 -104 76.5 -164t210.5 -60q167 0 272.5 74.5t131.5 208.5l69 344
q-64 -79 -311 -100q-164 -13 -256 -47q-193 -65 -193 -256z" />
    <glyph glyph-name="cacute.alt" horiz-adv-x="1073" 
d="M35 451q0 246 174 423q176 179 418 179q257 0 395 -176l-8 -48q-138 185 -391 185q-223 0 -385 -168q-160 -168 -160 -391q0 -192 127 -316q127 -121 327 -121q197 0 340 119l-10 -53q-137 -104 -334 -104q-219 0 -356 131t-137 340zM686 1130h-41l199 297h53z" />
    <glyph glyph-name="ccircumflex.alt" horiz-adv-x="1073" 
d="M459 1180h-66l322 247h51l217 -247h-55l-187 215zM35 451q0 246 174 423q176 179 418 179q257 0 395 -176l-8 -48q-138 185 -391 185q-223 0 -385 -168q-160 -168 -160 -391q0 -192 127 -316q127 -121 327 -121q197 0 340 119l-10 -53q-137 -104 -334 -104
q-219 0 -356 131t-137 340z" />
    <glyph glyph-name="ccaron.alt" horiz-adv-x="1073" 
d="M725 1180h-51l-217 247h55l186 -215l283 215h66zM35 451q0 246 174 423q176 179 418 179q257 0 395 -176l-8 -48q-138 185 -391 185q-223 0 -385 -168q-160 -168 -160 -391q0 -192 127 -316q127 -121 327 -121q197 0 340 119l-10 -53q-137 -104 -334 -104
q-219 0 -356 131t-137 340z" />
    <glyph glyph-name="cdotaccent.alt" horiz-adv-x="1073" 
d="M719 1274q-35 0 -35 33q0 19 13 31t32 12q35 0 35 -33q0 -19 -13 -31t-32 -12zM35 451q0 246 174 423q176 179 418 179q257 0 395 -176l-8 -48q-138 185 -391 185q-223 0 -385 -168q-160 -168 -160 -391q0 -192 127 -316q127 -121 327 -121q197 0 340 119l-10 -53
q-137 -104 -334 -104q-219 0 -356 131t-137 340z" />
    <glyph glyph-name="ccedilla.alt" horiz-adv-x="1073" 
d="M283 -297l18 29q39 -33 96 -33q42 0 70.5 21.5t28.5 52.5q0 67 -93 67q-26 0 -53 -6l96 152q-184 24 -299 151q-112 124 -112 314q0 246 174 423q176 179 418 179q257 0 395 -176l-8 -48q-138 185 -391 185q-223 0 -385 -168q-160 -168 -160 -391q0 -192 127 -316
q127 -121 327 -121q197 0 340 119l-10 -53q-137 -104 -334 -104q-31 0 -41 2l-69 -109h6q115 0 115 -100q0 -49 -39.5 -80t-102.5 -31q-76 0 -114 41z" />
    <glyph glyph-name="egrave.alt" horiz-adv-x="1165" 
d="M33 430q0 247 166 434q168 189 401 189q196 0 315 -125q123 -126 123 -324q0 -56 -10 -94h-946q-6 -38 -6 -78q0 -187 117 -301q116 -113 305 -113q210 0 368 152l-10 -61q-150 -132 -358 -132q-210 0 -338 125q-127 127 -127 328zM90 547h901q6 27 6 65q0 178 -112 287
q-110 113 -287 113q-169 0 -317 -127q-144 -126 -191 -338zM696 1130h-37l-94 297h51z" />
    <glyph glyph-name="eacute.alt" horiz-adv-x="1165" 
d="M33 430q0 247 166 434q168 189 401 189q196 0 315 -125q123 -126 123 -324q0 -56 -10 -94h-946q-6 -38 -6 -78q0 -187 117 -301q116 -113 305 -113q210 0 368 152l-10 -61q-150 -132 -358 -132q-210 0 -338 125q-127 127 -127 328zM90 547h901q6 27 6 65q0 178 -112 287
q-110 113 -287 113q-169 0 -317 -127q-144 -126 -191 -338zM649 1130h-41l199 297h53z" />
    <glyph glyph-name="ecircumflex.alt" horiz-adv-x="1165" 
d="M33 430q0 247 166 434q168 189 401 189q196 0 315 -125q123 -126 123 -324q0 -56 -10 -94h-946q-6 -38 -6 -78q0 -187 117 -301q116 -113 305 -113q210 0 368 152l-10 -61q-150 -132 -358 -132q-210 0 -338 125q-127 127 -127 328zM90 547h901q6 27 6 65q0 178 -112 287
q-110 113 -287 113q-169 0 -317 -127q-144 -126 -191 -338zM432 1180h-65l321 247h51l217 -247h-55l-186 215z" />
    <glyph glyph-name="ecaron.alt" horiz-adv-x="1165" 
d="M33 430q0 247 166 434q168 189 401 189q196 0 315 -125q123 -126 123 -324q0 -56 -10 -94h-946q-6 -38 -6 -78q0 -187 117 -301q116 -113 305 -113q210 0 368 152l-10 -61q-150 -132 -358 -132q-210 0 -338 125q-127 127 -127 328zM90 547h901q6 27 6 65q0 178 -112 287
q-110 113 -287 113q-169 0 -317 -127q-144 -126 -191 -338zM688 1180h-51l-217 247h55l187 -215l282 215h66z" />
    <glyph glyph-name="edieresis.alt" horiz-adv-x="1165" 
d="M874 1272q-36 0 -36 37q0 17 12 29t29 12q36 0 36 -35q0 -18 -11.5 -30.5t-29.5 -12.5zM453 1272q-37 0 -37 37q0 17 12 29t29 12q37 0 37 -35q0 -18 -11.5 -30.5t-29.5 -12.5zM33 430q0 247 166 434q168 189 401 189q196 0 315 -125q123 -126 123 -324q0 -56 -10 -94
h-946q-6 -38 -6 -78q0 -187 117 -301q116 -113 305 -113q210 0 368 152l-10 -61q-150 -132 -358 -132q-210 0 -338 125q-127 127 -127 328zM90 547h901q6 27 6 65q0 178 -112 287q-110 113 -287 113q-169 0 -317 -127q-144 -126 -191 -338z" />
    <glyph glyph-name="emacron.alt" horiz-adv-x="1165" 
d="M33 430q0 247 166 434q168 189 401 189q196 0 315 -125q123 -126 123 -324q0 -56 -10 -94h-946q-6 -38 -6 -78q0 -187 117 -301q116 -113 305 -113q210 0 368 152l-10 -61q-150 -132 -358 -132q-210 0 -338 125q-127 127 -127 328zM90 547h901q6 27 6 65q0 178 -112 287
q-110 113 -287 113q-169 0 -317 -127q-144 -126 -191 -338zM971 1260h-602l8 40h602z" />
    <glyph glyph-name="ebreve.alt" horiz-adv-x="1165" 
d="M33 430q0 247 166 434q168 189 401 189q196 0 315 -125q123 -126 123 -324q0 -56 -10 -94h-946q-6 -38 -6 -78q0 -187 117 -301q116 -113 305 -113q210 0 368 152l-10 -61q-150 -132 -358 -132q-210 0 -338 125q-127 127 -127 328zM90 547h901q6 27 6 65q0 178 -112 287
q-110 113 -287 113q-169 0 -317 -127q-144 -126 -191 -338zM664 1237q-87 0 -136 49.5t-49 140.5h41q3 -151 150 -151q148 0 207 151h41q-29 -90 -96 -140t-158 -50z" />
    <glyph glyph-name="edotaccent.alt" horiz-adv-x="1165" 
d="M33 430q0 247 166 434q168 189 401 189q196 0 315 -125q123 -126 123 -324q0 -56 -10 -94h-946q-6 -38 -6 -78q0 -187 117 -301q116 -113 305 -113q210 0 368 152l-10 -61q-150 -132 -358 -132q-210 0 -338 125q-127 127 -127 328zM90 547h901q6 27 6 65q0 178 -112 287
q-110 113 -287 113q-169 0 -317 -127q-144 -126 -191 -338zM666 1272q-37 0 -37 37q0 17 12 29t29 12q37 0 37 -35q0 -17 -12 -30t-29 -13z" />
    <glyph glyph-name="eogonek.alt" horiz-adv-x="1165" 
d="M33 430q0 247 166 434q168 189 401 189q196 0 315 -125q123 -126 123 -324q0 -56 -10 -94h-946q-6 -38 -6 -78q0 -187 114 -301q116 -113 308 -113q216 0 368 152l-10 -59q-81 -69 -170 -101q-102 -39 -167.5 -99.5t-65.5 -129.5q0 -41 27 -65.5t71 -24.5q75 0 127 30
l-19 -45q-62 -25 -117.5 -25t-93.5 33t-38 89q0 66 44.5 124.5t118.5 90.5q-64 -11 -84 -11q-207 3 -331 127q-125 125 -125 326zM90 547h901q6 27 6 65q0 178 -112 287q-110 113 -287 113q-183 0 -326 -131q-141 -129 -182 -334z" />
    <glyph glyph-name="gcircumflex.alt" horiz-adv-x="1253" 
d="M-27 -225l11 51q53 -96 178 -150.5t282 -54.5q214 0 336 112t170 347l35 172q-158 -272 -473 -272q-213 0 -344 131q-133 133 -133 338q0 233 166 417q169 187 413 187q182 0 312 -95q130 -92 151 -241l66 315h45l-193 -934q-55 -268 -183.5 -392t-371.5 -124
q-143 0 -274 49q-129 45 -193 144zM78 451q0 -191 121 -312q122 -119 315 -119q239 0 387 183t148 428q0 168 -123 276q-119 107 -316 107q-229 0 -381 -174q-151 -174 -151 -389zM479 1180h-65l321 247h51l218 -247h-56l-186 215z" />
    <glyph glyph-name="gbreve.alt" horiz-adv-x="1253" 
d="M-27 -225l11 51q53 -96 178 -150.5t282 -54.5q214 0 336 112t170 347l35 172q-158 -272 -473 -272q-213 0 -344 131q-133 133 -133 338q0 233 166 417q169 187 413 187q182 0 312 -95q130 -92 151 -241l66 315h45l-193 -934q-55 -268 -183.5 -392t-371.5 -124
q-143 0 -274 49q-129 45 -193 144zM78 451q0 -191 121 -312q122 -119 315 -119q239 0 387 183t148 428q0 168 -123 276q-119 107 -316 107q-229 0 -381 -174q-151 -174 -151 -389zM723 1237q-87 0 -135.5 49.5t-48.5 140.5h41q3 -151 149 -151q148 0 207 151h41
q-29 -90 -96 -140t-158 -50z" />
    <glyph glyph-name="gdotaccent.alt" horiz-adv-x="1253" 
d="M733 1272q-35 0 -35 37q0 17 12 29t29 12q37 0 37 -35q0 -18 -12.5 -30.5t-30.5 -12.5zM-27 -225l11 51q53 -96 178 -150.5t282 -54.5q214 0 336 112t170 347l35 172q-158 -272 -473 -272q-213 0 -344 131q-133 133 -133 338q0 233 166 417q169 187 413 187
q182 0 312 -95q130 -92 151 -241l66 315h45l-193 -934q-55 -268 -183.5 -392t-371.5 -124q-143 0 -274 49q-129 45 -193 144zM78 451q0 -191 121 -312q122 -119 315 -119q239 0 387 183t148 428q0 168 -123 276q-119 107 -316 107q-229 0 -381 -174q-151 -174 -151 -389z
" />
    <glyph glyph-name="gcommaaccent.alt" horiz-adv-x="1253" 
d="M-27 -225l11 51q53 -96 178 -150.5t282 -54.5q214 0 336 112t170 347l35 172q-158 -272 -473 -272q-213 0 -344 131q-133 133 -133 338q0 233 166 417q169 187 413 187q182 0 312 -95q130 -92 151 -241l66 315h45l-193 -934q-55 -268 -183.5 -392t-371.5 -124
q-143 0 -274 49q-129 45 -193 144zM78 451q0 -191 121 -312q122 -119 315 -119q239 0 387 183t148 428q0 168 -123 276q-119 107 -316 107q-229 0 -381 -174q-151 -174 -151 -389zM696 1130h-41l199 297h53z" />
    <glyph glyph-name="jcircumflex.alt" horiz-adv-x="348" 
d="M262 1032l-291 -1427h-43l291 1427h43zM100 1180h-57l246 247h51l147 -247h-53l-121 211z" />
    <glyph glyph-name="kcommaaccent.alt" horiz-adv-x="847" 
d="M31 0h-43l291 1427h43l-175 -858l621 463h61l-651 -489l490 -543h-52l-479 528zM84 -395l199 297h53l-211 -297h-41z" />
    <glyph glyph-name="lacute.alt" horiz-adv-x="528" 
d="M33 172q0 48 12 107l236 1148h43l-236 -1153q-10 -65 -10 -96q0 -75 41.5 -116.5t116.5 -41.5q47 0 90 19l-13 -43q-25 -14 -84 -14q-94 0 -145 49.5t-51 140.5zM332 1479h-41l198 297h54z" />
    <glyph glyph-name="lcaron.alt" horiz-adv-x="567" 
d="M33 172q0 48 12 107l236 1148h43l-236 -1153q-10 -65 -10 -96q0 -75 41.5 -116.5t116.5 -41.5q47 0 90 19l-13 -43q-25 -14 -84 -14q-94 0 -145 49.5t-51 140.5zM424 1130h-41l199 297h53z" />
    <glyph glyph-name="lcommaaccent.alt" horiz-adv-x="528" 
d="M33 172q0 48 12 107l236 1148h43l-236 -1153q-10 -65 -10 -96q0 -75 41.5 -116.5t116.5 -41.5q47 0 90 19l-13 -43q-25 -14 -84 -14q-94 0 -145 49.5t-51 140.5zM-106 -395l198 297h53l-211 -297h-40z" />
    <glyph glyph-name="ldot.alt" horiz-adv-x="548" 
d="M33 172q0 48 12 107l236 1148h43l-236 -1153q-10 -65 -10 -96q0 -75 41.5 -116.5t116.5 -41.5q47 0 90 19l-13 -43q-25 -14 -84 -14q-94 0 -145 49.5t-51 140.5zM348 717q-35 0 -35 35q0 17 12 30t29 13q37 0 37 -35q0 -18 -12.5 -30.5t-30.5 -12.5z" />
    <glyph glyph-name="lslash.alt" horiz-adv-x="473" 
d="M59 172q0 44 13 107l88 434l-152 -84l8 49l154 82l137 667h43l-131 -641l195 107l-8 -49l-195 -107l-96 -463q-11 -71 -11 -96q0 -75 41.5 -116.5t116.5 -41.5q41 0 90 17l-12 -41q-25 -14 -84 -14q-94 0 -145.5 49.5t-51.5 140.5z" />
    <glyph glyph-name="racute.alt" horiz-adv-x="669" 
d="M438 1130h-41l199 297h53zM31 0h-43l147 725q36 171 121 254.5t240 83.5q83 0 149 -16l-8 -39q-46 14 -143 14q-135 0 -209.5 -71t-106.5 -234z" />
    <glyph glyph-name="rcommaaccent.alt" horiz-adv-x="669" 
d="M31 0h-43l147 725q36 171 121 254.5t240 83.5q83 0 149 -16l-8 -39q-46 14 -143 14q-135 0 -209.5 -71t-106.5 -234zM-229 -395l198 297h54l-211 -297h-41z" />
    <glyph glyph-name="rcaron.alt" horiz-adv-x="669" 
d="M31 0h-43l147 725q36 171 121 254.5t240 83.5q83 0 149 -16l-8 -39q-46 14 -143 14q-135 0 -209.5 -71t-106.5 -234zM520 1180h-51l-217 247h55l187 -215l282 215h66z" />
    <glyph glyph-name="sacute.alt" horiz-adv-x="815" 
d="M-27 147l17 48q44 -81 131 -128t192 -47q145 0 225 72t80 178t-67 162q-53 49 -158 105q-96 52 -153 100q-72 63 -72 158q0 112 84 184q86 74 209 74q146 0 229 -95l-14 -43q-76 99 -217 99q-108 0 -178 -62.5t-70 -156.5q0 -81 63 -133q65 -49 132 -84q80 -46 100 -60
q34 -18 76 -57q80 -66 80 -189q0 -115 -91 -206q-89 -86 -260 -86q-105 0 -200.5 46.5t-137.5 120.5zM489 1130h-40l198 297h53z" />
    <glyph glyph-name="scircumflex.alt" horiz-adv-x="815" 
d="M-27 147l17 48q44 -81 131 -128t192 -47q145 0 225 72t80 178t-67 162q-53 49 -158 105q-96 52 -153 100q-72 63 -72 158q0 112 84 184q86 74 209 74q146 0 229 -95l-14 -43q-76 99 -217 99q-108 0 -178 -62.5t-70 -156.5q0 -81 63 -133q65 -49 132 -84q80 -46 100 -60
q34 -18 76 -57q80 -66 80 -189q0 -115 -91 -206q-89 -86 -260 -86q-105 0 -200.5 46.5t-137.5 120.5zM262 1180h-65l321 247h51l217 -247h-55l-186 215z" />
    <glyph glyph-name="scaron.alt" horiz-adv-x="815" 
d="M-27 147l17 48q44 -81 131 -128t192 -47q145 0 225 72t80 178t-67 162q-53 49 -158 105q-96 52 -153 100q-72 63 -72 158q0 112 84 184q86 74 209 74q146 0 229 -95l-14 -43q-76 99 -217 99q-108 0 -178 -62.5t-70 -156.5q0 -81 63 -133q65 -49 132 -84q80 -46 100 -60
q34 -18 76 -57q80 -66 80 -189q0 -115 -91 -206q-89 -86 -260 -86q-105 0 -200.5 46.5t-137.5 120.5zM530 1180h-51l-217 247h55l187 -215l282 215h66z" />
    <glyph glyph-name="scommaaccent.alt" horiz-adv-x="815" 
d="M-27 147l17 48q44 -81 131 -128t192 -47q145 0 225 72t80 178t-67 162q-53 49 -158 105q-96 52 -153 100q-72 63 -72 158q0 112 84 184q86 74 209 74q146 0 229 -95l-14 -43q-76 99 -217 99q-108 0 -178 -62.5t-70 -156.5q0 -81 63 -133q65 -49 132 -84q80 -46 100 -60
q34 -18 76 -57q80 -66 80 -189q0 -115 -91 -206q-89 -86 -260 -86q-105 0 -200.5 46.5t-137.5 120.5zM53 -395l199 297h53l-211 -297h-41z" />
    <glyph glyph-name="scedilla.alt" horiz-adv-x="815" 
d="M119 -297l18 29q39 -33 96 -33q42 0 70.5 21.5t28.5 52.5q0 67 -92 67q-27 0 -54 -6l93 148q-97 6 -181 51t-125 114l17 48q44 -81 131 -128t192 -47q145 0 225 72t80 178t-67 162q-53 49 -158 105q-96 52 -153 100q-72 63 -72 158q0 112 84 184q86 74 209 74
q146 0 229 -95l-14 -43q-76 99 -217 99q-108 0 -178 -62.5t-70 -156.5q0 -81 63 -133q65 -49 132 -84q80 -46 100 -60q34 -18 76 -57q80 -66 80 -189q0 -122 -89 -205t-249 -87l-70 -107h6q115 0 115 -100q0 -49 -39.5 -80t-102.5 -31q-76 0 -114 41z" />
    <glyph glyph-name="germandbls.alt" horiz-adv-x="1103" 
d="M29 0h-43l227 1112q22 105 84 201q39 61 107 96t153 35q127 0 211 -84t84 -209q0 -92 -56 -173t-147 -122q141 -24 234 -131q94 -104 94 -250q0 -199 -148 -350q-149 -152 -372 -152q-105 0 -154 19l8 39q59 -17 150 -17q199 0 336 140q135 141 135 317q0 146 -103 246
q-101 101 -264 110q-40 -9 -94 -12l6 39q141 3 236 92q94 91 94 203q0 110 -72.5 182t-181.5 72q-72 0 -130 -31.5t-91 -83.5q-62 -98 -76 -178z" />
    <glyph glyph-name="tcaron.alt" horiz-adv-x="700" 
d="M530 1130h-41l199 297h53zM96 172q0 44 13 107l145 712h-121l8 41h121l80 395h45l-82 -395h348l-10 -41h-346l-145 -717q-13 -57 -13 -96q0 -75 46 -116.5t128 -41.5q71 0 136 19l-13 -41q-43 -16 -129 -16q-100 0 -155.5 49.5t-55.5 140.5z" />
    <glyph glyph-name="tcommaaccent.alt" horiz-adv-x="663" 
d="M96 172q0 44 13 107l145 712h-121l8 41h121l80 395h45l-82 -395h348l-10 -41h-346l-145 -717q-13 -57 -13 -96q0 -75 46 -116.5t128 -41.5q71 0 136 19l-13 -41q-43 -16 -129 -16q-100 0 -155.5 49.5t-55.5 140.5zM-4 -395l199 297h53l-211 -297h-41z" />
    <glyph glyph-name="tbar.alt" horiz-adv-x="663" 
d="M96 172q0 44 13 107l86 423h-129l10 41h127l51 248h-121l8 41h121l80 395h45l-82 -395h348l-10 -41h-346l-49 -248h338l-11 -41h-335l-88 -428q-13 -57 -13 -96q0 -75 46 -116.5t128 -41.5q71 0 136 19l-13 -41q-43 -16 -129 -16q-100 0 -155.5 49.5t-55.5 140.5z" />
    <glyph glyph-name="ugrave.alt" horiz-adv-x="1079" 
d="M49 348q0 48 12 109l119 575h43l-119 -583q-10 -55 -10 -101q0 -149 88 -238.5t240 -89.5q179 0 288 112t158 349l115 551h43l-211 -1032h-43l43 213q-119 -233 -399 -233q-169 0 -268 100.5t-99 267.5zM633 1130h-37l-94 297h51z" />
    <glyph glyph-name="uacute.alt" horiz-adv-x="1079" 
d="M49 348q0 48 12 109l119 575h43l-119 -583q-10 -55 -10 -101q0 -149 88 -238.5t240 -89.5q179 0 288 112t158 349l115 551h43l-211 -1032h-43l43 213q-119 -233 -399 -233q-169 0 -268 100.5t-99 267.5zM600 1130h-41l199 297h53z" />
    <glyph glyph-name="ucircumflex.alt" horiz-adv-x="1079" 
d="M49 348q0 48 12 109l119 575h43l-119 -583q-10 -55 -10 -101q0 -149 88 -238.5t240 -89.5q179 0 288 112t158 349l115 551h43l-211 -1032h-43l43 213q-119 -233 -399 -233q-169 0 -268 100.5t-99 267.5zM385 1180h-66l322 247h51l217 -247h-55l-186 215z" />
    <glyph glyph-name="utilde.alt" horiz-adv-x="1079" 
d="M49 348q0 48 12 109l119 575h43l-119 -583q-10 -55 -10 -101q0 -149 88 -238.5t240 -89.5q179 0 288 112t158 349l115 551h43l-211 -1032h-43l43 213q-119 -233 -399 -233q-169 0 -268 100.5t-99 267.5zM379 1229l-39 4q24 59 70 95t104 36q61 0 127 -51q70 -49 121 -49
q95 0 135 112l39 -4q-46 -147 -178 -147q-63 0 -133 49q-66 51 -119 51q-86 0 -127 -96z" />
    <glyph glyph-name="udieresis.alt" horiz-adv-x="1079" 
d="M848 1272q-35 0 -35 37q0 17 12 29t29 12q37 0 37 -35q0 -18 -12.5 -30.5t-30.5 -12.5zM426 1272q-35 0 -35 37q0 17 12 29t29 12q37 0 37 -35q0 -18 -12.5 -30.5t-30.5 -12.5zM49 348q0 48 12 109l119 575h43l-119 -583q-10 -55 -10 -101q0 -149 88 -238.5t240 -89.5
q179 0 288 112t158 349l115 551h43l-211 -1032h-43l43 213q-119 -233 -399 -233q-169 0 -268 100.5t-99 267.5z" />
    <glyph glyph-name="umacron.alt" horiz-adv-x="1079" 
d="M49 348q0 48 12 109l119 575h43l-119 -583q-10 -55 -10 -101q0 -149 88 -238.5t240 -89.5q179 0 288 112t158 349l115 551h43l-211 -1032h-43l43 213q-119 -233 -399 -233q-169 0 -268 100.5t-99 267.5zM928 1260h-602l8 40h602z" />
    <glyph glyph-name="ubreve.alt" horiz-adv-x="1079" 
d="M49 348q0 48 12 109l119 575h43l-119 -583q-10 -55 -10 -101q0 -149 88 -238.5t240 -89.5q179 0 288 112t158 349l115 551h43l-211 -1032h-43l43 213q-119 -233 -399 -233q-169 0 -268 100.5t-99 267.5zM629 1237q-87 0 -136 49.5t-49 140.5h41q3 -151 150 -151
q148 0 207 151h41q-29 -90 -96 -140t-158 -50z" />
    <glyph glyph-name="uring.alt" horiz-adv-x="1079" 
d="M49 348q0 48 12 109l119 575h43l-119 -583q-10 -55 -10 -101q0 -149 88 -238.5t240 -89.5q179 0 288 112t158 349l115 551h43l-211 -1032h-43l43 213q-119 -233 -399 -233q-169 0 -268 100.5t-99 267.5zM616 1153q-54 0 -87 32t-33 83q0 60 41.5 103.5t101.5 43.5
q56 0 89.5 -32.5t33.5 -86.5q0 -58 -42 -100.5t-104 -42.5zM621 1190q42 0 72 31.5t30 70.5q0 35 -24.5 59.5t-61.5 24.5q-41 0 -71.5 -31.5t-30.5 -72.5q0 -35 24.5 -58.5t61.5 -23.5z" />
    <glyph glyph-name="uhungarumlaut.alt" horiz-adv-x="1079" 
d="M49 348q0 48 12 109l119 575h43l-119 -583q-10 -55 -10 -101q0 -149 88 -238.5t240 -89.5q179 0 288 112t158 349l115 551h43l-211 -1032h-43l43 213q-119 -233 -399 -233q-169 0 -268 100.5t-99 267.5zM764 1130h-41l221 297h55zM449 1130h-41l221 297h55z" />
    <glyph glyph-name="uogonek.alt" horiz-adv-x="1079" 
d="M49 348q0 48 12 109l119 575h43l-119 -583q-10 -55 -10 -101q0 -149 88 -238.5t240 -89.5q179 0 288 112t158 349l115 551h43l-211 -1032q-225 -120 -225 -246q0 -42 26.5 -66t73.5 -24q59 0 125 29l-18 -43q-52 -25 -115 -25q-61 0 -97 33.5t-36 89.5q0 158 225 260v2
l41 203q-119 -233 -399 -233q-169 0 -268 100.5t-99 267.5z" />
    <glyph glyph-name="wgrave.alt" horiz-adv-x="1562" 
d="M379 0h-33l-235 1032h43l219 -966l368 577l-94 389h43l82 -346l219 346h47l-250 -397l130 -572l614 969h49l-655 -1032h-35l-133 590zM877 1130h-37l-95 297h52z" />
    <glyph glyph-name="wacute.alt" horiz-adv-x="1562" 
d="M379 0h-33l-235 1032h43l219 -966l368 577l-94 389h43l82 -346l219 346h47l-250 -397l130 -572l614 969h49l-655 -1032h-35l-133 590zM852 1130h-41l199 297h53z" />
    <glyph glyph-name="wcircumflex.alt" horiz-adv-x="1562" 
d="M379 0h-33l-235 1032h43l219 -966l368 577l-94 389h43l82 -346l219 346h47l-250 -397l130 -572l614 969h49l-655 -1032h-35l-133 590zM633 1180h-66l322 247h51l217 -247h-55l-187 215z" />
    <glyph glyph-name="wdieresis.alt" horiz-adv-x="1562" 
d="M1083 1272q-36 0 -36 37q0 17 11.5 29t28.5 12q37 0 37 -35q0 -17 -12 -30t-29 -13zM657 1272q-36 0 -36 37q0 17 13 29t30 12q36 0 36 -35q0 -18 -12.5 -30.5t-30.5 -12.5zM379 0h-33l-235 1032h43l219 -966l368 577l-94 389h43l82 -346l219 346h47l-250 -397l130 -572
l614 969h49l-655 -1032h-35l-133 590z" />
    <glyph glyph-name="ygrave.alt" horiz-adv-x="974" 
d="M193 -182l114 184l-196 1030h43l186 -977l604 977h49l-755 -1220q-60 -93 -76 -115q-30 -44 -89.5 -79.5t-123.5 -35.5q-42 0 -88 17l6 39q34 -15 82 -15q56 0 104 31q45 28 72 60.5t68 103.5zM584 1130h-37l-94 297h51z" />
    <glyph glyph-name="yacute.alt" horiz-adv-x="974" 
d="M193 -182l114 184l-196 1030h43l186 -977l604 977h49l-755 -1220q-60 -93 -76 -115q-30 -44 -89.5 -79.5t-123.5 -35.5q-42 0 -88 17l6 39q34 -15 82 -15q56 0 104 31q45 28 72 60.5t68 103.5zM555 1130h-41l199 297h53z" />
    <glyph glyph-name="ycircumflex.alt" horiz-adv-x="974" 
d="M193 -182l114 184l-196 1030h43l186 -977l604 977h49l-755 -1220q-60 -93 -76 -115q-30 -44 -89.5 -79.5t-123.5 -35.5q-42 0 -88 17l6 39q34 -15 82 -15q56 0 104 31q45 28 72 60.5t68 103.5zM328 1180h-66l322 247h51l217 -247h-55l-187 215z" />
    <glyph glyph-name="ydieresis.alt" horiz-adv-x="974" 
d="M784 1272q-36 0 -36 37q0 17 12 29t31 12q36 0 36 -35q0 -18 -12.5 -30.5t-30.5 -12.5zM362 1272q-36 0 -36 37q0 17 12 29t31 12q37 0 37 -35q0 -17 -13 -30t-31 -13zM193 -182l114 184l-196 1030h43l186 -977l604 977h49l-755 -1220q-60 -93 -76 -115
q-30 -44 -89.5 -79.5t-123.5 -35.5q-42 0 -88 17l6 39q34 -15 82 -15q56 0 104 31q45 28 72 60.5t68 103.5z" />
    <glyph glyph-name="fj.alt" horiz-adv-x="872" 
d="M113 0h-41l202 991h-153l10 41h152l24 123q25 138 106 214.5t210 76.5q71 0 92 -8l-8 -41q-33 8 -91 8q-215 0 -268 -256l-24 -117h479l-291 -1427h-43l283 1386h-435z" />
    <glyph glyph-name="fl.alt" horiz-adv-x="1050" 
d="M113 0h-41l202 991h-153l10 41h152l24 123q55 291 309 291q63 0 84 -8l-8 -41q-24 8 -80 8q-208 0 -264 -258l-24 -115h268l-8 -41h-267zM537 172q0 48 12 107l233 1148h43l-233 -1153q-12 -52 -12 -96q0 -75 41 -116.5t116 -41.5q44 0 90 17l-12 -41q-25 -14 -84 -14
q-92 0 -143 49.5t-51 140.5z" />
    <glyph glyph-name="ffj.alt" horiz-adv-x="1351" 
d="M113 0h-41l202 991h-153l10 41h152l24 123q58 291 309 291q65 0 84 -8l-8 -41q-24 8 -84 8q-207 0 -260 -256l-24 -117h438l24 123q25 138 106 214.5t210 76.5q71 0 92 -8l-8 -41q-33 8 -90 8q-216 0 -269 -256l-24 -117h479l-291 -1427h-43l283 1386h-434l-205 -991h-41
l203 991h-437z" />
    <glyph glyph-name="ffl.alt" horiz-adv-x="1617" 
d="M113 0h-41l202 991h-153l10 41h152l24 123q58 291 309 291q65 0 84 -8l-8 -41q-24 8 -84 8q-207 0 -260 -256l-24 -117h438l24 123q58 291 310 291q65 0 84 -8l-9 -41q-24 8 -84 8q-207 0 -260 -256l-24 -117h268l-8 -41h-266l-205 -991h-41l203 991h-437zM1104 172
q0 48 12 107l234 1148h43l-234 -1153q-12 -52 -12 -96q0 -75 42.5 -116.5t117.5 -41.5q42 0 88 17l-11 -41q-25 -14 -86 -14q-92 0 -143 49.5t-51 140.5z" />
    <glyph glyph-name="zero.onum" horiz-adv-x="1021" 
d="M27 326q0 102 63 342q102 379 455 379q154 0 262 -97q106 -93 106 -241q0 -115 -63 -344q-13 -53 -26 -86t-46 -93q-33 -59 -80 -100q-48 -41 -128 -70.5t-171 -29.5q-156 0 -266 96q-106 97 -106 244zM70 328q0 -130 94 -215q96 -84 239 -84q81 0 149.5 24.5t109.5 61.5
q40 34 71 88q48 81 72 168q63 226 63 331q0 133 -92 216q-92 86 -233 86q-320 0 -408 -340q-62 -221 -65 -336z" />
    <glyph glyph-name="one.onum" horiz-adv-x="610" 
d="M266 0h-43l199 979l-318 -148l-16 37l348 164h39z" />
    <glyph glyph-name="two.onum" horiz-adv-x="954" 
d="M741 0h-827l6 33l651 424q132 86 185 158.5t53 156.5q0 100 -82.5 166t-206.5 66q-137 0 -241 -93q-103 -92 -127 -213h-46q26 141 144 246q118 103 272 103q143 0 236 -78q94 -76 94 -193q0 -106 -61 -187.5t-193 -166.5l-588 -381h740z" />
    <glyph glyph-name="three.onum" horiz-adv-x="997" 
d="M-109 39l43 14q26 -115 130 -183.5t251 -68.5q185 0 310 125q125 122 125 277q0 133 -87 215t-227 82q-50 0 -147 -17l-13 33l558 475h-676l8 41h747l-6 -33l-551 -467q54 7 101 7q143 0 239 -93q99 -92 99 -239q0 -172 -136 -311q-132 -138 -346 -138
q-159 0 -274.5 74.5t-147.5 206.5z" />
    <glyph glyph-name="four.onum" horiz-adv-x="1067" 
d="M741 0h-802l6 33l694 999h49l-688 -991h750l73 369h43l-161 -805h-43z" />
    <glyph glyph-name="five.onum" horiz-adv-x="1028" 
d="M-72 18l39 17q35 -106 137 -170t238 -64q198 0 317 131q121 130 121 299q0 147 -94 238q-95 92 -244 92q-166 0 -292 -108l-35 16l219 563h561l-10 -41h-520l-185 -469q107 82 269 82q168 0 272 -104t104 -264q0 -189 -131 -332q-134 -146 -354 -146q-149 0 -263 71
t-149 189z" />
    <glyph glyph-name="six.onum" horiz-adv-x="1081" 
d="M31 385q0 201 196 406l613 636h55l-565 -591q76 43 192 43q186 0 299 -113q117 -114 117 -291q0 -190 -141 -340q-137 -149 -353 -149q-183 0 -299 110q-114 114 -114 289zM74 387q0 -156 102 -258q103 -100 270 -100q194 0 320 135q129 138 129 309q0 161 -107 262
q-106 103 -270 103q-179 0 -311 -138q-133 -136 -133 -313z" />
    <glyph glyph-name="seven.onum" horiz-adv-x="985" 
d="M90 -395h-49l889 1386h-803l10 41h854l-6 -33z" />
    <glyph glyph-name="eight.onum" horiz-adv-x="1075" 
d="M436 829q-73 36 -116.5 105.5t-43.5 155.5q0 144 113 251t260 107q136 0 225 -80q93 -81 93 -211q0 -124 -82 -225q-81 -104 -201 -125q106 -33 176 -131t70 -221q0 -185 -139 -330t-351 -145q-181 0 -299 106q-116 107 -116 279q0 171 120 309q122 137 291 155zM594 834
q142 0 233 98q95 100 95 223q0 111 -77 181.5t-198 70.5q-128 0 -229 -96q-96 -96 -96 -219q0 -115 75 -186.5t197 -71.5zM70 369q0 -154 104 -252q108 -97 268 -97q190 0 316 132q127 133 127 299q0 150 -105 249t-266 99q-181 0 -313 -129q-131 -128 -131 -301z" />
    <glyph glyph-name="nine.onum" horiz-adv-x="1079" 
d="M262 0h-53l553 598q-85 -49 -211 -49q-184 0 -297 110t-113 287q0 198 148 346q147 150 346 150q184 0 299 -115q117 -114 117 -291q0 -183 -187 -385zM559 590q100 0 189.5 46t146.5 118q113 151 113 280q0 160 -105 262q-106 103 -272 103q-182 0 -314 -135
q-133 -136 -133 -314q0 -158 105 -260q103 -100 270 -100z" />
    <glyph glyph-name="zero.tnum" horiz-adv-x="1056" 
d="M31 367q0 82 73 417q15 59 32.5 138.5t21.5 93.5q51 203 174.5 317.5t308.5 114.5q165 0 274 -109t109 -274q0 -72 -72 -420q-30 -155 -51 -233q-15 -65 -30 -105t-50 -104q-36 -69 -84 -113q-52 -47 -134.5 -78.5t-178.5 -31.5q-179 0 -287 108q-106 109 -106 279z
M76 369q0 -156 96.5 -252.5t255.5 -96.5q109 0 192.5 40.5t131.5 113.5q44 68 64.5 117.5t41.5 126.5q34 139 51 229q70 341 70 412q0 149 -96 250q-94 98 -244 98q-78 0 -143.5 -23.5t-111.5 -61t-83 -91t-59.5 -107t-38.5 -114.5q-3 -8 -9 -34t-19 -83t-25 -109
q-74 -334 -74 -415z" />
    <glyph glyph-name="one.tnum" horiz-adv-x="1056" 
d="M580 0h-43l278 1372l-561 -282l-16 38l591 299h41z" />
    <glyph glyph-name="two.tnum" horiz-adv-x="1056" 
d="M836 0h-899l6 33l866 749q172 150 172 310q0 139 -98 227q-94 88 -252 88q-153 0 -266 -98q-114 -94 -117 -230h-45q6 150 129 258q126 111 303 111q170 0 280 -98q111 -99 111 -256q0 -182 -186 -344l-213 -183q-72 -62 -398 -342l-213 -184h828z" />
    <glyph glyph-name="three.tnum" horiz-adv-x="1056" 
d="M-27 279l41 14q29 -125 130.5 -199t246.5 -74q200 0 334 140q135 141 135 317q0 170 -106 273q-106 106 -279 106q-57 0 -113 -16l-14 37l606 509h-665l8 41h733l-6 -36l-602 -504q19 8 67 8q185 0 299 -117q115 -115 115 -297q0 -195 -147 -348q-144 -153 -369 -153
q-159 0 -271 81.5t-143 217.5z" />
    <glyph glyph-name="four.tnum" horiz-adv-x="1056" 
d="M805 367h-805l6 32l715 1028h51l-709 -1017h750l74 366h45l-158 -776h-45z" />
    <glyph glyph-name="five.tnum" horiz-adv-x="1056" 
d="M-31 254l41 16q35 -117 133.5 -183.5t239.5 -66.5q203 0 336 142q135 141 135 317q0 164 -106 264q-106 103 -273 103q-139 0 -266 -86l-33 16l244 651h561l-8 -41h-524l-211 -563q104 66 245 66q182 0 297 -115q117 -114 117 -293q0 -195 -147 -348q-144 -153 -369 -153
q-154 0 -264.5 73.5t-147.5 200.5z" />
    <glyph glyph-name="six.tnum" horiz-adv-x="1058" 
d="M35 367q0 103 43.5 192t142.5 207l555 661h51l-540 -647q94 70 231 70q178 0 289 -111q113 -107 113 -280q0 -185 -138 -332t-344 -147q-177 0 -291 108q-112 106 -112 279zM80 367q0 -153 100 -250q105 -97 260 -97q184 0 312 134q125 134 125 301q0 154 -103 254
q-101 98 -262 98q-173 0 -303 -133q-129 -132 -129 -307z" />
    <glyph glyph-name="seven.tnum" horiz-adv-x="1056" 
d="M201 0h-54l936 1386h-876l8 41h932l-6 -32z" />
    <glyph glyph-name="eight.tnum" horiz-adv-x="1056" 
d="M430 829q-73 36 -116.5 105.5t-43.5 155.5q0 143 111 251q110 107 256 107q132 0 221 -80q90 -81 90 -211q0 -124 -82 -225q-81 -104 -200 -125q106 -33 175.5 -131t69.5 -221q0 -187 -137 -330q-139 -145 -346 -145q-180 0 -295 106q-115 109 -115 279t121 309
q122 137 291 155zM582 834q138 0 229 98q92 100 92 223q0 110 -75.5 181t-192.5 71q-129 0 -225 -96q-95 -95 -95 -219q0 -115 74 -186.5t193 -71.5zM63 369q0 -152 103 -252q105 -97 264 -97q188 0 311 132q125 131 125 299q0 150 -102 249t-262 99q-177 0 -309 -129
q-130 -130 -130 -301z" />
    <glyph glyph-name="nine.tnum" horiz-adv-x="1056" 
d="M291 0h-51l540 647q-92 -69 -231 -69q-177 0 -291 108q-111 111 -111 283q0 184 138 331q139 148 344 148q176 0 291 -109q112 -106 112 -278q0 -103 -43.5 -192t-142.5 -207zM555 621q175 0 303 131q129 132 129 309q0 155 -100 248q-101 98 -260 98q-186 0 -312 -135
q-125 -131 -125 -299q0 -156 101 -254t264 -98z" />
    <glyph glyph-name="four.alt" horiz-adv-x="1087" 
d="M705 324h-742l6 34l971 1069h35l-217 -1062h174l-8 -41h-174l-68 -324h-45zM909 1329l-876 -964h680z" />
    <glyph glyph-name="four.onum.alt" horiz-adv-x="1071" 
d="M621 0h-721l6 33l934 999h37l-203 -991h172l-8 -41h-172l-82 -395h-43zM811 936l-840 -895h658z" />
    <glyph glyph-name="four.tnum.alt" horiz-adv-x="1056" 
d="M707 324h-717l6 34l942 1069h37l-215 -1062h135l-8 -41h-135l-66 -324h-45zM909 1327l-852 -962h658z" />
    <glyph glyph-name="foursuperior.alt" horiz-adv-x="741" 
d="M518 840h-401l4 24l518 563h31l-111 -555h90l-8 -32h-88l-35 -168h-35zM621 1356l-447 -484h350z" />
    <glyph glyph-name="four.inferior.alt" horiz-adv-x="741" 
d="M381 168h-401l4 25l518 563h30l-110 -555h90l-8 -33h-88l-35 -168h-35zM483 684l-446 -483h350z" />
    <glyph glyph-name="onequarter.alt" horiz-adv-x="1308" 
d="M33 0h-45l1188 1427h45zM264 672h-35l148 723h-98l6 32h133zM944 168h-401l4 25l518 563h31l-111 -555h90l-8 -33h-88l-35 -168h-35zM1047 684l-447 -483h350z" />
    <glyph glyph-name="threequarters.alt" horiz-adv-x="1449" 
d="M236 0h-43l1187 1427h43zM1087 168h-401l4 25l518 563h31l-111 -555h91l-9 -33h-88l-35 -168h-34zM1190 684l-447 -483h351zM125 838l33 8q17 -73 76.5 -114.5t150.5 -41.5q105 0 178 70q74 71 74 170q0 80 -56.5 130t-148.5 50q-41 0 -72 -8l-12 22l318 271h-369l6 32
h426l-4 -24l-319 -268q20 4 51 4q92 0 153.5 -59.5t61.5 -147.5q0 -111 -84 -195q-83 -80 -205 -80q-102 0 -171.5 49.5t-86.5 131.5z" />
    <glyph glyph-name="published" horiz-adv-x="1650" 
d="M86 627q0 327 238 571t563 244q299 0 487 -185q191 -182 191 -471q0 -146 -59 -288.5t-165 -259.5q-105 -115 -259 -183.5t-324 -68.5q-299 0 -486 178q-186 180 -186 463zM131 629q0 -266 174 -434t455 -168q221 0 393 112q176 114 271.5 286t95.5 361q0 272 -177 443
q-175 172 -456 172q-307 0 -533 -232q-223 -229 -223 -540zM553 236l-39 2q0 9 180 890h228q117 0 191.5 -70.5t74.5 -180.5q0 -120 -92 -215q-89 -95 -226 -95h-249zM727 1090l-98 -484h245q119 0 195 82q78 84 78 186q0 94 -64 155t-163 61h-193z" />
    <glyph glyph-name="colon.case" horiz-adv-x="311" 
d="M207 944q-37 0 -37 35q0 17 13 30t30 13q37 0 37 -37q0 -17 -12 -29t-31 -12zM92 379q-37 0 -37 35q0 17 13 30t30 13q37 0 37 -37q0 -17 -12 -29t-31 -12z" />
    <glyph glyph-name="semicolon.case" horiz-adv-x="364" 
d="M252 944q-37 0 -37 35q0 17 13 30t30 13q37 0 37 -37q0 -17 -12 -29t-31 -12zM184 457l-305 -457h-43l291 457h57z" />
    <glyph glyph-name="bullet.case" horiz-adv-x="366" 
d="M176 645q-26 0 -43.5 16t-17.5 41q0 31 21.5 54.5t51.5 23.5q26 0 44 -17.5t18 -43.5q0 -31 -21.5 -52.5t-52.5 -21.5z" />
    <glyph glyph-name="periodcentered.case" horiz-adv-x="288" 
d="M141 672q-37 0 -37 37q0 17 12 29t29 12q37 0 37 -35q0 -17 -12 -30t-29 -13z" />
    <glyph glyph-name="guilsinglleft.case" horiz-adv-x="446" 
d="M272 285h-45l-153 358l297 358h53l-301 -362z" />
    <glyph glyph-name="guilsinglright.case" horiz-adv-x="446" 
d="M47 285h-53l301 362l-150 354h45l154 -358z" />
    <glyph glyph-name="guillemotleft.case" horiz-adv-x="651" 
d="M477 285h-45l-153 358l296 358h54l-301 -362zM272 285h-45l-153 358l297 358h53l-301 -362z" />
    <glyph glyph-name="guillemotright.case" horiz-adv-x="651" 
d="M252 285h-53l301 362l-150 354h45l154 -358zM47 285h-53l301 362l-150 354h45l154 -358z" />
    <glyph glyph-name="slash.case" horiz-adv-x="794" 
d="M926 1593l-1002 -1759h-47l1002 1759h47z" />
    <glyph glyph-name="backslash.case" horiz-adv-x="796" 
d="M563 -166h-41l-284 1759h41z" />
    <glyph glyph-name="hyphen.case" horiz-adv-x="636" 
d="M532 692h-436l8 41h437z" />
    <glyph glyph-name="endash.case" horiz-adv-x="966" 
d="M862 692h-766l6 41h766z" />
    <glyph glyph-name="emdash.case" horiz-adv-x="1507" 
d="M1403 692h-1307l6 41h1307z" />
    <glyph glyph-name="parenleft.case" horiz-adv-x="524" 
d="M395 -225l-28 -27q-136 152 -209.5 358t-73.5 435q0 314 171.5 599.5t496.5 514.5l20 -29q-647 -469 -647 -1096q0 -444 270 -755z" />
    <glyph glyph-name="parenright.case" horiz-adv-x="524" 
d="M-231 -254l-21 29q647 469 647 1095q0 446 -270 756l29 27q136 -152 209 -358t73 -435q0 -314 -171 -599.5t-496 -514.5z" />
    <glyph glyph-name="bracketleft.case" horiz-adv-x="536" 
d="M408 1585l-355 -1741h291l-6 -41h-336l371 1823h336l-9 -41h-292z" />
    <glyph glyph-name="bracketright.case" horiz-adv-x="536" 
d="M-166 -156h291l354 1741h-291l9 41h335l-370 -1823h-336z" />
    <glyph glyph-name="braceleft.case" horiz-adv-x="583" 
d="M98 18l97 467l2 13q2 14 4 30.5t2 24.5q0 134 -129 149l4 31q172 15 203 174l110 547q34 174 203 174h78l-6 -39h-72q-58 0 -100.5 -34t-59.5 -103l-110 -543q-13 -74 -59.5 -128t-104.5 -66q84 -41 84 -162q0 -11 -4 -41.5t-4 -36.5l-97 -465q-4 -28 -4 -43
q0 -56 35 -89.5t96 -33.5h43l-8 -39h-43q-77 0 -120.5 44t-43.5 120q0 17 4 49z" />
    <glyph glyph-name="braceright.case" horiz-adv-x="583" 
d="M152 -18l110 542q13 74 59.5 128.5t104.5 66.5q-84 41 -84 162q0 11 4 41t4 36l96 465q5 35 5 43q0 56 -35.5 89.5t-96.5 33.5h-43l9 39h43q77 0 120.5 -44t43.5 -120q0 -9 -5 -49l-96 -467l-2 -14q-2 -13 -4 -29t-2 -24q0 -135 129 -150l-4 -31q-172 -15 -203 -174
l-110 -546q-34 -175 -203 -175h-78l6 39h72q58 0 100.5 34.5t59.5 103.5z" />
    <glyph glyph-name="exclamdown.case" horiz-adv-x="413" 
d="M344 1362q-37 0 -37 35q0 17 13 30t30 13q37 0 37 -37q0 -17 -12 -29t-31 -12zM88 0h-51l229 1110h41z" />
    <glyph glyph-name="questiondown.case" horiz-adv-x="788" 
d="M541 1362q-37 0 -37 37q0 17 12 29t31 12q37 0 37 -35q0 -17 -13 -30t-30 -13zM-10 229q0 104 53 191q18 29 70 72q58 48 75 57l97 59l77 43q61 32 93 54q63 41 110 100.5t39 120.5q0 67 -50 108t-132 41q-65 0 -119 -31l8 46q56 26 113 26q103 0 163 -51t60 -137
q9 -86 -84 -189q-17 -24 -59 -51q-18 -11 -38.5 -24.5t-21.5 -14.5l-71 -43q-15 -8 -31 -17t-23 -13t-10 -5l-108 -65q-27 -16 -80 -66q-86 -78 -86 -209q0 -91 71.5 -147.5t188.5 -56.5q147 0 266 116l-8 -55q-108 -102 -260 -102q-135 0 -219 67t-84 176z" />
    <glyph glyph-name="at.case" horiz-adv-x="1648" 
d="M78 631q0 327 239 569t568 242q301 0 495 -182q195 -183 195 -467q0 -174 -96 -314q-94 -135 -236 -135q-74 0 -118 36t-44 97q0 23 9 58q-36 -80 -121.5 -133.5t-188.5 -53.5q-141 0 -229 88q-90 90 -90 228q0 155 110 280q113 125 281 125q119 0 199 -59t98 -150
l39 193l41 -2l-103 -502q-8 -31 -8 -60q0 -108 127 -108q123 0 205 125q84 128 84 285q0 269 -182 442q-181 172 -467 172q-313 0 -541 -231q-227 -230 -227 -541q0 -271 178 -440q182 -170 465 -170q160 0 291 55l10 -35q-139 -59 -303 -59q-303 0 -492 180
q-188 182 -188 467zM500 668q0 -123 79.5 -202t202.5 -79q156 0 250 119t94 278q0 109 -78 177.5t-202 68.5q-148 0 -248 -112q-98 -110 -98 -250z" />
    <glyph glyph-name="Agrave.alt1" horiz-adv-x="1333" 
d="M788 1229h-38l-68 198h53zM254 406l-283 -406h-51l825 1194h37l340 -1194h-45l-116 406h-707zM756 1130l-473 -681h665z" />
    <glyph glyph-name="Aacute.alt1" horiz-adv-x="1333" 
d="M795 1229h-41l133 198h59zM254 406l-283 -406h-51l825 1194h37l340 -1194h-45l-116 406h-707zM756 1130l-473 -681h665z" />
    <glyph glyph-name="Acircumflex.alt1" horiz-adv-x="1333" 
d="M254 406l-283 -406h-51l825 1194h37l340 -1194h-45l-116 406h-707zM756 1130l-473 -681h665zM571 1229h-67l287 198h38l205 -198h-55l-170 162z" />
    <glyph glyph-name="Atilde.alt1" horiz-adv-x="1333" 
d="M547 1303l-39 4q24 59 70 95t104 36q60 0 127 -52q70 -49 121 -49q95 0 135 113l39 -4q-47 -148 -178 -148q-62 0 -133 50q-66 51 -119 51q-86 0 -127 -96zM254 406l-283 -406h-51l825 1194h37l340 -1194h-45l-116 406h-707zM756 1130l-473 -681h665z" />
    <glyph glyph-name="Adieresis.alt1" horiz-adv-x="1302" 
d="M1024 1378q-37 0 -37 35q0 17 12 30t29 13q37 0 37 -37q0 -17 -12 -29t-29 -12zM567 1378q-37 0 -37 35q0 17 13 30t30 13q37 0 37 -37q0 -17 -12 -29t-31 -12zM-31 0h-47l858 1427h39l279 -1427h-43l-84 432h-742zM791 1364l-537 -891h709z" />
    <glyph glyph-name="Amacron.alt1" horiz-adv-x="1333" 
d="M1102 1391h-602l8 36h602zM254 406l-283 -406h-51l825 1194h37l340 -1194h-45l-116 406h-707zM756 1130l-473 -681h665z" />
    <glyph glyph-name="Abreve.alt1" horiz-adv-x="1333" 
d="M776 1257q-80 0 -126 45.5t-46 124.5h41q6 -129 137 -129q136 0 191 129h43q-29 -81 -92 -125.5t-148 -44.5zM254 406l-283 -406h-51l825 1194h37l340 -1194h-45l-116 406h-707zM756 1130l-473 -681h665z" />
    <glyph glyph-name="Aring.alt1" horiz-adv-x="1325" 
d="M244 408l-273 -408h-51l805 1204q-70 27 -70 103q0 56 43.5 98.5t100.5 42.5q54 0 87.5 -33t33.5 -84q0 -46 -31.5 -85.5t-79.5 -49.5l311 -1196h-47l-106 408h-723zM778 1231q43 0 73 30t30 68q0 36 -23 58t-61 22q-41 0 -72 -30.5t-31 -69.5q0 -35 23.5 -56.5
t60.5 -21.5zM766 1190l-494 -741h684z" />
    <glyph glyph-name="Aringacute.alt1" horiz-adv-x="1316" 
d="M266 408l-291 -408h-53l766 1079q-67 21 -67 97q0 57 41 99t98 42q25 0 49 -8l88 118h55l-112 -139q39 -26 39 -86q0 -42 -30.5 -80.5t-74.5 -48.5l332 -1073h-47l-127 408h-666zM741 1102q42 0 71.5 30t29.5 68q0 36 -23.5 58t-60.5 22q-41 0 -71 -30.5t-30 -71.5
q0 -32 24 -54t60 -22zM731 1067l-436 -618h625z" />
    <glyph glyph-name="Aogonek.alt1" horiz-adv-x="1298" 
d="M-27 0h-47l858 1427h39l219 -1122q-188 -102 -188 -217q0 -32 23.5 -51t64.5 -19q56 0 125 29l-18 -43q-53 -24 -117 -24q-54 0 -86.5 27.5t-32.5 72.5q0 138 184 237l-22 115h-742zM795 1364l-537 -891h709z" />
    <glyph glyph-name="AEacute.alt1" horiz-adv-x="1996" 
d="M1300 1229h-40l133 198h59zM424 401l-451 -401h-61l1341 1194h705l-10 -41h-672l-102 -498h634l-10 -41h-633l-116 -573h688l-8 -41h-734l82 401h-653zM1223 1112l-752 -670h614z" />
    <glyph glyph-name="Cacute.alt1" horiz-adv-x="1325" 
d="M838 1229h-41l133 198h59zM74 520q0 268 202 467q204 201 488 201q162 0 297 -68.5t213 -191.5l-35 -25q-69 113 -196 178.5t-281 65.5q-263 0 -455 -189q-188 -188 -188 -436q0 -217 155 -360q157 -142 400 -142q253 0 434 166l29 -30q-194 -176 -465 -176
q-259 0 -430 151q-168 149 -168 389z" />
    <glyph glyph-name="Ccircumflex.alt1" horiz-adv-x="1325" 
d="M74 520q0 268 202 467q204 201 488 201q162 0 297 -68.5t213 -191.5l-35 -25q-69 113 -196 178.5t-281 65.5q-263 0 -455 -189q-188 -188 -188 -436q0 -217 155 -360q157 -142 400 -142q253 0 434 166l29 -30q-194 -176 -465 -176q-259 0 -430 151q-168 149 -168 389z
M606 1229h-67l286 198h39l205 -198h-55l-170 162z" />
    <glyph glyph-name="Ccaron.alt1" horiz-adv-x="1325" 
d="M74 520q0 268 202 467q204 201 488 201q162 0 297 -68.5t213 -191.5l-35 -25q-69 113 -196 178.5t-281 65.5q-263 0 -455 -189q-188 -188 -188 -436q0 -217 155 -360q157 -142 400 -142q253 0 434 166l29 -30q-194 -176 -465 -176q-259 0 -430 151q-168 149 -168 389z
M852 1229h-39l-205 198h56l170 -161l237 161h68z" />
    <glyph glyph-name="Cdotaccent.alt1" horiz-adv-x="1325" 
d="M831 1286q-36 0 -36 37q0 17 13 29t30 12q36 0 36 -35q0 -18 -12.5 -30.5t-30.5 -12.5zM74 520q0 268 202 467q204 201 488 201q162 0 297 -68.5t213 -191.5l-35 -25q-69 113 -196 178.5t-281 65.5q-263 0 -455 -189q-188 -188 -188 -436q0 -217 155 -360
q157 -142 400 -142q253 0 434 166l29 -30q-194 -176 -465 -176q-259 0 -430 151q-168 149 -168 389z" />
    <glyph glyph-name="Ccedilla.alt1" horiz-adv-x="1415" 
d="M475 10l17 31q36 -31 88 -31q92 0 92 58q0 51 -90 51q-2 0 -52 -4l84 131q-222 35 -356 178q-133 145 -133 356q0 267 203 467q204 201 487 201q162 0 297 -68.5t213 -191.5l-35 -25q-69 113 -196 178.5t-281 65.5q-264 0 -455 -188q-188 -188 -188 -437q0 -216 156 -360
q156 -141 399 -141q254 0 434 165l29 -30q-194 -176 -465 -176q-54 0 -68 2l-61 -97l20 2q101 0 101 -79q0 -43 -36.5 -69t-96.5 -26q-70 0 -107 37z" />
    <glyph glyph-name="Dcaron.alt1" horiz-adv-x="1396" 
d="M557 0h-498l244 1194h342q275 0 449 -145q174 -143 174 -375q0 -175 -80 -326q-78 -147 -246 -250q-165 -98 -385 -98zM340 1151l-225 -1108h442q207 0 361 92q151 90 228 230.5t77 306.5q0 211 -160 344q-159 135 -416 135h-307zM815 1229h-39l-205 198h56l170 -161
l237 161h68z" />
    <glyph glyph-name="Egrave.alt1" horiz-adv-x="1067" 
d="M715 1229h-39l-68 198h54zM791 0h-732l244 1194h719l-10 -41h-672l-102 -498h634l-10 -41h-631l-118 -573h686z" />
    <glyph glyph-name="Eacute.alt1" horiz-adv-x="1067" 
d="M668 1229h-41l133 198h59zM791 0h-732l244 1194h719l-10 -41h-672l-102 -498h634l-10 -41h-631l-118 -573h686z" />
    <glyph glyph-name="Ecircumflex.alt1" horiz-adv-x="1067" 
d="M791 0h-732l244 1194h719l-10 -41h-672l-102 -498h634l-10 -41h-631l-118 -573h686zM469 1229h-68l287 198h39l205 -198h-55l-170 162z" />
    <glyph glyph-name="Ecaron.alt1" horiz-adv-x="1067" 
d="M791 0h-732l244 1194h719l-10 -41h-672l-102 -498h634l-10 -41h-631l-118 -573h686zM694 1229h-39l-204 198h55l170 -161l237 161h68z" />
    <glyph glyph-name="Edieresis.alt1" horiz-adv-x="1067" 
d="M862 1286q-37 0 -37 37q0 17 12 29t29 12q37 0 37 -35q0 -17 -12 -30t-29 -13zM489 1286q-36 0 -36 37q0 17 13 29t30 12q36 0 36 -35q0 -18 -12.5 -30.5t-30.5 -12.5zM791 0h-732l244 1194h719l-10 -41h-672l-102 -498h634l-10 -41h-631l-118 -573h686z" />
    <glyph glyph-name="Emacron.alt1" horiz-adv-x="1067" 
d="M991 1391h-602l8 36h602zM791 0h-732l244 1194h719l-10 -41h-672l-102 -498h634l-10 -41h-631l-118 -573h686z" />
    <glyph glyph-name="Ebreve.alt1" horiz-adv-x="1067" 
d="M662 1257q-80 0 -126.5 45.5t-46.5 124.5h41q6 -129 138 -129q134 0 190 129h43q-29 -82 -91.5 -126t-147.5 -44zM791 0h-732l244 1194h719l-10 -41h-672l-102 -498h634l-10 -41h-631l-118 -573h686z" />
    <glyph glyph-name="Edotaccent.alt1" horiz-adv-x="1067" 
d="M668 1286q-37 0 -37 37q0 17 13 29t30 12q37 0 37 -35q0 -18 -12.5 -30.5t-30.5 -12.5zM791 0h-732l244 1194h719l-10 -41h-672l-102 -498h634l-10 -41h-631l-118 -573h686z" />
    <glyph glyph-name="Eogonek.alt1" horiz-adv-x="1067" 
d="M758 233h-652l244 1194h719l-10 -41h-672l-102 -497h635l-11 -41h-630l-119 -574h686l-8 -41q-84 -32 -134.5 -80.5t-50.5 -93.5q0 -41 60 -41q49 0 92 29l-17 -45q-36 -22 -88 -22q-42 0 -66 19t-24 52q0 50 40.5 100t107.5 82z" />
    <glyph glyph-name="Gcircumflex.alt1" horiz-adv-x="1345" 
d="M70 514q0 266 200 469q199 205 473 205q296 0 437 -182l-33 -27q-134 168 -408 168q-248 0 -436 -191q-188 -188 -188 -436q0 -218 151 -360t375 -142q116 0 226.5 36.5t179.5 99.5l83 413h-473l11 43h516l-99 -479q-165 -154 -446 -154q-243 0 -408 154
q-161 151 -161 383zM606 1229h-67l286 198h39l205 -198h-55l-170 162z" />
    <glyph glyph-name="Gbreve.alt1" horiz-adv-x="1345" 
d="M807 1257q-80 0 -126 45.5t-46 124.5h41q6 -129 137 -129q135 0 191 129h43q-29 -81 -92 -125.5t-148 -44.5zM70 514q0 266 200 469q199 205 473 205q296 0 437 -182l-33 -27q-134 168 -408 168q-248 0 -436 -191q-188 -188 -188 -436q0 -218 151 -360t375 -142
q116 0 226.5 36.5t179.5 99.5l83 413h-473l11 43h516l-99 -479q-165 -154 -446 -154q-243 0 -408 154q-161 151 -161 383z" />
    <glyph glyph-name="Gdotaccent.alt1" horiz-adv-x="1345" 
d="M821 1286q-37 0 -37 37q0 17 12 29t31 12q37 0 37 -35q0 -18 -12.5 -30.5t-30.5 -12.5zM70 514q0 266 200 469q199 205 473 205q296 0 437 -182l-33 -27q-134 168 -408 168q-248 0 -436 -191q-188 -188 -188 -436q0 -218 151 -360t375 -142q116 0 226.5 36.5t179.5 99.5
l83 413h-473l11 43h516l-99 -479q-165 -154 -446 -154q-243 0 -408 154q-161 151 -161 383z" />
    <glyph glyph-name="Gcommaaccent.alt1" horiz-adv-x="1345" 
d="M692 240q-242 0 -407 151q-162 152 -162 383q0 264 201 471q199 205 473 205q294 0 438 -182l-35 -27q-135 166 -407 166q-247 0 -437 -190q-188 -188 -188 -435q0 -217 151 -362q150 -141 375 -141q260 0 406 137l84 413h-471l8 41h516l-98 -479q-76 -72 -196.5 -111.5
t-250.5 -39.5zM547 0h-41l133 199h59z" />
    <glyph glyph-name="Hcircumflex.alt1" horiz-adv-x="1404" 
d="M104 0h-45l291 1427h45l-133 -649h907l131 649h46l-291 -1427h-45l151 737h-907zM602 1229h-67l286 198h39l205 -198h-55l-170 162z" />
    <glyph glyph-name="Igrave.alt1" horiz-adv-x="468" 
d="M358 1229h-39l-67 198h53zM111 0h-43l243 1194h43z" />
    <glyph glyph-name="Iacute.alt1" horiz-adv-x="468" 
d="M358 1229h-41l134 198h59zM111 0h-43l243 1194h43z" />
    <glyph glyph-name="Icircumflex.alt1" horiz-adv-x="468" 
d="M164 1229h-58l254 198h39l172 -198h-49l-145 164zM111 0h-43l243 1194h43z" />
    <glyph glyph-name="Itilde.alt1" horiz-adv-x="468" 
d="M117 1303l-39 4q24 59 70 95t104 36q60 0 127 -52q70 -49 121 -49q95 0 135 113l39 -4q-47 -148 -178 -148q-63 0 -134 50q-66 51 -118 51q-86 0 -127 -96zM111 0h-43l243 1194h43z" />
    <glyph glyph-name="Idieresis.alt1" horiz-adv-x="468" 
d="M500 1286q-37 0 -37 37q0 17 12 29t29 12q37 0 37 -35q0 -17 -12 -30t-29 -13zM209 1286q-37 0 -37 37q0 17 12 29t29 12q37 0 37 -35q0 -17 -12 -30t-29 -13zM111 0h-43l243 1194h43z" />
    <glyph glyph-name="Imacron.alt1" horiz-adv-x="468" 
d="M604 1391h-465l6 36h465zM111 0h-43l243 1194h43z" />
    <glyph glyph-name="Ibreve.alt1" horiz-adv-x="468" 
d="M346 1257q-80 0 -126 45.5t-46 124.5h41q6 -129 137 -129q135 0 191 129h43q-29 -81 -92 -125.5t-148 -44.5zM111 0h-43l243 1194h43z" />
    <glyph glyph-name="Idotaccent.alt1" horiz-adv-x="468" 
d="M356 1286q-37 0 -37 37q0 17 13 29t30 12q37 0 37 -35q0 -18 -12.5 -30.5t-30.5 -12.5zM111 0h-43l243 1194h43z" />
    <glyph glyph-name="Iogonek.alt1" horiz-adv-x="468" 
d="M-43 51q0 57 43 111t117 84v2l241 1179h43l-243 -1194q-74 -35 -116 -82t-42 -92q0 -41 59 -41q52 0 99 29l-17 -45q-42 -22 -94 -22q-42 0 -66 19t-24 52z" />
    <glyph glyph-name="Jcircumflex.alt1" horiz-adv-x="675" 
d="M385 1229h-57l254 198h39l172 -198h-50l-145 164zM55 -16q-78 0 -139 22l10 41q44 -20 127 -20q134 0 204.5 75.5t107.5 255.5l170 836h45l-170 -838q-40 -194 -117 -282q-78 -90 -238 -90z" />
    <glyph glyph-name="Kcommaaccent.alt1" horiz-adv-x="1163" 
d="M104 0h-45l291 1427h45l-184 -897l1003 897h60l-709 -636l451 -791h-49l-437 762l-331 -297zM436 0h-41l133 199h60z" />
    <glyph glyph-name="Lacute.alt1" horiz-adv-x="989" 
d="M350 1229h-41l133 198h60zM750 0h-691l244 1194h45l-235 -1153h645z" />
    <glyph glyph-name="Lcommaaccent.alt1" horiz-adv-x="989" 
d="M797 233h-691l244 1194h45l-235 -1153h645zM352 0h-41l133 199h60z" />
    <glyph glyph-name="Nacute.alt1" horiz-adv-x="1454" 
d="M819 1229h-41l133 198h60zM104 0h-45l291 1427h37l688 -1345l275 1345h45l-291 -1427h-33l-692 1352z" />
    <glyph glyph-name="Ncaron.alt1" horiz-adv-x="1454" 
d="M104 0h-45l291 1427h37l688 -1345l275 1345h45l-291 -1427h-33l-692 1352zM860 1229h-39l-205 198h56l170 -161l237 161h68z" />
    <glyph glyph-name="Ntilde.alt1" horiz-adv-x="1454" 
d="M104 0h-45l291 1427h37l688 -1345l275 1345h45l-291 -1427h-33l-692 1352zM604 1303l-39 4q24 59 70 95t104 36q60 0 127 -52q70 -49 121 -49q95 0 135 113l39 -4q-47 -148 -178 -148q-62 0 -133 50q-66 51 -119 51q-86 0 -127 -96z" />
    <glyph glyph-name="Ncommaaccent.alt1" horiz-adv-x="1454" 
d="M518 0h-41l133 199h60zM104 0h-45l291 1427h37l688 -1345l275 1345h45l-291 -1427h-33l-692 1352z" />
    <glyph glyph-name="Ograve.alt1" horiz-adv-x="1478" 
d="M872 1229h-38l-68 198h53zM74 516q0 272 205 471q207 201 485 201q259 0 424 -154q164 -150 164 -391q0 -164 -86 -315q-83 -146 -250 -250q-162 -98 -361 -98q-257 0 -419 149t-162 387zM117 518q0 -219 151 -358q152 -140 391 -140q276 0 461 191q187 193 187 430
q0 222 -152 365q-150 141 -393 141q-260 0 -455 -189q-190 -187 -190 -440z" />
    <glyph glyph-name="Oacute.alt1" horiz-adv-x="1478" 
d="M852 1229h-41l133 198h60zM74 516q0 272 205 471q207 201 485 201q259 0 424 -154q164 -150 164 -391q0 -164 -86 -315q-83 -146 -250 -250q-162 -98 -361 -98q-257 0 -419 149t-162 387zM117 518q0 -219 151 -358q152 -140 391 -140q276 0 461 191q187 193 187 430
q0 222 -152 365q-150 141 -393 141q-260 0 -455 -189q-190 -187 -190 -440z" />
    <glyph glyph-name="Ocircumflex.alt1" horiz-adv-x="1478" 
d="M74 516q0 272 205 471q207 201 485 201q259 0 424 -154q164 -150 164 -391q0 -164 -86 -315q-83 -146 -250 -250q-162 -98 -361 -98q-257 0 -419 149t-162 387zM117 518q0 -219 151 -358q152 -140 391 -140q276 0 461 191q187 193 187 430q0 222 -152 365
q-150 141 -393 141q-260 0 -455 -189q-190 -187 -190 -440zM637 1229h-68l287 198h39l205 -198h-56l-170 162z" />
    <glyph glyph-name="Otilde.alt1" horiz-adv-x="1478" 
d="M616 1303l-38 4q24 59 70 95t104 36q60 0 127 -52q70 -49 120 -49q96 0 136 113l39 -4q-47 -148 -179 -148q-62 0 -133 50q-66 51 -119 51q-86 0 -127 -96zM74 516q0 272 205 471q207 201 485 201q259 0 424 -154q164 -150 164 -391q0 -164 -86 -315q-83 -146 -250 -250
q-162 -98 -361 -98q-257 0 -419 149t-162 387zM117 518q0 -219 151 -358q152 -140 391 -140q276 0 461 191q187 193 187 430q0 222 -152 365q-150 141 -393 141q-260 0 -455 -189q-190 -187 -190 -440z" />
    <glyph glyph-name="Odieresis.alt1" horiz-adv-x="1673" 
d="M1368 1413q0 18 12.5 30.5t30.5 12.5q37 0 37 -37q0 -17 -12 -29t-31 -12q-37 0 -37 35zM416 1378q-35 0 -35 35q0 17 12 30t29 13q37 0 37 -37q0 -17 -12 -29t-31 -12zM94 627q-4 124 36.5 248t116.5 227t176 182.5t223.5 123t250.5 40.5q301 0 487 -186
q191 -185 191 -474q0 -204 -102 -391q-101 -182 -291 -301q-186 -116 -414 -116q-299 0 -485 180q-189 183 -189 467zM139 629q0 -266 176 -439q176 -170 455 -170q320 0 541 234q221 235 221 532q0 272 -178 447q-174 174 -457 174q-311 0 -535 -236q-223 -235 -223 -542z
" />
    <glyph glyph-name="Omacron.alt1" horiz-adv-x="1478" 
d="M1167 1391h-602l6 36h603zM74 516q0 272 205 471q207 201 485 201q259 0 424 -154q164 -150 164 -391q0 -164 -86 -315q-83 -146 -250 -250q-162 -98 -361 -98q-257 0 -419 149t-162 387zM117 518q0 -219 151 -358q152 -140 391 -140q276 0 461 191q187 193 187 430
q0 222 -152 365q-150 141 -393 141q-260 0 -455 -189q-190 -187 -190 -440z" />
    <glyph glyph-name="Obreve.alt1" horiz-adv-x="1478" 
d="M846 1257q-80 0 -126 45.5t-46 124.5h41q6 -129 137 -129q134 0 190 129h43q-29 -82 -91.5 -126t-147.5 -44zM74 516q0 272 205 471q207 201 485 201q259 0 424 -154q164 -150 164 -391q0 -164 -86 -315q-83 -146 -250 -250q-162 -98 -361 -98q-257 0 -419 149t-162 387z
M117 518q0 -219 151 -358q152 -140 391 -140q276 0 461 191q187 193 187 430q0 222 -152 365q-150 141 -393 141q-260 0 -455 -189q-190 -187 -190 -440z" />
    <glyph glyph-name="Ohungarumlaut.alt1" horiz-adv-x="1478" 
d="M999 1229h-38l149 198h53zM692 1229h-41l152 198h53zM74 516q0 272 205 471q207 201 485 201q259 0 424 -154q164 -150 164 -391q0 -164 -86 -315q-83 -146 -250 -250q-162 -98 -361 -98q-257 0 -419 149t-162 387zM117 518q0 -219 151 -358q152 -140 391 -140
q276 0 461 191q187 193 187 430q0 222 -152 365q-150 141 -393 141q-260 0 -455 -189q-190 -187 -190 -440z" />
    <glyph glyph-name="Oslashacute.alt1" horiz-adv-x="1478" 
d="M854 1229h-41l133 198h60zM164 -35l-29 25l119 125q-180 146 -180 401q0 272 205 471q207 201 485 201q236 0 399 -135l123 127l27 -25l-121 -125q160 -154 160 -387q0 -164 -86 -315q-83 -146 -250 -250q-162 -98 -361 -98q-221 0 -370 110zM285 145l848 877
q-149 125 -371 125q-260 0 -455 -189q-190 -187 -190 -440q0 -233 168 -373zM1161 997l-846 -876q143 -101 344 -101q276 0 461 191q187 193 187 430q0 216 -146 356z" />
    <glyph glyph-name="Racute.alt1" horiz-adv-x="1103" 
d="M633 1229h-41l133 198h59zM104 0h-45l244 1194h359q152 0 245.5 -84t93.5 -219q0 -132 -94 -236q-91 -102 -239 -123l206 -532h-47l-206 528h-408zM340 1151l-121 -582h397q148 0 242 99q98 98 98 223q0 115 -81.5 187.5t-212.5 72.5h-322z" />
    <glyph glyph-name="Rcaron.alt1" horiz-adv-x="1103" 
d="M104 0h-45l244 1194h359q152 0 245.5 -84t93.5 -219q0 -132 -94 -236q-91 -102 -239 -123l206 -532h-47l-206 528h-408zM340 1151l-121 -582h397q148 0 242 99q98 98 98 223q0 115 -81.5 187.5t-212.5 72.5h-322zM662 1229h-39l-205 198h55l170 -161l238 161h67z" />
    <glyph glyph-name="Rcommaaccent.alt1" horiz-adv-x="1173" 
d="M104 0h-45l289 1427h385q168 0 271 -100q104 -98 104 -256q0 -161 -111 -287q-112 -127 -276 -145l227 -639h-47l-225 635h-443zM385 1386l-143 -710h424q169 0 284 121t115 272q0 139 -94 227q-93 90 -240 90h-346zM412 0h-41l133 199h59z" />
    <glyph glyph-name="Sacute.alt1" horiz-adv-x="958" 
d="M584 1229h-41l133 198h59zM-18 240l38 16q39 -113 132.5 -175.5t228.5 -62.5q154 0 250 84q98 85 98 220q0 91 -58.5 153.5t-193.5 124.5q-142 66 -202 127.5t-60 155.5q0 130 96 217q98 88 236 88q95 0 171 -42.5t109 -111.5l-39 -18q-76 131 -245 131q-118 0 -201 -74
q-82 -73 -82 -182q0 -87 54.5 -140.5t189.5 -113.5q145 -69 207.5 -137t62.5 -170q0 -152 -108 -254q-108 -99 -291 -99q-143 0 -249 70.5t-144 192.5z" />
    <glyph glyph-name="Scircumflex.alt1" horiz-adv-x="958" 
d="M-18 240l38 16q39 -113 132.5 -175.5t228.5 -62.5q154 0 250 84q98 85 98 220q0 91 -58.5 153.5t-193.5 124.5q-142 66 -202 127.5t-60 155.5q0 130 96 217q98 88 236 88q95 0 171 -42.5t109 -111.5l-39 -18q-76 131 -245 131q-118 0 -201 -74q-82 -73 -82 -182
q0 -87 54.5 -140.5t189.5 -113.5q145 -69 207.5 -137t62.5 -170q0 -152 -108 -254q-108 -99 -291 -99q-143 0 -249 70.5t-144 192.5zM365 1229h-68l287 198h39l204 -198h-55l-170 162z" />
    <glyph glyph-name="Scaron.alt1" horiz-adv-x="958" 
d="M-18 240l38 16q39 -113 132.5 -175.5t228.5 -62.5q154 0 250 84q98 85 98 220q0 91 -58.5 153.5t-193.5 124.5q-142 66 -202 127.5t-60 155.5q0 130 96 217q98 88 236 88q95 0 171 -42.5t109 -111.5l-39 -18q-76 131 -245 131q-118 0 -201 -74q-82 -73 -82 -182
q0 -87 54.5 -140.5t189.5 -113.5q145 -69 207.5 -137t62.5 -170q0 -152 -108 -254q-108 -99 -291 -99q-143 0 -249 70.5t-144 192.5zM598 1229h-39l-205 198h56l170 -161l237 161h68z" />
    <glyph glyph-name="Scommaaccent.alt1" horiz-adv-x="958" 
d="M428 238q-143 0 -249 70t-144 192l39 16q39 -111 132 -173t228 -62q154 0 250 84q98 82 98 217q0 92 -57.5 153.5t-194.5 124.5q-142 66 -202 127.5t-60 155.5q0 129 97 217q98 88 235 88q95 0 171.5 -42.5t109.5 -111.5l-39 -18q-76 131 -246 131q-118 0 -201 -74
q-82 -73 -82 -182q0 -87 54.5 -140.5t189.5 -113.5q145 -69 207.5 -137t62.5 -170q0 -152 -108 -254q-107 -98 -291 -98zM299 0h-41l133 199h60z" />
    <glyph glyph-name="Scedilla.alt1" horiz-adv-x="958" 
d="M270 10l17 31q36 -31 88 -31q92 0 92 58q0 51 -90 51q-5 0 -51 -4l77 123q-135 6 -232.5 75t-135.5 187l39 16q39 -111 132 -173t228 -62q154 0 250 84q98 82 98 217q0 92 -57.5 153.5t-194.5 124.5q-142 66 -202 127.5t-60 155.5q0 129 97 217q98 88 235 88
q95 0 171.5 -42.5t109.5 -111.5l-39 -18q-76 131 -246 131q-118 0 -201 -74q-82 -73 -82 -182q0 -87 54.5 -140.5t189.5 -113.5q145 -69 207.5 -137t62.5 -170q0 -153 -104.5 -250.5t-276.5 -101.5h-2l-55 -93l19 2q47 0 74.5 -21t27.5 -58q0 -43 -36.5 -69t-96.5 -26
q-70 0 -107 37z" />
    <glyph glyph-name="Tcaron.alt1" horiz-adv-x="1093" 
d="M424 0h-45l233 1153h-446l10 41h938l-10 -41h-447zM668 1229h-39l-205 198h55l170 -161l238 161h67z" />
    <glyph glyph-name="Tcommaaccent.alt1" horiz-adv-x="1093" 
d="M471 233h-45l236 1153h-447l8 41h938l-8 -41h-446zM319 0h-40l133 199h59z" />
    <glyph glyph-name="Ugrave.alt1" 
d="M135 381q0 48 12 113l191 933h45l-193 -946q-10 -55 -10 -100q0 -155 109 -258q110 -98 286 -98q387 0 472 411l200 991h45l-202 -999q-88 -444 -519 -444q-190 0 -313 108t-123 289zM834 1229h-39l-68 198h53z" />
    <glyph glyph-name="Uacute.alt1" 
d="M135 381q0 48 12 113l191 933h45l-193 -946q-10 -55 -10 -100q0 -155 109 -258q110 -98 286 -98q387 0 472 411l200 991h45l-202 -999q-88 -444 -519 -444q-190 0 -313 108t-123 289zM735 1229h-41l133 198h60z" />
    <glyph glyph-name="Ucircumflex.alt1" 
d="M135 381q0 48 12 113l191 933h45l-193 -946q-10 -55 -10 -100q0 -155 109 -258q110 -98 286 -98q387 0 472 411l200 991h45l-202 -999q-88 -444 -519 -444q-190 0 -313 108t-123 289zM573 1229h-67l287 198h38l205 -198h-55l-170 162z" />
    <glyph glyph-name="Utilde.alt1" 
d="M135 381q0 48 12 113l191 933h45l-193 -946q-10 -55 -10 -100q0 -155 109 -258q110 -98 286 -98q387 0 472 411l200 991h45l-202 -999q-88 -444 -519 -444q-190 0 -313 108t-123 289zM547 1303l-39 4q24 59 70 95t104 36q60 0 127 -52q70 -49 121 -49q95 0 135 113l39 -4
q-47 -148 -178 -148q-62 0 -133 50q-66 51 -119 51q-86 0 -127 -96z" />
    <glyph glyph-name="Udieresis.alt1" 
d="M1014 1415q-37 0 -37 35q0 18 12.5 30.5t30.5 12.5q37 0 37 -37q0 -17 -12 -29t-31 -12zM614 1415q-36 0 -36 35q0 17 13 30t30 13q36 0 36 -37q0 -17 -12 -29t-31 -12zM135 381q0 48 12 113l191 933h45l-193 -946q-10 -55 -10 -100q0 -155 109 -258q110 -98 286 -98
q387 0 472 411l200 991h45l-202 -999q-88 -444 -519 -444q-190 0 -313 108t-123 289z" />
    <glyph glyph-name="Umacron.alt1" 
d="M135 381q0 48 12 113l191 933h45l-193 -946q-10 -55 -10 -100q0 -155 109 -258q110 -98 286 -98q387 0 472 411l200 991h45l-202 -999q-88 -444 -519 -444q-190 0 -313 108t-123 289zM1110 1391h-594l6 36h594z" />
    <glyph glyph-name="Ubreve.alt1" 
d="M135 381q0 48 12 113l191 933h45l-193 -946q-10 -55 -10 -100q0 -155 109 -258q110 -98 286 -98q387 0 472 411l200 991h45l-202 -999q-88 -444 -519 -444q-190 0 -313 108t-123 289zM776 1257q-80 0 -126 45.5t-46 124.5h41q6 -129 137 -129q136 0 191 129h43
q-29 -81 -92 -125.5t-148 -44.5z" />
    <glyph glyph-name="Uring.alt1" 
d="M780 1198q-54 0 -87.5 32t-33.5 83q0 59 43 101t101 42q54 0 87.5 -32.5t33.5 -86.5q0 -55 -42 -97t-102 -42zM135 381q0 48 12 113l191 933h45l-193 -946q-10 -55 -10 -100q0 -155 109 -258q110 -98 286 -98q387 0 472 411l200 991h45l-202 -999q-88 -444 -519 -444
q-190 0 -313 108t-123 289zM782 1235q42 0 72.5 31t30.5 69q0 37 -23 59.5t-61 22.5q-41 0 -72 -30.5t-31 -71.5q0 -35 23.5 -57.5t60.5 -22.5z" />
    <glyph glyph-name="Uhungarumlaut.alt1" 
d="M135 381q0 48 12 113l191 933h45l-193 -946q-10 -55 -10 -100q0 -155 109 -258q110 -98 286 -98q387 0 472 411l200 991h45l-202 -999q-88 -444 -519 -444q-190 0 -313 108t-123 289zM889 1229h-39l149 198h54zM582 1229h-41l151 198h53z" />
    <glyph glyph-name="Uogonek.alt1" 
d="M543 66q0 109 131 167q-12 -2 -56 -2q-189 0 -313 109q-123 108 -123 289q0 42 13 112l139 686h45l-141 -698q-11 -60 -11 -100q0 -155 109 -258q111 -99 287 -99q388 0 471 412l149 743h45l-151 -751q-58 -293 -269 -393q-16 -7 -74 -31t-77 -33q-28 -14 -48 -26.5
t-42.5 -31t-33 -41t-7.5 -46.5q0 -41 59 -41q57 0 105 28l-17 -45q-42 -22 -100 -22q-42 0 -66 19.5t-24 52.5z" />
    <glyph glyph-name="Wgrave.alt1" horiz-adv-x="1900" 
d="M436 0h-35l-184 1427h43l176 -1337l594 1104h31l143 -1108l723 1341h49l-770 -1427h-32l-144 1104zM1085 1229h-38l-68 198h53z" />
    <glyph glyph-name="Wacute.alt1" horiz-adv-x="1900" 
d="M1067 1229h-41l133 198h60zM436 0h-35l-184 1427h43l176 -1337l594 1104h31l143 -1108l723 1341h49l-770 -1427h-32l-144 1104z" />
    <glyph glyph-name="Wcircumflex.alt1" horiz-adv-x="1900" 
d="M436 0h-35l-184 1427h43l176 -1337l594 1104h31l143 -1108l723 1341h49l-770 -1427h-32l-144 1104zM842 1229h-68l287 198h39l205 -198h-56l-170 162z" />
    <glyph glyph-name="Wdieresis.alt1" horiz-adv-x="1900" 
d="M1266 1286q-37 0 -37 37q0 17 12 29t31 12q37 0 37 -35q0 -18 -12.5 -30.5t-30.5 -12.5zM864 1286q-37 0 -37 37q0 17 13 29t30 12q37 0 37 -35q0 -18 -12.5 -30.5t-30.5 -12.5zM436 0h-35l-184 1427h43l176 -1337l594 1104h31l143 -1108l723 1341h49l-770 -1427h-32
l-144 1104z" />
    <glyph glyph-name="Ygrave.alt1" horiz-adv-x="1165" 
d="M461 0h-45l127 618l-330 809h47l311 -763l619 763h53l-657 -815zM733 1229h-39l-67 198h53z" />
    <glyph glyph-name="Yacute.alt1" horiz-adv-x="1165" 
d="M461 0h-45l127 618l-330 809h47l311 -763l619 763h53l-657 -815zM662 1229h-41l133 198h59z" />
    <glyph glyph-name="Ycircumflex.alt1" horiz-adv-x="1165" 
d="M461 0h-45l127 618l-330 809h47l311 -763l619 763h53l-657 -815zM479 1229h-67l286 198h39l205 -198h-55l-170 162z" />
    <glyph glyph-name="Ydieresis.alt1" horiz-adv-x="1165" 
d="M461 0h-45l127 618l-330 809h47l311 -763l619 763h53l-657 -815zM850 1286q-35 0 -35 37q0 17 12 29t29 12q37 0 37 -35q0 -18 -12.5 -30.5t-30.5 -12.5zM547 1286q-37 0 -37 37q0 17 13 29t30 12q37 0 37 -35q0 -18 -12.5 -30.5t-30.5 -12.5z" />
    <glyph glyph-name="Zacute.alt1" horiz-adv-x="1222" 
d="M739 1229h-41l133 198h60zM975 0h-1059l6 29l1229 1124h-893l10 41h961l-8 -33l-1225 -1120h987z" />
    <glyph glyph-name="Zcaron.alt1" horiz-adv-x="1222" 
d="M975 0h-1059l6 29l1229 1124h-893l10 41h961l-8 -33l-1225 -1120h987zM780 1229h-39l-204 198h55l170 -161l237 161h68z" />
    <glyph glyph-name="Zdotaccent.alt1" horiz-adv-x="1222" 
d="M762 1286q-37 0 -37 37q0 17 12 29t29 12q37 0 37 -35q0 -17 -12 -30t-29 -13zM975 0h-1059l6 29l1229 1124h-893l10 41h961l-8 -33l-1225 -1120h987z" />
    <glyph glyph-name="Eng.alt1" horiz-adv-x="1454" 
d="M104 0h-45l289 1427h43l617 -1341q85 69 125 270l219 1071h43l-217 -1073q-39 -197 -121.5 -284.5t-245.5 -87.5q-91 0 -162 26l10 43q56 -26 150 -26q103 0 162 36l-592 1293z" />
    <glyph glyph-name="Cacute.alt2" horiz-adv-x="1284" 
d="M809 1229h-41l133 198h60zM74 512q0 276 202 475q207 201 484 201q136 0 253 -47t185 -131l-12 -47q-67 88 -179 136t-249 48q-259 0 -451 -189q-190 -187 -190 -442q0 -219 145 -358q144 -138 377 -138q219 0 405 121l-10 -53q-175 -108 -397 -108q-251 0 -406 149
q-157 151 -157 383z" />
    <glyph glyph-name="Ccircumflex.alt2" horiz-adv-x="1284" 
d="M74 512q0 276 202 475q207 201 484 201q136 0 253 -47t185 -131l-12 -47q-67 88 -179 136t-249 48q-259 0 -451 -189q-190 -187 -190 -442q0 -219 145 -358q144 -138 377 -138q219 0 405 121l-10 -53q-175 -108 -397 -108q-251 0 -406 149q-157 151 -157 383zM606 1229
h-67l286 198h39l205 -198h-55l-170 162z" />
    <glyph glyph-name="Ccaron.alt2" horiz-adv-x="1284" 
d="M74 512q0 276 202 475q207 201 484 201q136 0 253 -47t185 -131l-12 -47q-67 88 -179 136t-249 48q-259 0 -451 -189q-190 -187 -190 -442q0 -219 145 -358q144 -138 377 -138q219 0 405 121l-10 -53q-175 -108 -397 -108q-251 0 -406 149q-157 151 -157 383zM854 1229
h-39l-205 198h56l170 -161l237 161h68z" />
    </font>
</defs>
</svg>
